<svg xmlns="http://www.w3.org/2000/svg" width="110" height="110" viewBox="0 0 110 110">
  <g id="Grupo_57716" data-name="Grupo 57716" transform="translate(-472 -758)">
    <circle id="Elipse_1534" data-name="Elipse 1534" cx="55" cy="55" r="55" transform="translate(472 758)" fill="#fff"/>
    <g id="software" transform="translate(476 763.387)">
      <path id="Trazado_103045" data-name="Trazado 103045" d="M93.109,144v33.363a2.383,2.383,0,0,1-2.383,2.383H26.383A2.383,2.383,0,0,1,24,177.363V144Z" transform="translate(-6.808 -108.935)" fill="#548aff"/>
      <path id="Trazado_103046" data-name="Trazado 103046" d="M24,103.149V98.383A2.383,2.383,0,0,1,26.383,96H90.726a2.383,2.383,0,0,1,2.383,2.383v4.766Z" transform="translate(-6.808 -68.085)" fill="#7dafff"/>
      <path id="Trazado_103047" data-name="Trazado 103047" d="M128.341,244.766h-5.958a2.383,2.383,0,1,1,0-4.766h5.958Z" transform="translate(-88.51 -190.637)" fill="#91c0ff"/>
      <path id="Trazado_103048" data-name="Trazado 103048" d="M176,240h29.788a2.383,2.383,0,0,1,0,4.766H176Z" transform="translate(-136.169 -190.637)" fill="#7dafff"/>
      <circle id="Elipse_1524" data-name="Elipse 1524" cx="12.964" cy="12.964" r="12.964" transform="translate(38.965 17.117)" fill="#ffc431"/>
      <circle id="Elipse_1525" data-name="Elipse 1525" cx="3.704" cy="3.704" r="3.704" transform="translate(47.854 26.747)" fill="#ffa100"/>
      <path id="Trazado_103049" data-name="Trazado 103049" d="M208,384h14.3v9.532H208Z" transform="translate(-163.403 -313.189)" fill="#d1e4ff"/>
      <path id="Trazado_103050" data-name="Trazado 103050" d="M176,448h23.831v4.766H176Z" transform="translate(-136.169 -367.657)" fill="#e8f2ff"/>
      <path id="Trazado_103051" data-name="Trazado 103051" d="M83.918,88H68.428v2.383h15.49a1.193,1.193,0,0,1,1.192,1.192v3.575H67.236v2.383H85.109V129.7a1.193,1.193,0,0,1-1.192,1.192H19.575a1.193,1.193,0,0,1-1.192-1.192V97.532H36.256V95.149H18.383V91.575a1.193,1.193,0,0,1,1.192-1.192h15.49V88H19.575A3.579,3.579,0,0,0,16,91.575V129.7a3.579,3.579,0,0,0,3.575,3.575H43.405v7.149H39.831a1.192,1.192,0,0,0-1.192,1.192v4.766a1.192,1.192,0,0,0,1.192,1.192H41.72l.843.843a1.192,1.192,0,0,0,.843.349h2.383a1.192,1.192,0,0,0,.843-.349l.843-.843h8.545l.843.843a1.192,1.192,0,0,0,.843.349h2.383a1.192,1.192,0,0,0,.843-.349l.843-.843h1.889a1.192,1.192,0,0,0,1.192-1.192v-4.766a1.192,1.192,0,0,0-1.192-1.192H60.087v-7.149H83.918a3.579,3.579,0,0,0,3.575-3.575V91.575A3.579,3.579,0,0,0,83.918,88ZM45.788,133.278h4.766v3.575a1.192,1.192,0,1,0,2.383,0v-3.575H57.7v7.149H45.788Zm16.682,9.532v2.383H41.022v-2.383Z" transform="translate(0 -61.276)"/>
      <ellipse id="Elipse_1526" data-name="Elipse 1526" cx="1.482" cy="1.111" rx="1.482" ry="1.111" transform="translate(20.445 30.451)"/>
      <circle id="Elipse_1527" data-name="Elipse 1527" cx="1.111" cy="1.111" r="1.111" transform="translate(24.149 30.451)"/>
      <circle id="Elipse_1528" data-name="Elipse 1528" cx="1.111" cy="1.111" r="1.111" transform="translate(27.853 30.451)"/>
      <path id="Trazado_103052" data-name="Trazado 103052" d="M154.9,235.575A3.579,3.579,0,0,0,151.321,232H115.575a3.575,3.575,0,1,0,0,7.149h35.746A3.579,3.579,0,0,0,154.9,235.575Zm-34.555,1.192h-4.766a1.192,1.192,0,0,1,0-2.383h4.766Zm2.383-2.383h28.6a1.192,1.192,0,1,1,0,2.383h-28.6Z" transform="translate(-81.702 -183.828)"/>
      <path id="Trazado_103053" data-name="Trazado 103053" d="M152,304h5.958v2.383H152Z" transform="translate(-115.744 -245.105)"/>
      <path id="Trazado_103054" data-name="Trazado 103054" d="M208,304h5.958v2.383H208Z" transform="translate(-163.403 -245.105)"/>
      <path id="Trazado_103055" data-name="Trazado 103055" d="M264,304h5.958v2.383H264Z" transform="translate(-211.062 -245.105)"/>
      <path id="Trazado_103056" data-name="Trazado 103056" d="M320,304h5.958v2.383H320Z" transform="translate(-258.722 -245.105)"/>
      <path id="Trazado_103057" data-name="Trazado 103057" d="M174.3,16a14.3,14.3,0,1,0,14.3,14.3A14.3,14.3,0,0,0,174.3,16Zm0,26.214A11.915,11.915,0,1,1,186.214,30.3,11.915,11.915,0,0,1,174.3,42.214Z" transform="translate(-122.552)"/>
      <path id="Trazado_103058" data-name="Trazado 103058" d="M228.766,80a4.766,4.766,0,1,0,4.766,4.766A4.766,4.766,0,0,0,228.766,80Zm0,7.149a2.383,2.383,0,1,1,2.383-2.383A2.383,2.383,0,0,1,228.766,87.149Z" transform="translate(-177.02 -54.468)"/>
    </g>
  </g>
</svg>
