<svg xmlns="http://www.w3.org/2000/svg" width="95" height="95" viewBox="0 0 95 95">
  <g id="Grupo_57610" data-name="Grupo 57610" transform="translate(-435 -603)">
    <circle id="Elipse_1540" data-name="Elipse 1540" cx="47.5" cy="47.5" r="47.5" transform="translate(435 603)" fill="#fff"/>
    <g id="dns" transform="translate(451 619)">
      <g id="Grupo_57608" data-name="Grupo 57608">
        <g id="Grupo_57605" data-name="Grupo 57605">
          <circle id="Elipse_1539" data-name="Elipse 1539" cx="20" cy="20" r="20" transform="translate(8 16)" fill="#69d6f4"/>
        </g>
        <g id="Grupo_57606" data-name="Grupo 57606">
          <path id="Trazado_103126" data-name="Trazado 103126" d="M54,33v6l-2.29.73A23.819,23.819,0,0,1,47.4,50.12l1.11,2.14-4.25,4.25L42.12,55.4a23.819,23.819,0,0,1-10.39,4.31L31,62H25l-.73-2.29A23.819,23.819,0,0,1,13.88,55.4l-2.14,1.11L7.49,52.26,8.6,50.12A23.819,23.819,0,0,1,4.29,39.73L2,39V33l2.29-.73A23.819,23.819,0,0,1,8.6,21.88L7.49,19.74l4.25-4.25,2.14,1.11a23.819,23.819,0,0,1,10.39-4.31L25,10h3v6a19.969,19.969,0,1,0,9.57,2.43L38,18h8.77l1.74,1.74L47.4,21.88a23.819,23.819,0,0,1,4.31,10.39Z" fill="#fcd770"/>
        </g>
        <g id="Grupo_57607" data-name="Grupo 57607">
          <path id="Trazado_103127" data-name="Trazado 103127" d="M60,2H30a2.006,2.006,0,0,0-2,2V16a2.006,2.006,0,0,0,2,2h2v2.59a1.39,1.39,0,0,0,.97,1.33,1.076,1.076,0,0,0,.44.08,1.415,1.415,0,0,0,1-.41l3.16-3.16L38,18H60a2.006,2.006,0,0,0,2-2V4A2.006,2.006,0,0,0,60,2Z" fill="#e6e9ed"/>
        </g>
      </g>
      <g id="Grupo_57609" data-name="Grupo 57609">
        <path id="Trazado_103128" data-name="Trazado 103128" d="M34,5H31V15h3A5,5,0,0,0,34,5Zm0,8H33V7h1a3,3,0,0,1,0,6Z"/>
        <path id="Trazado_103129" data-name="Trazado 103129" d="M54,7h2a1,1,0,0,1,1,1h2a3,3,0,0,0-3-3H54a3,3,0,0,0,0,6h2a1,1,0,0,1,0,2H54a1,1,0,0,1-1-1H51a3,3,0,0,0,3,3h2a3,3,0,0,0,0-6H54a1,1,0,0,1,0-2Z"/>
        <path id="Trazado_103130" data-name="Trazado 103130" d="M47,11.764,43.618,5H41V15h2V8.236L46.382,15H49V5H47Z"/>
        <path id="Trazado_103131" data-name="Trazado 103131" d="M60,1H30a3,3,0,0,0-3,3V9H24.269L23.5,11.4a25.046,25.046,0,0,0-9.709,4.027l-2.248-1.163L6.271,19.545l1.162,2.248A25,25,0,0,0,3.407,31.5L1,32.269v7.463l2.406.765a25.029,25.029,0,0,0,4.026,9.709L6.27,52.454l5.275,5.276,2.248-1.163A25.03,25.03,0,0,0,23.5,60.594L24.269,63h7.463l.766-2.4a25.046,25.046,0,0,0,9.709-4.027l2.248,1.163,5.275-5.276-1.162-2.248A25,25,0,0,0,52.594,40.5L55,39.731V32.268L52.594,31.5a25.029,25.029,0,0,0-4.026-9.709l1.162-2.248L49.183,19H60a3,3,0,0,0,3-3V4A3,3,0,0,0,60,1ZM32.146,22.631c.246.747.473,1.534.672,2.369H23.167c1.012-4.28,2.551-7.094,4.084-7.8A3,3,0,0,0,30,19h1v1.586A2.407,2.407,0,0,0,32.146,22.631Zm5.581-2.943A19.011,19.011,0,0,1,43.486,25H34.869q-.255-1.132-.561-2.175a2.406,2.406,0,0,0,.815-.532ZM11.273,27h9.471a53.352,53.352,0,0,0-.734,8H9.051A18.867,18.867,0,0,1,11.273,27Zm1.264-2a19.027,19.027,0,0,1,11.6-7.6,21.322,21.322,0,0,0-3,7.6Zm9.481,10a50.429,50.429,0,0,1,.741-8H33.237a50.281,50.281,0,0,1,.747,8Zm11.964,2a50.428,50.428,0,0,1-.741,8H22.758a50.428,50.428,0,0,1-.741-8ZM20.009,37a53.484,53.484,0,0,0,.734,8H11.272A18.867,18.867,0,0,1,9.05,37Zm1.127,10a21.322,21.322,0,0,0,3,7.6,19.027,19.027,0,0,1-11.6-7.6Zm2.032,0h9.665c-1.177,4.978-3.067,8-4.832,8S24.345,51.978,23.168,47Zm11.7,0h8.6a19.027,19.027,0,0,1-11.6,7.6A21.322,21.322,0,0,0,34.864,47Zm9.863-2H35.256a53.352,53.352,0,0,0,.734-8H46.949A18.867,18.867,0,0,1,44.727,45ZM35.983,35a52.687,52.687,0,0,0-.722-8h9.463a18.98,18.98,0,0,1,2.242,8Zm11.3-15.074-1.055,2.04.364.5a22.994,22.994,0,0,1,4.13,9.96l.1.611L53,33.731v4.537l-2.183.694-.1.611a22.989,22.989,0,0,1-4.13,9.96l-.364.5,1.055,2.04-3.209,3.208-2.039-1.055-.5.364a23,23,0,0,1-9.961,4.131l-.611.1L30.269,61H25.732l-.694-2.182-.611-.1a23,23,0,0,1-9.961-4.131l-.5-.364-2.039,1.055L8.719,52.074l1.055-2.04-.364-.5a22.994,22.994,0,0,1-4.13-9.96l-.1-.611L3,38.269V33.732l2.183-.694.1-.611a22.989,22.989,0,0,1,4.13-9.96l.364-.5-1.055-2.04,3.209-3.208,2.039,1.055.5-.364a23,23,0,0,1,9.961-4.131l.611-.1L25.731,11H27v4.051A20.952,20.952,0,1,0,40.327,19h6.029ZM61,16a1,1,0,0,1-1,1H37.586l-3.88,3.879A.43.43,0,0,1,33,20.586V17H30a1,1,0,0,1-1-1V4a1,1,0,0,1,1-1H60a1,1,0,0,1,1,1Z"/>
        <path id="Trazado_103132" data-name="Trazado 103132" d="M51,49H61v2H51Z"/>
        <path id="Trazado_103133" data-name="Trazado 103133" d="M51,53H61v2H51Z"/>
        <path id="Trazado_103134" data-name="Trazado 103134" d="M51,57h2v2H51Z"/>
        <path id="Trazado_103135" data-name="Trazado 103135" d="M55,57h2v2H55Z"/>
        <path id="Trazado_103136" data-name="Trazado 103136" d="M59,57h2v2H59Z"/>
        <path id="Trazado_103137" data-name="Trazado 103137" d="M3,3H13V5H3Z"/>
        <path id="Trazado_103138" data-name="Trazado 103138" d="M3,7H13V9H3Z"/>
        <path id="Trazado_103139" data-name="Trazado 103139" d="M3,11H5v2H3Z"/>
        <path id="Trazado_103140" data-name="Trazado 103140" d="M7,11H9v2H7Z"/>
        <path id="Trazado_103141" data-name="Trazado 103141" d="M11,11h2v2H11Z"/>
      </g>
    </g>
  </g>
</svg>
