<svg xmlns="http://www.w3.org/2000/svg" width="289" height="214.577" viewBox="0 0 289 214.577">
  <g id="Grupo_57566" data-name="Grupo 57566" transform="translate(3988 8626.845)">
    <rect id="Rectángulo_6843" data-name="Rectángulo 6843" width="289" height="155" rx="22" transform="translate(-3988 -8567.268)" fill="#dbfbff"/>
    <g id="Grupo_57562" data-name="Grupo 57562" transform="translate(-3931 -8626.845)">
      <g id="android" transform="translate(0 0)">
        <path id="Trazado_102854" data-name="Trazado 102854" d="M86.752,0A86.752,86.752,0,1,1,0,86.752,86.752,86.752,0,0,1,86.752,0Z" transform="translate(0 0)" fill="#26a69a"/>
        <path id="Trazado_102830" data-name="Trazado 102830" d="M159.017,218.411a87.01,87.01,0,0,0,83.511-86.719L181.222,70.385,170.36,82.415,152.51,84.63,135.233,67.353l2.5,14.156-18.094,27.772,12.836,12.836-3.942,3.729-14.054-14.054-10.7,45.744,36.292,36.292-3.7,1.077Z" transform="translate(-68.504 -44.984)" fill="#55beb4"/>
        <path id="Trazado_102831" data-name="Trazado 102831" d="M102.524,190.708h0a8.024,8.024,0,0,0-8.024,8.024v33.856a8.024,8.024,0,0,0,8.024,8.024h0a8.024,8.024,0,0,0,8.024-8.024V198.732A8.024,8.024,0,0,0,102.524,190.708Z" transform="translate(-62.38 -126.411)" fill="#fff"/>
        <path id="Trazado_102832" data-name="Trazado 102832" d="M378.312,190.708h0a8.024,8.024,0,0,0-8.024,8.024v33.856a8.024,8.024,0,0,0,8.024,8.024h0a8.024,8.024,0,0,0,8.024-8.024V198.732A8.024,8.024,0,0,0,378.312,190.708Z" transform="translate(-244.428 -126.411)" fill="#e6e6e6"/>
        <path id="Trazado_102833" data-name="Trazado 102833" d="M206.047,80.285l5.971-9.9-5.027-3.032-6.128,10.159a35.981,35.981,0,0,0-14.353-2.968h0a35.975,35.975,0,0,0-14.353,2.968l-6.128-10.16L161,70.385l5.971,9.9a36.082,36.082,0,0,0-16.541,29h72.156A36.081,36.081,0,0,0,206.047,80.285Zm-35.878,15.3a3.669,3.669,0,1,1,3.669-3.669A3.669,3.669,0,0,1,170.169,95.582Zm32.29,0a3.669,3.669,0,1,1,3.669-3.669A3.669,3.669,0,0,1,202.459,95.582Z" transform="translate(-99.301 -44.984)" fill="#fff"/>
        <path id="Trazado_102834" data-name="Trazado 102834" d="M275.953,80.286l5.971-9.9L276.9,67.354l-6.128,10.159a35.98,35.98,0,0,0-14.353-2.968h-.082v34.735h36.16A36.081,36.081,0,0,0,275.953,80.286Zm-3.588,15.3a3.669,3.669,0,1,1,3.669-3.669A3.669,3.669,0,0,1,272.365,95.583Z" transform="translate(-169.206 -44.985)" fill="#e6e6e6"/>
        <path id="Trazado_102835" data-name="Trazado 102835" d="M149.773,262.9h14.286v17.906a8.024,8.024,0,0,0,8.024,8.024h0a8.024,8.024,0,0,0,8.024-8.024V262.9h11.155v17.906a8.024,8.024,0,0,0,8.024,8.024h0a8.024,8.024,0,0,0,8.024-8.024V262.9h14.677V206.541H149.773Z" transform="translate(-98.866 -136.862)" fill="#fff"/>
        <path id="Trazado_102836" data-name="Trazado 102836" d="M256.333,206.541V262.9H261.6v17.906a8.024,8.024,0,0,0,8.024,8.024h0a8.024,8.024,0,0,0,8.024-8.024V262.9h14.677V206.541Z" transform="translate(-169.206 -136.862)" fill="#e6e6e6"/>
      </g>
    </g>
  </g>
</svg>
