<svg xmlns="http://www.w3.org/2000/svg" width="289" height="213.587" viewBox="0 0 289 213.587">
  <g id="Grupo_57567" data-name="Grupo 57567" transform="translate(3988 8372.854)">
    <rect id="Rectángulo_6844" data-name="Rectángulo 6844" width="289" height="155" rx="22" transform="translate(-3988 -8314.268)" fill="#dbfbff"/>
    <g id="apple" transform="translate(-3930 -8372.854)">
      <ellipse id="Elipse_1455" data-name="Elipse 1455" cx="86.256" cy="86.256" rx="86.256" ry="86.256" transform="translate(0 0)" fill="#191919"/>
      <path id="Trazado_102827" data-name="Trazado 102827" d="M158.881,117.331l6.248,6.248a31.053,31.053,0,0,1-15.083-3,20.028,20.028,0,0,0-10.1-2.015c-15.521,1.071-26.8,20.812-25.194,44.093A51.438,51.438,0,0,0,128.1,194.073l-.012.012,39.783,39.783A86.545,86.545,0,0,0,248.463,156.5L184.088,92.124a26,26,0,0,0-25.207,25.207Z" transform="translate(-76.079 -61.848)" fill="#4a4c4d"/>
      <g id="Grupo_57420" data-name="Grupo 57420" transform="translate(38.522 30.276)">
        <path id="Trazado_102828" data-name="Trazado 102828" d="M191.841,201.594A24.771,24.771,0,0,1,203.763,180.6c-4.4-6.039-10.226-9.876-16.823-10.331a20.034,20.034,0,0,0-10.1,2.018,31.034,31.034,0,0,1-26.791,0,20.028,20.028,0,0,0-10.1-2.015c-15.521,1.071-26.8,20.812-25.194,44.093s18.345,41.089,31.011,40.215a15.111,15.111,0,0,0,5.081-1.32,31.042,31.042,0,0,1,25.194,0,15.1,15.1,0,0,0,5.084,1.322c10.58.73,24-11.58,29.065-29.222A24.878,24.878,0,0,1,191.841,201.594Z" transform="translate(-114.601 -143.826)" fill="#fff"/>
        <path id="Trazado_102829" data-name="Trazado 102829" d="M253.2,99.729a25.931,25.931,0,0,0-7.6,17.6,26,26,0,0,0,25.207-25.207A25.932,25.932,0,0,0,253.2,99.729Z" transform="translate(-201.321 -92.124)" fill="#fff"/>
      </g>
    </g>
  </g>
</svg>
