<svg xmlns="http://www.w3.org/2000/svg" width="289" height="214.955" viewBox="0 0 289 214.955">
  <g id="Grupo_57568" data-name="Grupo 57568" transform="translate(3988 8134.213)">
    <rect id="Rectángulo_6845" data-name="Rectángulo 6845" width="289" height="155" rx="22" transform="translate(-3988 -8074.258)" fill="#dbfbff"/>
    <g id="Grupo_57564" data-name="Grupo 57564" transform="translate(-3931 -8134.213)">
      <g id="linux" transform="translate(0 0)">
        <ellipse id="Elipse_1457" data-name="Elipse 1457" cx="87.52" cy="87.52" rx="87.52" ry="87.52" transform="translate(0 0)" fill="#1565c0"/>
        <path id="Trazado_102837" data-name="Trazado 102837" d="M171.607,78.453,103.938,184.725l40.805,41.122a87.529,87.529,0,0,0,97.962-76.3Z" transform="translate(-68.29 -51.51)" fill="#039be5"/>
        <path id="Trazado_102838" data-name="Trazado 102838" d="M216.8,109.328A28.287,28.287,0,0,1,208.148,83.8a20.389,20.389,0,0,0-19.535-23.5,20.4,20.4,0,0,0-20.371,25.349,27.836,27.836,0,0,1-6.514,25.993A38.841,38.841,0,0,0,151,138.3c0,23.756,9.245,35.2,22.472,38.811a31.457,31.457,0,0,1,12.369-2.226,32.241,32.241,0,0,1,11.912,2.03c16.321-3.272,24.064-11.221,29.466-29.574C231.537,132.682,224.847,116.547,216.8,109.328Z" transform="translate(-99.278 -39.556)" fill="#333"/>
        <path id="Trazado_102839" data-name="Trazado 102839" d="M283.959,109.329A28.286,28.286,0,0,1,275.3,83.806,20.349,20.349,0,0,0,253,60.419V174.887c5.439,0,10.267,1.053,13.3,2.682,15.442-2.408,22.828-12.387,28.078-30.226C298.692,132.683,292,116.548,283.959,109.329Z" transform="translate(-166.433 -39.558)"/>
        <path id="Trazado_102840" data-name="Trazado 102840" d="M176.289,203.762c0-15.488,12.408-51.354,27.715-51.354s27.715,36.048,27.715,51.354a27.715,27.715,0,0,1-55.43,0Z" transform="translate(-115.926 -100.203)" fill="#fff"/>
        <path id="Trazado_102841" data-name="Trazado 102841" d="M254.511,152.408a9.988,9.988,0,0,0-1.511.119v78.908c.5.027,1,.043,1.511.043a27.715,27.715,0,0,0,27.715-27.715C282.226,188.456,269.818,152.408,254.511,152.408Z" transform="translate(-166.433 -100.203)" fill="#c0c2c1"/>
        <ellipse id="Elipse_1458" data-name="Elipse 1458" cx="4.565" cy="6.197" rx="4.565" ry="6.197" transform="translate(73.292 38.184)" fill="#e6e6e6"/>
        <ellipse id="Elipse_1459" data-name="Elipse 1459" cx="2.264" cy="4.017" rx="2.264" ry="4.017" transform="translate(75.593 41.771)" fill="#000100"/>
        <ellipse id="Elipse_1460" data-name="Elipse 1460" cx="4.565" cy="6.197" rx="4.565" ry="6.197" transform="translate(89.545 38.184)" fill="#e6e6e6"/>
        <ellipse id="Elipse_1461" data-name="Elipse 1461" cx="2.264" cy="4.017" rx="2.264" ry="4.017" transform="translate(91.846 41.771)" fill="#000100"/>
        <path id="Trazado_102842" data-name="Trazado 102842" d="M239.463,142.453c1.491,3.179-9.863,9.211-13.817,9.211-4.932,0-15.23-7.289-13.817-9.211,2.637-3.587,8.4-9.374,13.124-9.374C228.359,133.079,238.45,140.293,239.463,142.453Z" transform="translate(-139.239 -87.476)" fill="#fe9a0f"/>
        <path id="Trazado_102843" data-name="Trazado 102843" d="M266.657,142.675c-.939-2-9.671-8.341-13.657-9.259v18.463C257.086,151.729,268.129,145.813,266.657,142.675Z" transform="translate(-166.433 -87.698)" fill="#e2810c"/>
        <path id="Trazado_102844" data-name="Trazado 102844" d="M298.475,301.94c2.015,3.892,5.011,7.567,8.876,8.418a6.887,6.887,0,0,1,5.324,5.954q.066.6.18,1.211a15.736,15.736,0,0,0,3.16,6.923,5,5,0,0,1-3.028,8l-29.058,5.507a7.443,7.443,0,0,1-7.751-11.171l16.044-25.155A3.607,3.607,0,0,1,298.475,301.94Z" transform="translate(-180.971 -197.354)" fill="#dd7f10"/>
        <path id="Trazado_102845" data-name="Trazado 102845" d="M228.223,167.756c-4.129,0-8.341-2.018-12.54-6.014l1.413-1.485c4.187,3.984,8.3,5.8,12.215,5.394,5.408-.559,8.663-5.187,8.7-5.234l1.687,1.165c-.154.222-3.835,5.453-10.171,6.107A12.613,12.613,0,0,1,228.223,167.756Z" transform="translate(-141.863 -105.37)" fill="#ae4e32"/>
        <path id="Trazado_102846" data-name="Trazado 102846" d="M253.88,165.96c-.292.03-.586.044-.88.049v2.051c.364-.006.728-.024,1.09-.061,6.337-.654,10.018-5.885,10.171-6.107l-1.687-1.165C262.543,160.772,259.288,165.4,253.88,165.96Z" transform="translate(-166.433 -105.679)" fill="#9e402b"/>
        <ellipse id="Elipse_1462" data-name="Elipse 1462" cx="9.308" cy="9.308" rx="9.308" ry="9.308" transform="translate(112.149 99.756)"/>
        <path id="Trazado_102847" data-name="Trazado 102847" d="M168,289s9.947,12.127,17.035,14.859-3.371,10.667-12.936,4.65S168,289,168,289Z" transform="translate(-109.447 -190.136)" fill="#333"/>
        <path id="Trazado_102848" data-name="Trazado 102848" d="M119.474,301.94c-2.015,3.892-5.011,7.567-8.876,8.418a6.887,6.887,0,0,0-5.324,5.954q-.066.6-.18,1.211a15.735,15.735,0,0,1-3.16,6.923,5,5,0,0,0,3.028,8l29.058,5.507a7.443,7.443,0,0,0,7.751-11.171l-16.044-25.155A3.607,3.607,0,0,0,119.474,301.94Z" transform="translate(-66.264 -197.354)" fill="#fe9b0e"/>
      </g>
    </g>
  </g>
</svg>
