<svg xmlns="http://www.w3.org/2000/svg" width="110" height="110" viewBox="0 0 110 110">
  <g id="Grupo_57545" data-name="Grupo 57545" transform="translate(-986 -845)">
    <circle id="Elipse_1535" data-name="Elipse 1535" cx="55" cy="55" r="55" transform="translate(986 845)" fill="#fff"/>
    <g id="hardware" transform="translate(1004.445 863.446)">
      <path id="Trazado_103059" data-name="Trazado 103059" d="M47.6,380.213l4.432-4.432,7.115,7.115-4.432,4.432Zm0,0" transform="translate(-40.118 -316.701)" fill="#798b9b"/>
      <g id="Grupo_57521" data-name="Grupo 57521" transform="translate(1.258 45.725)">
        <path id="Trazado_103060" data-name="Trazado 103060" d="M8,295.287l4.447-4.447,23.124,23.124-4.447,4.447Zm0,0" transform="translate(-8 -290.84)" fill="#ccdce5"/>
        <path id="Trazado_103061" data-name="Trazado 103061" d="M194.676,418.843l3.558-3.558,4.447,4.447-3.558,3.558Zm0,0" transform="translate(-165.326 -395.72)" fill="#ccdce5"/>
        <path id="Trazado_103062" data-name="Trazado 103062" d="M239.926,340.225l9.783-9.783,4.447,4.447-9.783,9.783Zm0,0" transform="translate(-203.462 -324.215)" fill="#ccdce5"/>
      </g>
      <path id="Trazado_103063" data-name="Trazado 103063" d="M158.871,33.193,184.066,8l15.12,8,8,15.12-25.2,25.2Zm0,0" transform="translate(-133.893 -6.74)" fill="#798b9b"/>
      <path id="Trazado_103064" data-name="Trazado 103064" d="M66.446,181.756,45.991,202.212,19.309,175.53l20.457-20.455,17.788,8.894Zm0,0" transform="translate(-16.273 -130.694)" fill="#eb4042"/>
      <path id="Trazado_103065" data-name="Trazado 103065" d="M128.343,235.82a11.32,11.32,0,1,1-11.32-11.32A11.32,11.32,0,0,1,128.343,235.82Zm0,0" transform="translate(-89.084 -189.205)" fill="#354f5c"/>
      <path id="Trazado_103066" data-name="Trazado 103066" d="M161.25,276.273a3.773,3.773,0,1,1-3.773-3.773A3.773,3.773,0,0,1,161.25,276.273Zm0,0" transform="translate(-129.538 -229.658)" fill="#798b9b"/>
      <path id="Trazado_103067" data-name="Trazado 103067" d="M172.219,289.758a1.258,1.258,0,1,1-1.258-1.258A1.258,1.258,0,0,1,172.219,289.758Zm0,0" transform="translate(-143.022 -243.142)" fill="#354f5c"/>
      <path id="Trazado_103068" data-name="Trazado 103068" d="M286.734,77.429a11.32,11.32,0,1,1-11.32-11.32A11.32,11.32,0,0,1,286.734,77.429Zm0,0" transform="translate(-222.573 -55.716)" fill="#354f5c"/>
      <path id="Trazado_103069" data-name="Trazado 103069" d="M319.64,117.883a3.773,3.773,0,1,1-3.773-3.773A3.773,3.773,0,0,1,319.64,117.883Zm0,0" transform="translate(-263.026 -96.17)" fill="#798b9b"/>
      <path id="Trazado_103070" data-name="Trazado 103070" d="M330.609,131.367a1.258,1.258,0,1,1-1.258-1.258A1.258,1.258,0,0,1,330.609,131.367Zm0,0" transform="translate(-276.51 -109.654)" fill="#354f5c"/>
      <path id="Trazado_103071" data-name="Trazado 103071" d="M119.073,237.766a12.595,12.595,0,1,0-8.893,3.677A12.595,12.595,0,0,0,119.073,237.766Zm-11.187.889a3.2,3.2,0,0,1-.88-2.82,6.944,6.944,0,0,1,2.806-3.226,3.5,3.5,0,0,0,.367.036,3.811,3.811,0,0,0,.7-.069,8.046,8.046,0,0,0,1.97,4.3,4.841,4.841,0,0,0,1.635,1.077,10.1,10.1,0,0,1-6.6.7Zm3.183-10.673a1.259,1.259,0,0,1,0,1.78,1.287,1.287,0,0,1-1.777,0,1.259,1.259,0,0,1,1.777-1.785Zm6.437,7.762a3.2,3.2,0,0,1-2.884-.65,6.936,6.936,0,0,1-1.392-4.025,3.676,3.676,0,0,0,.5-.956,9.509,9.509,0,0,0,3.222.639,5.756,5.756,0,0,0,1.494-.186,4.877,4.877,0,0,0,1.753-.881A10,10,0,0,1,117.506,235.744Zm2.3-9.8a3.2,3.2,0,0,1-2.013,2.184,6.945,6.945,0,0,1-4.182-.8,3.749,3.749,0,0,0-.589-.91,8.027,8.027,0,0,0,2.757-3.857,4.834,4.834,0,0,0,.115-1.961,9.868,9.868,0,0,1,1.4,1.16,10,10,0,0,1,2.513,4.184Zm-7.327-6.861a3.192,3.192,0,0,1,.881,2.818,7,7,0,0,1-2.848,3.256,4.015,4.015,0,0,0-1.019.034,8.072,8.072,0,0,0-1.971-4.331,4.841,4.841,0,0,0-1.635-1.078,9.906,9.906,0,0,1,6.6-.7Zm-9.626,2.9a3.2,3.2,0,0,1,2.884.652,6.931,6.931,0,0,1,1.392,4.025,3.759,3.759,0,0,0-.5.961,8.013,8.013,0,0,0-4.719-.452,4.843,4.843,0,0,0-1.753.881A10.019,10.019,0,0,1,102.849,221.99Zm-2.294,9.8a3.2,3.2,0,0,1,2.013-2.182,6.9,6.9,0,0,1,4.185.808,3.765,3.765,0,0,0,.588.91,8.05,8.05,0,0,0-2.756,3.857,4.868,4.868,0,0,0-.117,1.957,9.91,9.91,0,0,1-3.913-5.354Zm0,0" transform="translate(-82.241 -182.253)"/>
      <path id="Trazado_103072" data-name="Trazado 103072" d="M66.4,8.672a1.257,1.257,0,0,0-.523-.523l-15.118-8a1.259,1.259,0,0,0-1.478.222L25.615,24.036l-1.561-.78a1.259,1.259,0,0,0-1.452.235L2.146,43.943a1.258,1.258,0,0,0,0,1.779l.891.891L.368,49.283a1.257,1.257,0,0,0,0,1.779l5.339,5.333L3.925,58.177l1.782,1.779,1.78-1.779,1.78,1.779L6.588,62.624a1.257,1.257,0,0,0,0,1.779L13.7,71.518a1.257,1.257,0,0,0,1.778,0l2.677-2.672,1.78,1.779-1.78,1.782,1.778,1.779,1.78-1.78,1.779,1.78a1.257,1.257,0,0,0,1.779,0l2.668-2.668.889.889a1.257,1.257,0,0,0,1.779,0l.889-.889,2.669,2.668a1.257,1.257,0,0,0,1.778,0L39.5,70.628a1.257,1.257,0,0,0,0-1.779l-2.669-2.668,1.779-1.78,2.669,2.669a1.258,1.258,0,0,0,1.779,0l9.783-9.783a1.257,1.257,0,0,0,0-1.779L50.177,52.84l.889-.889A1.258,1.258,0,0,0,51.3,50.5l-.779-1.561L74.187,25.269a1.258,1.258,0,0,0,.221-1.478Zm-50.027,58.4L14.6,68.846,9.262,63.514l1.78-1.78Zm8,4.447L3.036,50.172l1.779-1.779L26.16,69.739ZM4.814,44.835,23.74,25.911l16.6,8.3,8.3,16.6L29.717,69.739ZM35.054,67.966l1.779,1.78-1.779,1.778-1.78-1.785ZM48.395,54.619l1.779,1.775-8,8-1.779-1.78ZM58.23,37.67l-1-2L54.981,36.8l1.373,2.742L53.78,42.118l-2.189-4.365-2.247,1.132L51.906,44l-2.575,2.573L42.4,32.712a1.254,1.254,0,0,0-.563-.563L27.988,25.221l2.573-2.574,5.113,2.565,1.132-2.249-4.371-2.189L35.014,18.2l2.747,1.374,1.125-2.25-2-1L50.406,2.8l13.961,7.388,7.389,13.961Zm0,0" transform="translate(0 0)"/>
      <path id="Trazado_103073" data-name="Trazado 103073" d="M177.7,400.1l1.779-1.779,1.779,1.779-1.779,1.779Zm0,0" transform="translate(-149.764 -335.697)"/>
      <path id="Trazado_103074" data-name="Trazado 103074" d="M268.219,309.587,270,307.809l1.779,1.779L270,311.366Zm0,0" transform="translate(-226.049 -259.415)"/>
      <path id="Trazado_103075" data-name="Trazado 103075" d="M53.258,275.642l1.779-1.779,1.779,1.779-1.779,1.779Zm0,0" transform="translate(-44.885 -230.807)"/>
      <path id="Trazado_103076" data-name="Trazado 103076" d="M143.77,185.138l1.779-1.779,1.779,1.779-1.779,1.779Zm0,0" transform="translate(-121.166 -154.532)"/>
      <path id="Trazado_103077" data-name="Trazado 103077" d="M30.625,155.32l11.562-11.562,1.779,1.779L32.4,157.1Zm0,0" transform="translate(-25.81 -121.157)"/>
      <path id="Trazado_103078" data-name="Trazado 103078" d="M160.73,38.31l13.34-13.341,1.779,1.779-13.34,13.34Zm0,0" transform="translate(-135.46 -21.044)"/>
      <path id="Trazado_103079" data-name="Trazado 103079" d="M256.9,4.118l1.779-1.778,1.778,1.779L258.68,5.9Zm0,0" transform="translate(-216.512 -1.973)"/>
      <path id="Trazado_103080" data-name="Trazado 103080" d="M259.752,61.821a12.578,12.578,0,1,0,17.786,0A12.578,12.578,0,0,0,259.752,61.821Zm18.521,5.968a3.2,3.2,0,0,1-2.012,2.183,6.936,6.936,0,0,1-4.184-.8,3.719,3.719,0,0,0-.587-.91,8.035,8.035,0,0,0,2.756-3.857,4.845,4.845,0,0,0,.114-1.961,9.92,9.92,0,0,1,3.911,5.353ZM267.76,71.6a1.253,1.253,0,1,1,.891.371,1.258,1.258,0,0,1-.891-.371Zm3.186-10.668a3.2,3.2,0,0,1,.88,2.819,6.942,6.942,0,0,1-2.8,3.227,3.777,3.777,0,0,0-1.069.033,8.054,8.054,0,0,0-1.965-4.3,4.841,4.841,0,0,0-1.635-1.078,9.881,9.881,0,0,1,6.6-.7Zm-9.625,2.906a3.193,3.193,0,0,1,2.883.652,6.938,6.938,0,0,1,1.392,4.025,3.727,3.727,0,0,0-.5.959,8,8,0,0,0-4.714-.455,4.846,4.846,0,0,0-1.753.88,10.011,10.011,0,0,1,2.687-6.061Zm-2.3,9.8a3.209,3.209,0,0,1,2.013-2.183,6.916,6.916,0,0,1,4.184.807,3.753,3.753,0,0,0,.589.912,8.035,8.035,0,0,0-2.756,3.856,4.851,4.851,0,0,0-.115,1.962,9.951,9.951,0,0,1-3.916-5.354Zm7.329,6.858a3.194,3.194,0,0,1-.881-2.82,6.951,6.951,0,0,1,2.81-3.218,3.46,3.46,0,0,0,.365.036,3.766,3.766,0,0,0,.7-.068,8.062,8.062,0,0,0,1.97,4.3,4.851,4.851,0,0,0,1.635,1.078A10.1,10.1,0,0,1,266.355,80.493Zm9.622-2.893a3.19,3.19,0,0,1-2.882-.653,6.932,6.932,0,0,1-1.395-4.037,3.687,3.687,0,0,0,.495-.956,9.516,9.516,0,0,0,3.221.639,5.758,5.758,0,0,0,1.494-.187,4.838,4.838,0,0,0,1.753-.881A10.009,10.009,0,0,1,275.977,77.6Zm0,0" transform="translate(-215.808 -49.002)"/>
    </g>
  </g>
</svg>
