<svg xmlns="http://www.w3.org/2000/svg" width="95" height="95" viewBox="0 0 95 95">
  <g id="Grupo_57611" data-name="Grupo 57611" transform="translate(-748 -603)">
    <circle id="Elipse_1540" data-name="Elipse 1540" cx="47.5" cy="47.5" r="47.5" transform="translate(748 603)" fill="#fff"/>
    <g id="ip" transform="translate(766.921 616.898)">
      <path id="Trazado_103142" data-name="Trazado 103142" d="M37.4,269.961a27.4,27.4,0,0,1,27.4,27.4H10A27.4,27.4,0,0,1,37.4,269.961Zm0,0" transform="translate(-8.822 -238.08)" fill="#bdd9ff" fill-rule="evenodd"/>
      <path id="Trazado_103143" data-name="Trazado 103143" d="M204.473,109.5a1.074,1.074,0,0,1-.328.787,1.129,1.129,0,0,1-1.931-.8v-8a1.129,1.129,0,0,1,.341-.8,1.077,1.077,0,0,1,.8-.356,1.054,1.054,0,0,1,.788.341,1.139,1.139,0,0,1,.328.816Zm0,0" transform="translate(-178.334 -88.48)"/>
      <path id="Trazado_103144" data-name="Trazado 103144" d="M239.188,107.119v2.272a1.124,1.124,0,0,1-1.924.795,1.118,1.118,0,0,1-.334-.823v-7.835a1.146,1.146,0,0,1,.341-.844,1.13,1.13,0,0,1,.829-.341h2.649a3.557,3.557,0,0,1,2.565.948,3.6,3.6,0,0,1,.056,4.9,3.368,3.368,0,0,1-2.482.927Zm0-4.754v2.774h1.436a1.3,1.3,0,0,0,.948-.4,1.314,1.314,0,0,0,.4-.962,1.41,1.41,0,0,0-.383-1,1.253,1.253,0,0,0-.955-.411Zm0,0" transform="translate(-208.949 -88.494)"/>
      <path id="Trazado_103145" data-name="Trazado 103145" d="M204.363,343.606a4.446,4.446,0,0,0,8.883,0c0-.067.007-.131.007-.2a4.448,4.448,0,0,0-2.912-4.174c-.539.6-1.054,1.182-1.536,1.731-.482-.546-.994-1.125-1.533-1.731a4.443,4.443,0,0,0-2.912,4.174C204.359,343.476,204.359,343.539,204.363,343.606Zm0,0" transform="translate(-180.225 -299.172)" fill="#cbe558" fill-rule="evenodd"/>
      <path id="Trazado_103146" data-name="Trazado 103146" d="M119.474,43.294c1.67,2.012,3.357,3.9,4.857,5.59.539.606,1.051,1.185,1.533,1.731.482-.549,1-1.128,1.536-1.731,1.5-1.687,3.19-3.578,4.86-5.59.411-.5.827-1,1.235-1.513,4.178-5.228,7.92-11.093,7.92-16.225a15.551,15.551,0,1,0-31.1,0c0,5.115,3.749,10.986,7.927,16.222Q118.852,42.546,119.474,43.294Zm6.39-7.1a10.442,10.442,0,1,1,10.444-10.44A10.438,10.438,0,0,1,125.864,36.194Zm0,0" transform="translate(-97.285 -8.822)" fill="#f46370" fill-rule="evenodd"/>
      <path id="Trazado_103147" data-name="Trazado 103147" d="M51.634,42.386a1.182,1.182,0,1,0-1.9,1.4,26.03,26.03,0,0,1,3.855,7.58,26.36,26.36,0,0,0-10.875-6.224c-.122-.381-.247-.759-.379-1.131a25.634,25.634,0,0,0-5.733-9.64l.035-.043a26.112,26.112,0,0,1,7.116,3.57,1.182,1.182,0,1,0,1.368-1.927,28.473,28.473,0,0,0-6.926-3.61c3.887-5.061,7.122-10.57,7.122-15.625a16.733,16.733,0,1,0-33.466,0c0,3.6,1.645,7.754,5.027,12.714.669.981,1.38,1.953,2.111,2.908a28.827,28.827,0,0,0-13.139,9.6A28.325,28.325,0,0,0,0,59.283a1.182,1.182,0,0,0,1.181,1.182H55.976a1.182,1.182,0,0,0,1.182-1.182A28.354,28.354,0,0,0,51.634,42.386ZM39.94,44.366a46.107,46.107,0,0,0-5.8-1.007,5.66,5.66,0,0,0-2.167-3.609c1-1.13,2.054-2.321,3.106-3.559A23.116,23.116,0,0,1,39.94,44.366ZM14.209,16.734a14.37,14.37,0,1,1,28.74,0c0,7.141-8.163,16.306-13.565,22.37l-.8.9-.776-.872C22.39,33.053,14.209,23.862,14.209,16.734ZM25.188,39.75a5.658,5.658,0,0,0-2.166,3.609,45.993,45.993,0,0,0-5.8,1.007,23.111,23.111,0,0,1,4.867-8.18C23.146,37.439,24.2,38.634,25.188,39.75ZM12.366,58.1h-9.9c.689-4.131,4.951-7.853,11.208-10.18A47.947,47.947,0,0,0,12.366,58.1ZM3.615,51.323a26.352,26.352,0,0,1,16.925-17l.03.037a25.613,25.613,0,0,0-5.74,9.646c-.132.373-.258.752-.381,1.134A26.418,26.418,0,0,0,3.615,51.323ZM27.4,58.1H14.729a44.907,44.907,0,0,1,1.617-11.054,42.411,42.411,0,0,1,6.8-1.325A5.616,5.616,0,0,0,27.4,49.74V58.1Zm1.515-10.618a3.264,3.264,0,0,1-2.148-5.96q.481.541.927,1.049a1.181,1.181,0,0,0,1.776,0c.3-.338.608-.689.928-1.05a3.264,3.264,0,0,1-1.476,5.96h-.007c-.048,0,0,0,0,0C28.74,47.5,28.914,47.483,28.912,47.484ZM29.761,58.1V49.74a5.615,5.615,0,0,0,4.192-3.825c.005-.016.009-.032.014-.048.015-.048.03-.1.043-.146a42.392,42.392,0,0,1,6.8,1.325A44.9,44.9,0,0,1,42.429,58.1Zm15.031,0a47.955,47.955,0,0,0-1.3-10.18C49.744,50.248,54.007,53.97,54.7,58.1Zm0,0" transform="translate(0)"/>
      <path id="Trazado_103148" data-name="Trazado 103148" d="M155.212,68.177a11.624,11.624,0,1,1,11.625-11.622A11.635,11.635,0,0,1,155.212,68.177Zm0-20.885a9.261,9.261,0,1,0,9.262,9.263A9.271,9.271,0,0,0,155.212,47.293Zm0,0" transform="translate(-126.633 -39.624)"/>
      <path id="Trazado_103149" data-name="Trazado 103149" d="M397.1,330.192a1.179,1.179,0,0,1-.924-.444l-.013-.017a1.182,1.182,0,1,1,1.846-1.477l.013.017a1.182,1.182,0,0,1-.922,1.92Zm0,0" transform="translate(-349.152 -289.098)"/>
    </g>
  </g>
</svg>
