<svg xmlns="http://www.w3.org/2000/svg" width="215.896" height="135.147" viewBox="0 0 215.896 135.147">
  <g id="Grupo_57479" data-name="Grupo 57479" transform="translate(-848 -685.854)">
    <g id="ordenador" transform="translate(848 759.662)">
      <path id="Trazado_102940" data-name="Trazado 102940" d="M417.62,450.853H407.138a.6.6,0,0,1-.6-.6v-3.5a3.2,3.2,0,0,1,3.2-3.2h5.275a3.2,3.2,0,0,1,3.2,3.2v3.5A.6.6,0,0,1,417.62,450.853Zm0,0" transform="translate(-357.835 -390.413)" fill="#e7e7e7"/>
      <path id="Trazado_102941" data-name="Trazado 102941" d="M461.493,446.753v3.5a.6.6,0,0,1-.6.6h-1.989v-4.1a3.2,3.2,0,0,0-3.2-3.2h2.588A3.2,3.2,0,0,1,461.493,446.753Zm0,0" transform="translate(-401.109 -390.413)" fill="#cecece"/>
      <g id="Grupo_57463" data-name="Grupo 57463" transform="translate(2.987 53.564)">
        <path id="Trazado_102942" data-name="Trazado 102942" d="M28.959,449.629H24.93v-1.414a1.1,1.1,0,0,1,1.1-1.105h1.819a1.1,1.1,0,0,1,1.1,1.105v1.414Zm0,0" transform="translate(-24.93 -447.109)" fill="#9ae7fd"/>
        <path id="Trazado_102943" data-name="Trazado 102943" d="M71.207,449.629H58.973v-1.414a1.1,1.1,0,0,1,1.1-1.105H70.1a1.1,1.1,0,0,1,1.1,1.105Zm0,0" transform="translate(-54.894 -447.109)" fill="#9ae7fd"/>
        <path id="Trazado_102944" data-name="Trazado 102944" d="M165.127,449.629H161.1v-1.414a1.1,1.1,0,0,1,1.1-1.105h1.82a1.1,1.1,0,0,1,1.1,1.105Zm0,0" transform="translate(-144.785 -447.109)" fill="#9ae7fd"/>
        <path id="Trazado_102945" data-name="Trazado 102945" d="M199.17,449.629h-4.03v-1.414a1.1,1.1,0,0,1,1.1-1.105h1.82a1.1,1.1,0,0,1,1.1,1.105Zm0,0" transform="translate(-174.749 -447.109)" fill="#9ae7fd"/>
        <path id="Trazado_102946" data-name="Trazado 102946" d="M267.256,449.629h-4.03v-1.414a1.1,1.1,0,0,1,1.1-1.105h1.82a1.1,1.1,0,0,1,1.1,1.105Zm0,0" transform="translate(-234.678 -447.109)" fill="#9ae7fd"/>
        <path id="Trazado_102947" data-name="Trazado 102947" d="M301.3,449.629h-4.03v-1.414a1.1,1.1,0,0,1,1.1-1.105h1.82a1.1,1.1,0,0,1,1.1,1.105Zm0,0" transform="translate(-264.643 -447.109)" fill="#9ae7fd"/>
        <path id="Trazado_102948" data-name="Trazado 102948" d="M335.342,449.629h-4.03v-1.414a1.1,1.1,0,0,1,1.1-1.105h1.82a1.1,1.1,0,0,1,1.1,1.105Zm0,0" transform="translate(-294.607 -447.109)" fill="#9ae7fd"/>
      </g>
      <path id="Trazado_102949" data-name="Trazado 102949" d="M51.812,472.5H8.1a.6.6,0,0,1-.6-.6V468.74a.6.6,0,0,1,.6-.6H51.812a.6.6,0,0,1,.6.6V471.9A.6.6,0,0,1,51.812,472.5Zm0,0" transform="translate(-6.601 -412.057)" fill="#bfbfbf"/>
      <path id="Trazado_102950" data-name="Trazado 102950" d="M362.371,472.5h-2.043v-4.356h2.043a.6.6,0,0,1,.6.6V471.9A.6.6,0,0,1,362.371,472.5Zm0,0" transform="translate(-317.16 -412.057)" fill="#acacac"/>
      <path id="Trazado_102951" data-name="Trazado 102951" d="M54.762,78.328h48.144v25.894H54.762Zm0,0" transform="translate(-48.201 -68.944)" fill="#9ae7fd"/>
      <path id="Trazado_102952" data-name="Trazado 102952" d="M416.247,9.978v35.4a2.474,2.474,0,0,1-2.475,2.474H410.75a2.474,2.474,0,0,0,2.474-2.474V9.978A2.474,2.474,0,0,0,410.75,7.5h3.022A2.474,2.474,0,0,1,416.247,9.978Zm0,0" transform="translate(-361.542 -6.605)" fill="#64dcfc"/>
      <path id="Trazado_102953" data-name="Trazado 102953" d="M102.51,294.539h-48.2v3.487a2.474,2.474,0,0,0,2.475,2.474h43.249a2.475,2.475,0,0,0,2.475-2.474v-3.487Zm0,0" transform="translate(-47.806 -259.253)" fill="#bfbfbf"/>
      <path id="Trazado_102954" data-name="Trazado 102954" d="M416.247,294.539v3.487a2.474,2.474,0,0,1-2.475,2.475H410.75a2.474,2.474,0,0,0,2.474-2.475v-3.487Zm0,0" transform="translate(-361.542 -259.253)" fill="#acacac"/>
      <path id="Trazado_102955" data-name="Trazado 102955" d="M102.961,15.941h-48.2V9.974A2.474,2.474,0,0,1,57.235,7.5h43.251a2.474,2.474,0,0,1,2.474,2.474Zm0,0" transform="translate(-48.201 -6.601)" fill="#bfbfbf"/>
      <path id="Trazado_102956" data-name="Trazado 102956" d="M416.3,9.977v5.968h-3.078V9.977A2.474,2.474,0,0,0,410.75,7.5h3.078A2.474,2.474,0,0,1,416.3,9.977Zm0,0" transform="translate(-361.542 -6.605)" fill="#acacac"/>
      <path id="Trazado_102957" data-name="Trazado 102957" d="M199.2,344.3h13.483v4.064H199.2Zm0,0" transform="translate(-175.335 -303.053)" fill="#838383"/>
      <path id="Trazado_102958" data-name="Trazado 102958" d="M292.832,344.8H295.1v3.944h-2.265Zm0,0" transform="translate(-257.75 -303.497)" fill="#5a5a5a"/>
      <path id="Trazado_102959" data-name="Trazado 102959" d="M181.389,382.213H159.168a.485.485,0,0,1-.485-.485v-1.571a1.93,1.93,0,0,1,1.929-1.93h19.332a1.93,1.93,0,0,1,1.929,1.93v1.571A.485.485,0,0,1,181.389,382.213Zm0,0" transform="translate(-139.673 -332.915)" fill="#bfbfbf"/>
      <path id="Trazado_102960" data-name="Trazado 102960" d="M321.943,380.156v1.572a.485.485,0,0,1-.485.485h-1.712v-2.058a1.93,1.93,0,0,0-1.929-1.929h2.2A1.929,1.929,0,0,1,321.943,380.156Zm0,0" transform="translate(-279.742 -332.915)" fill="#acacac"/>
      <path id="Trazado_102961" data-name="Trazado 102961" d="M84.092,32.216a1.407,1.407,0,1,1-1.408-1.408A1.407,1.407,0,0,1,84.092,32.216Zm0,0" transform="translate(-71.54 -27.118)" fill="#ff5757"/>
      <path id="Trazado_102962" data-name="Trazado 102962" d="M129.463,32.216a1.407,1.407,0,1,1-1.408-1.408A1.407,1.407,0,0,1,129.463,32.216Zm0,0" transform="translate(-111.476 -27.118)" fill="#ffcd6b"/>
      <path id="Trazado_102963" data-name="Trazado 102963" d="M174.834,32.216a1.407,1.407,0,1,1-1.408-1.408A1.407,1.407,0,0,1,174.834,32.216Zm0,0" transform="translate(-151.411 -27.118)" fill="#00d3b4"/>
      <path id="Trazado_102964" data-name="Trazado 102964" d="M87.3,32.22a1.407,1.407,0,0,1-2.378,1.017,1.406,1.406,0,0,0,.938-2.424h.033A1.406,1.406,0,0,1,87.3,32.22Zm0,0" transform="translate(-74.748 -27.121)" fill="#ff4343"/>
      <path id="Trazado_102965" data-name="Trazado 102965" d="M132.667,32.22a1.407,1.407,0,0,1-2.378,1.017,1.406,1.406,0,0,0,.939-2.424h.032A1.407,1.407,0,0,1,132.667,32.22Zm0,0" transform="translate(-114.68 -27.121)" fill="#ffc143"/>
      <path id="Trazado_102966" data-name="Trazado 102966" d="M178.042,32.22a1.407,1.407,0,0,1-2.378,1.017,1.406,1.406,0,0,0,.938-2.424h.033A1.407,1.407,0,0,1,178.042,32.22Zm0,0" transform="translate(-154.619 -27.121)" fill="#00b7a0"/>
      <path id="Trazado_102967" data-name="Trazado 102967" d="M111.6,186.759H99.677a.6.6,0,0,1-.6-.6v-9.077a.6.6,0,0,1,.6-.6H111.6a.6.6,0,0,1,.6.6v9.077A.6.6,0,0,1,111.6,186.759Zm0,0" transform="translate(-87.208 -155.341)" fill="#ffb509"/>
      <path id="Trazado_102968" data-name="Trazado 102968" d="M190.627,177.083v9.077a.6.6,0,0,1-.6.6h-1.852a.6.6,0,0,0,.6-.6v-9.077a.6.6,0,0,0-.6-.6h1.852A.6.6,0,0,1,190.627,177.083Zm0,0" transform="translate(-165.632 -155.341)" fill="#fa0"/>
      <path id="Trazado_102969" data-name="Trazado 102969" d="M94.566,110.492h5.907a.9.9,0,1,0,0-1.8H94.566a.9.9,0,1,0,0,1.8Zm0,0" transform="translate(-82.446 -95.674)"/>
      <path id="Trazado_102970" data-name="Trazado 102970" d="M170.754,110.492H181.14a.9.9,0,1,0,0-1.8H170.754a.9.9,0,0,0,0,1.8Zm0,0" transform="translate(-149.507 -95.674)"/>
      <path id="Trazado_102971" data-name="Trazado 102971" d="M94.566,139.106h2.516a.9.9,0,1,0,0-1.8H94.566a.9.9,0,1,0,0,1.8Zm0,0" transform="translate(-82.446 -120.859)"/>
      <path id="Trazado_102972" data-name="Trazado 102972" d="M233.1,138.207a.9.9,0,0,0-.9-.9h-1.533a.9.9,0,1,0,0,1.8H232.2A.9.9,0,0,0,233.1,138.207Zm0,0" transform="translate(-202.243 -120.859)"/>
      <path id="Trazado_102973" data-name="Trazado 102973" d="M141.254,137.309a.9.9,0,1,0,0,1.8h7.527a.9.9,0,1,0,0-1.8Zm0,0" transform="translate(-123.541 -120.859)"/>
      <path id="Trazado_102974" data-name="Trazado 102974" d="M265.773,138.207a.9.9,0,0,0,.9.9h2.871a.9.9,0,1,0,0-1.8h-2.871A.9.9,0,0,0,265.773,138.207Zm0,0" transform="translate(-233.933 -120.859)"/>
      <path id="Trazado_102975" data-name="Trazado 102975" d="M243.981,176.734h-2.567a.9.9,0,1,0,0,1.8h2.567a.9.9,0,1,0,0-1.8Zm0,0" transform="translate(-211.702 -155.561)"/>
      <path id="Trazado_102976" data-name="Trazado 102976" d="M295.953,177.633a.9.9,0,0,0,.9.9h4.143a.9.9,0,0,0,0-1.8h-4.143A.9.9,0,0,0,295.953,177.633Zm0,0" transform="translate(-260.498 -155.561)"/>
      <path id="Trazado_102977" data-name="Trazado 102977" d="M361.148,178.531h5.341a.9.9,0,0,0,0-1.8h-5.341a.9.9,0,0,0,0,1.8Zm0,0" transform="translate(-317.092 -155.561)"/>
      <path id="Trazado_102978" data-name="Trazado 102978" d="M240.516,212.766a.9.9,0,0,0,.9.9h6.641a.9.9,0,1,0,0-1.8h-6.641A.9.9,0,0,0,240.516,212.766Zm0,0" transform="translate(-211.702 -186.485)"/>
      <path id="Trazado_102979" data-name="Trazado 102979" d="M330.531,212.766a.9.9,0,0,0,.9.9h1.626a.9.9,0,0,0,0-1.8H331.43A.9.9,0,0,0,330.531,212.766Zm0,0" transform="translate(-290.933 -186.485)"/>
      <path id="Trazado_102980" data-name="Trazado 102980" d="M381.834,211.867h-3.252a.9.9,0,0,0,0,1.8h3.252a.9.9,0,0,0,0-1.8Zm0,0" transform="translate(-332.437 -186.485)"/>
      <path id="Trazado_102981" data-name="Trazado 102981" d="M243.981,247h-2.567a.9.9,0,1,0,0,1.8h2.567a.9.9,0,1,0,0-1.8Zm0,0" transform="translate(-211.702 -217.409)"/>
      <path id="Trazado_102982" data-name="Trazado 102982" d="M304.554,247h-7.7a.9.9,0,0,0,0,1.8h7.7a.9.9,0,1,0,0-1.8Zm0,0" transform="translate(-260.498 -217.409)"/>
      <path id="Trazado_102983" data-name="Trazado 102983" d="M393.779,247h-1.626a.9.9,0,0,0,0,1.8h1.626a.9.9,0,0,0,0-1.8Zm0,0" transform="translate(-344.381 -217.409)"/>
      <path id="Trazado_102984" data-name="Trazado 102984" d="M45.21,442.129H44.62v-.516a2.006,2.006,0,0,0-2-2H40.8a1.992,1.992,0,0,0-1.129.35,1.993,1.993,0,0,0-1.13-.35H36.718a1.991,1.991,0,0,0-1.129.35,1.993,1.993,0,0,0-1.129-.35H32.64a2.006,2.006,0,0,0-2,2v.516h-2.33v-.516a2.006,2.006,0,0,0-2-2h-1.82a1.992,1.992,0,0,0-1.129.35,1.993,1.993,0,0,0-1.129-.35H20.4a1.99,1.99,0,0,0-1.1.334,1.992,1.992,0,0,0-1.105-.334H8.17a1.993,1.993,0,0,0-1.13.35,1.991,1.991,0,0,0-1.129-.35H4.091a2.006,2.006,0,0,0-2,2v.516H1.5a1.5,1.5,0,0,0-1.5,1.5v3.158a1.5,1.5,0,0,0,1.5,1.5h7.13a.9.9,0,1,0,0-1.8H1.8v-2.559H44.911v2.559H12.7a.9.9,0,1,0,0,1.8H45.21a1.5,1.5,0,0,0,1.5-1.5v-3.158A1.5,1.5,0,0,0,45.21,442.129Zm-39.093,0H3.885v-.516a.207.207,0,0,1,.206-.207H5.911a.207.207,0,0,1,.207.207Zm12.283,0H7.964v-.516a.207.207,0,0,1,.206-.207H18.195a.207.207,0,0,1,.207.207v.516Zm4.03,0H20.2v-.516a.207.207,0,0,1,.206-.207h1.82a.207.207,0,0,1,.206.207Zm4.078,0H24.277v-.516a.207.207,0,0,1,.206-.207H26.3a.207.207,0,0,1,.206.207Zm8.157,0H32.433v-.516a.207.207,0,0,1,.206-.207h1.82a.207.207,0,0,1,.206.207Zm4.078,0H36.512v-.516a.207.207,0,0,1,.206-.207h1.82a.207.207,0,0,1,.206.207Zm4.078,0H40.59v-.516a.207.207,0,0,1,.206-.207h1.819a.207.207,0,0,1,.207.207Zm0,0" transform="translate(0 -386.944)"/>
      <path id="Trazado_102985" data-name="Trazado 102985" d="M408.414,436.051H403.14a4.106,4.106,0,0,0-4.1,4.1v3.5a1.5,1.5,0,0,0,1.5,1.5h10.482a1.5,1.5,0,0,0,1.5-1.5v-3.5A4.106,4.106,0,0,0,408.414,436.051Zm2.3,7.3h-9.883v-3.2a2.307,2.307,0,0,1,2.3-2.3h5.274a2.307,2.307,0,0,1,2.3,2.3Zm0,0" transform="translate(-351.234 -383.811)"/>
      <path id="Trazado_102986" data-name="Trazado 102986" d="M50.186,42.146H64.17v2.267H62.144a2.831,2.831,0,0,0-2.828,2.828v1.572A1.385,1.385,0,0,0,60.7,50.2H73.852a.9.9,0,0,0,0-1.8H61.113V47.241a1.032,1.032,0,0,1,1.031-1.031H81.475a1.032,1.032,0,0,1,1.031,1.031V48.4H78.045a.9.9,0,0,0,0,1.8H82.92A1.385,1.385,0,0,0,84.3,48.813V47.241a2.831,2.831,0,0,0-2.828-2.828H79.45V42.146H93.435a3.377,3.377,0,0,0,3.373-3.373l.055-35.4A3.376,3.376,0,0,0,93.49,0h-43.3a3.377,3.377,0,0,0-3.373,3.373v35.4A3.377,3.377,0,0,0,50.186,42.146Zm27.467,2.267H65.967V42.146H77.653ZM48.663,3.373A1.577,1.577,0,0,1,50.239,1.8h43.2a1.578,1.578,0,0,1,1.576,1.576V8.441H48.663Zm-.054,6.865h46.4v24.15H48.61Zm0,25.947h46.4v2.588a1.578,1.578,0,0,1-1.576,1.576H50.186a1.578,1.578,0,0,1-1.576-1.576Zm0,0" transform="translate(-41.204)"/>
      <path id="Trazado_102987" data-name="Trazado 102987" d="M76.083,23.309a2.306,2.306,0,1,0,2.306,2.306A2.309,2.309,0,0,0,76.083,23.309Zm0,2.815a.509.509,0,1,1,.509-.509A.509.509,0,0,1,76.083,26.123Zm0,0" transform="translate(-64.939 -20.516)"/>
      <path id="Trazado_102988" data-name="Trazado 102988" d="M121.454,23.309a2.306,2.306,0,1,0,2.306,2.306A2.309,2.309,0,0,0,121.454,23.309Zm0,2.815a.509.509,0,1,1,.509-.509A.509.509,0,0,1,121.454,26.123Zm0,0" transform="translate(-104.874 -20.516)"/>
      <path id="Trazado_102989" data-name="Trazado 102989" d="M166.825,23.309a2.306,2.306,0,1,0,2.306,2.306A2.309,2.309,0,0,0,166.825,23.309Zm0,2.815a.509.509,0,1,1,.509-.509A.509.509,0,0,1,166.825,26.123Zm0,0" transform="translate(-144.81 -20.516)"/>
      <path id="Trazado_102990" data-name="Trazado 102990" d="M93.076,181.056H105a1.5,1.5,0,0,0,1.5-1.5v-9.077a1.5,1.5,0,0,0-1.5-1.5H93.076a1.5,1.5,0,0,0-1.5,1.5v9.077A1.5,1.5,0,0,0,93.076,181.056Zm.3-10.275H104.7v8.478H93.375Zm0,0" transform="translate(-80.607 -148.74)"/>
    </g>
    <g id="ordenador-2" data-name="ordenador" transform="translate(925.307 759.662)">
      <path id="Trazado_102940-2" data-name="Trazado 102940" d="M417.62,450.853H407.138a.6.6,0,0,1-.6-.6v-3.5a3.2,3.2,0,0,1,3.2-3.2h5.275a3.2,3.2,0,0,1,3.2,3.2v3.5A.6.6,0,0,1,417.62,450.853Zm0,0" transform="translate(-357.835 -390.413)" fill="#e7e7e7"/>
      <path id="Trazado_102941-2" data-name="Trazado 102941" d="M461.493,446.753v3.5a.6.6,0,0,1-.6.6h-1.989v-4.1a3.2,3.2,0,0,0-3.2-3.2h2.588A3.2,3.2,0,0,1,461.493,446.753Zm0,0" transform="translate(-401.109 -390.413)" fill="#cecece"/>
      <g id="Grupo_57463-2" data-name="Grupo 57463" transform="translate(2.987 53.564)">
        <path id="Trazado_102942-2" data-name="Trazado 102942" d="M28.959,449.629H24.93v-1.414a1.1,1.1,0,0,1,1.1-1.105h1.819a1.1,1.1,0,0,1,1.1,1.105v1.414Zm0,0" transform="translate(-24.93 -447.109)" fill="#9ae7fd"/>
        <path id="Trazado_102943-2" data-name="Trazado 102943" d="M71.207,449.629H58.973v-1.414a1.1,1.1,0,0,1,1.1-1.105H70.1a1.1,1.1,0,0,1,1.1,1.105Zm0,0" transform="translate(-54.894 -447.109)" fill="#9ae7fd"/>
        <path id="Trazado_102944-2" data-name="Trazado 102944" d="M165.127,449.629H161.1v-1.414a1.1,1.1,0,0,1,1.1-1.105h1.82a1.1,1.1,0,0,1,1.1,1.105Zm0,0" transform="translate(-144.785 -447.109)" fill="#9ae7fd"/>
        <path id="Trazado_102945-2" data-name="Trazado 102945" d="M199.17,449.629h-4.03v-1.414a1.1,1.1,0,0,1,1.1-1.105h1.82a1.1,1.1,0,0,1,1.1,1.105Zm0,0" transform="translate(-174.749 -447.109)" fill="#9ae7fd"/>
        <path id="Trazado_102946-2" data-name="Trazado 102946" d="M267.256,449.629h-4.03v-1.414a1.1,1.1,0,0,1,1.1-1.105h1.82a1.1,1.1,0,0,1,1.1,1.105Zm0,0" transform="translate(-234.678 -447.109)" fill="#9ae7fd"/>
        <path id="Trazado_102947-2" data-name="Trazado 102947" d="M301.3,449.629h-4.03v-1.414a1.1,1.1,0,0,1,1.1-1.105h1.82a1.1,1.1,0,0,1,1.1,1.105Zm0,0" transform="translate(-264.643 -447.109)" fill="#9ae7fd"/>
        <path id="Trazado_102948-2" data-name="Trazado 102948" d="M335.342,449.629h-4.03v-1.414a1.1,1.1,0,0,1,1.1-1.105h1.82a1.1,1.1,0,0,1,1.1,1.105Zm0,0" transform="translate(-294.607 -447.109)" fill="#9ae7fd"/>
      </g>
      <path id="Trazado_102949-2" data-name="Trazado 102949" d="M51.812,472.5H8.1a.6.6,0,0,1-.6-.6V468.74a.6.6,0,0,1,.6-.6H51.812a.6.6,0,0,1,.6.6V471.9A.6.6,0,0,1,51.812,472.5Zm0,0" transform="translate(-6.601 -412.057)" fill="#bfbfbf"/>
      <path id="Trazado_102950-2" data-name="Trazado 102950" d="M362.371,472.5h-2.043v-4.356h2.043a.6.6,0,0,1,.6.6V471.9A.6.6,0,0,1,362.371,472.5Zm0,0" transform="translate(-317.16 -412.057)" fill="#acacac"/>
      <path id="Trazado_102951-2" data-name="Trazado 102951" d="M54.762,78.328h48.144v25.894H54.762Zm0,0" transform="translate(-48.201 -68.944)" fill="#9ae7fd"/>
      <path id="Trazado_102952-2" data-name="Trazado 102952" d="M416.247,9.978v35.4a2.474,2.474,0,0,1-2.475,2.474H410.75a2.474,2.474,0,0,0,2.474-2.474V9.978A2.474,2.474,0,0,0,410.75,7.5h3.022A2.474,2.474,0,0,1,416.247,9.978Zm0,0" transform="translate(-361.542 -6.605)" fill="#64dcfc"/>
      <path id="Trazado_102953-2" data-name="Trazado 102953" d="M102.51,294.539h-48.2v3.487a2.474,2.474,0,0,0,2.475,2.474h43.249a2.475,2.475,0,0,0,2.475-2.474v-3.487Zm0,0" transform="translate(-47.806 -259.253)" fill="#bfbfbf"/>
      <path id="Trazado_102954-2" data-name="Trazado 102954" d="M416.247,294.539v3.487a2.474,2.474,0,0,1-2.475,2.475H410.75a2.474,2.474,0,0,0,2.474-2.475v-3.487Zm0,0" transform="translate(-361.542 -259.253)" fill="#acacac"/>
      <path id="Trazado_102955-2" data-name="Trazado 102955" d="M102.961,15.941h-48.2V9.974A2.474,2.474,0,0,1,57.235,7.5h43.251a2.474,2.474,0,0,1,2.474,2.474Zm0,0" transform="translate(-48.201 -6.601)" fill="#bfbfbf"/>
      <path id="Trazado_102956-2" data-name="Trazado 102956" d="M416.3,9.977v5.968h-3.078V9.977A2.474,2.474,0,0,0,410.75,7.5h3.078A2.474,2.474,0,0,1,416.3,9.977Zm0,0" transform="translate(-361.542 -6.605)" fill="#acacac"/>
      <path id="Trazado_102957-2" data-name="Trazado 102957" d="M199.2,344.3h13.483v4.064H199.2Zm0,0" transform="translate(-175.335 -303.053)" fill="#838383"/>
      <path id="Trazado_102958-2" data-name="Trazado 102958" d="M292.832,344.8H295.1v3.944h-2.265Zm0,0" transform="translate(-257.75 -303.497)" fill="#5a5a5a"/>
      <path id="Trazado_102959-2" data-name="Trazado 102959" d="M181.389,382.213H159.168a.485.485,0,0,1-.485-.485v-1.571a1.93,1.93,0,0,1,1.929-1.93h19.332a1.93,1.93,0,0,1,1.929,1.93v1.571A.485.485,0,0,1,181.389,382.213Zm0,0" transform="translate(-139.673 -332.915)" fill="#bfbfbf"/>
      <path id="Trazado_102960-2" data-name="Trazado 102960" d="M321.943,380.156v1.572a.485.485,0,0,1-.485.485h-1.712v-2.058a1.93,1.93,0,0,0-1.929-1.929h2.2A1.929,1.929,0,0,1,321.943,380.156Zm0,0" transform="translate(-279.742 -332.915)" fill="#acacac"/>
      <path id="Trazado_102961-2" data-name="Trazado 102961" d="M84.092,32.216a1.407,1.407,0,1,1-1.408-1.408A1.407,1.407,0,0,1,84.092,32.216Zm0,0" transform="translate(-71.54 -27.118)" fill="#ff5757"/>
      <path id="Trazado_102962-2" data-name="Trazado 102962" d="M129.463,32.216a1.407,1.407,0,1,1-1.408-1.408A1.407,1.407,0,0,1,129.463,32.216Zm0,0" transform="translate(-111.476 -27.118)" fill="#ffcd6b"/>
      <path id="Trazado_102963-2" data-name="Trazado 102963" d="M174.834,32.216a1.407,1.407,0,1,1-1.408-1.408A1.407,1.407,0,0,1,174.834,32.216Zm0,0" transform="translate(-151.411 -27.118)" fill="#00d3b4"/>
      <path id="Trazado_102964-2" data-name="Trazado 102964" d="M87.3,32.22a1.407,1.407,0,0,1-2.378,1.017,1.406,1.406,0,0,0,.938-2.424h.033A1.406,1.406,0,0,1,87.3,32.22Zm0,0" transform="translate(-74.748 -27.121)" fill="#ff4343"/>
      <path id="Trazado_102965-2" data-name="Trazado 102965" d="M132.667,32.22a1.407,1.407,0,0,1-2.378,1.017,1.406,1.406,0,0,0,.939-2.424h.032A1.407,1.407,0,0,1,132.667,32.22Zm0,0" transform="translate(-114.68 -27.121)" fill="#ffc143"/>
      <path id="Trazado_102966-2" data-name="Trazado 102966" d="M178.042,32.22a1.407,1.407,0,0,1-2.378,1.017,1.406,1.406,0,0,0,.938-2.424h.033A1.407,1.407,0,0,1,178.042,32.22Zm0,0" transform="translate(-154.619 -27.121)" fill="#00b7a0"/>
      <path id="Trazado_102967-2" data-name="Trazado 102967" d="M111.6,186.759H99.677a.6.6,0,0,1-.6-.6v-9.077a.6.6,0,0,1,.6-.6H111.6a.6.6,0,0,1,.6.6v9.077A.6.6,0,0,1,111.6,186.759Zm0,0" transform="translate(-87.208 -155.341)" fill="#ffb509"/>
      <path id="Trazado_102968-2" data-name="Trazado 102968" d="M190.627,177.083v9.077a.6.6,0,0,1-.6.6h-1.852a.6.6,0,0,0,.6-.6v-9.077a.6.6,0,0,0-.6-.6h1.852A.6.6,0,0,1,190.627,177.083Zm0,0" transform="translate(-165.632 -155.341)" fill="#fa0"/>
      <path id="Trazado_102969-2" data-name="Trazado 102969" d="M94.566,110.492h5.907a.9.9,0,1,0,0-1.8H94.566a.9.9,0,1,0,0,1.8Zm0,0" transform="translate(-82.446 -95.674)"/>
      <path id="Trazado_102970-2" data-name="Trazado 102970" d="M170.754,110.492H181.14a.9.9,0,1,0,0-1.8H170.754a.9.9,0,0,0,0,1.8Zm0,0" transform="translate(-149.507 -95.674)"/>
      <path id="Trazado_102971-2" data-name="Trazado 102971" d="M94.566,139.106h2.516a.9.9,0,1,0,0-1.8H94.566a.9.9,0,1,0,0,1.8Zm0,0" transform="translate(-82.446 -120.859)"/>
      <path id="Trazado_102972-2" data-name="Trazado 102972" d="M233.1,138.207a.9.9,0,0,0-.9-.9h-1.533a.9.9,0,1,0,0,1.8H232.2A.9.9,0,0,0,233.1,138.207Zm0,0" transform="translate(-202.243 -120.859)"/>
      <path id="Trazado_102973-2" data-name="Trazado 102973" d="M141.254,137.309a.9.9,0,1,0,0,1.8h7.527a.9.9,0,1,0,0-1.8Zm0,0" transform="translate(-123.541 -120.859)"/>
      <path id="Trazado_102974-2" data-name="Trazado 102974" d="M265.773,138.207a.9.9,0,0,0,.9.9h2.871a.9.9,0,1,0,0-1.8h-2.871A.9.9,0,0,0,265.773,138.207Zm0,0" transform="translate(-233.933 -120.859)"/>
      <path id="Trazado_102975-2" data-name="Trazado 102975" d="M243.981,176.734h-2.567a.9.9,0,1,0,0,1.8h2.567a.9.9,0,1,0,0-1.8Zm0,0" transform="translate(-211.702 -155.561)"/>
      <path id="Trazado_102976-2" data-name="Trazado 102976" d="M295.953,177.633a.9.9,0,0,0,.9.9h4.143a.9.9,0,0,0,0-1.8h-4.143A.9.9,0,0,0,295.953,177.633Zm0,0" transform="translate(-260.498 -155.561)"/>
      <path id="Trazado_102977-2" data-name="Trazado 102977" d="M361.148,178.531h5.341a.9.9,0,0,0,0-1.8h-5.341a.9.9,0,0,0,0,1.8Zm0,0" transform="translate(-317.092 -155.561)"/>
      <path id="Trazado_102978-2" data-name="Trazado 102978" d="M240.516,212.766a.9.9,0,0,0,.9.9h6.641a.9.9,0,1,0,0-1.8h-6.641A.9.9,0,0,0,240.516,212.766Zm0,0" transform="translate(-211.702 -186.485)"/>
      <path id="Trazado_102979-2" data-name="Trazado 102979" d="M330.531,212.766a.9.9,0,0,0,.9.9h1.626a.9.9,0,0,0,0-1.8H331.43A.9.9,0,0,0,330.531,212.766Zm0,0" transform="translate(-290.933 -186.485)"/>
      <path id="Trazado_102980-2" data-name="Trazado 102980" d="M381.834,211.867h-3.252a.9.9,0,0,0,0,1.8h3.252a.9.9,0,0,0,0-1.8Zm0,0" transform="translate(-332.437 -186.485)"/>
      <path id="Trazado_102981-2" data-name="Trazado 102981" d="M243.981,247h-2.567a.9.9,0,1,0,0,1.8h2.567a.9.9,0,1,0,0-1.8Zm0,0" transform="translate(-211.702 -217.409)"/>
      <path id="Trazado_102982-2" data-name="Trazado 102982" d="M304.554,247h-7.7a.9.9,0,0,0,0,1.8h7.7a.9.9,0,1,0,0-1.8Zm0,0" transform="translate(-260.498 -217.409)"/>
      <path id="Trazado_102983-2" data-name="Trazado 102983" d="M393.779,247h-1.626a.9.9,0,0,0,0,1.8h1.626a.9.9,0,0,0,0-1.8Zm0,0" transform="translate(-344.381 -217.409)"/>
      <path id="Trazado_102984-2" data-name="Trazado 102984" d="M45.21,442.129H44.62v-.516a2.006,2.006,0,0,0-2-2H40.8a1.992,1.992,0,0,0-1.129.35,1.993,1.993,0,0,0-1.13-.35H36.718a1.991,1.991,0,0,0-1.129.35,1.993,1.993,0,0,0-1.129-.35H32.64a2.006,2.006,0,0,0-2,2v.516h-2.33v-.516a2.006,2.006,0,0,0-2-2h-1.82a1.992,1.992,0,0,0-1.129.35,1.993,1.993,0,0,0-1.129-.35H20.4a1.99,1.99,0,0,0-1.1.334,1.992,1.992,0,0,0-1.105-.334H8.17a1.993,1.993,0,0,0-1.13.35,1.991,1.991,0,0,0-1.129-.35H4.091a2.006,2.006,0,0,0-2,2v.516H1.5a1.5,1.5,0,0,0-1.5,1.5v3.158a1.5,1.5,0,0,0,1.5,1.5h7.13a.9.9,0,1,0,0-1.8H1.8v-2.559H44.911v2.559H12.7a.9.9,0,1,0,0,1.8H45.21a1.5,1.5,0,0,0,1.5-1.5v-3.158A1.5,1.5,0,0,0,45.21,442.129Zm-39.093,0H3.885v-.516a.207.207,0,0,1,.206-.207H5.911a.207.207,0,0,1,.207.207Zm12.283,0H7.964v-.516a.207.207,0,0,1,.206-.207H18.195a.207.207,0,0,1,.207.207v.516Zm4.03,0H20.2v-.516a.207.207,0,0,1,.206-.207h1.82a.207.207,0,0,1,.206.207Zm4.078,0H24.277v-.516a.207.207,0,0,1,.206-.207H26.3a.207.207,0,0,1,.206.207Zm8.157,0H32.433v-.516a.207.207,0,0,1,.206-.207h1.82a.207.207,0,0,1,.206.207Zm4.078,0H36.512v-.516a.207.207,0,0,1,.206-.207h1.82a.207.207,0,0,1,.206.207Zm4.078,0H40.59v-.516a.207.207,0,0,1,.206-.207h1.819a.207.207,0,0,1,.207.207Zm0,0" transform="translate(0 -386.944)"/>
      <path id="Trazado_102985-2" data-name="Trazado 102985" d="M408.414,436.051H403.14a4.106,4.106,0,0,0-4.1,4.1v3.5a1.5,1.5,0,0,0,1.5,1.5h10.482a1.5,1.5,0,0,0,1.5-1.5v-3.5A4.106,4.106,0,0,0,408.414,436.051Zm2.3,7.3h-9.883v-3.2a2.307,2.307,0,0,1,2.3-2.3h5.274a2.307,2.307,0,0,1,2.3,2.3Zm0,0" transform="translate(-351.234 -383.811)"/>
      <path id="Trazado_102986-2" data-name="Trazado 102986" d="M50.186,42.146H64.17v2.267H62.144a2.831,2.831,0,0,0-2.828,2.828v1.572A1.385,1.385,0,0,0,60.7,50.2H73.852a.9.9,0,0,0,0-1.8H61.113V47.241a1.032,1.032,0,0,1,1.031-1.031H81.475a1.032,1.032,0,0,1,1.031,1.031V48.4H78.045a.9.9,0,0,0,0,1.8H82.92A1.385,1.385,0,0,0,84.3,48.813V47.241a2.831,2.831,0,0,0-2.828-2.828H79.45V42.146H93.435a3.377,3.377,0,0,0,3.373-3.373l.055-35.4A3.376,3.376,0,0,0,93.49,0h-43.3a3.377,3.377,0,0,0-3.373,3.373v35.4A3.377,3.377,0,0,0,50.186,42.146Zm27.467,2.267H65.967V42.146H77.653ZM48.663,3.373A1.577,1.577,0,0,1,50.239,1.8h43.2a1.578,1.578,0,0,1,1.576,1.576V8.441H48.663Zm-.054,6.865h46.4v24.15H48.61Zm0,25.947h46.4v2.588a1.578,1.578,0,0,1-1.576,1.576H50.186a1.578,1.578,0,0,1-1.576-1.576Zm0,0" transform="translate(-41.204)"/>
      <path id="Trazado_102987-2" data-name="Trazado 102987" d="M76.083,23.309a2.306,2.306,0,1,0,2.306,2.306A2.309,2.309,0,0,0,76.083,23.309Zm0,2.815a.509.509,0,1,1,.509-.509A.509.509,0,0,1,76.083,26.123Zm0,0" transform="translate(-64.939 -20.516)"/>
      <path id="Trazado_102988-2" data-name="Trazado 102988" d="M121.454,23.309a2.306,2.306,0,1,0,2.306,2.306A2.309,2.309,0,0,0,121.454,23.309Zm0,2.815a.509.509,0,1,1,.509-.509A.509.509,0,0,1,121.454,26.123Zm0,0" transform="translate(-104.874 -20.516)"/>
      <path id="Trazado_102989-2" data-name="Trazado 102989" d="M166.825,23.309a2.306,2.306,0,1,0,2.306,2.306A2.309,2.309,0,0,0,166.825,23.309Zm0,2.815a.509.509,0,1,1,.509-.509A.509.509,0,0,1,166.825,26.123Zm0,0" transform="translate(-144.81 -20.516)"/>
      <path id="Trazado_102990-2" data-name="Trazado 102990" d="M93.076,181.056H105a1.5,1.5,0,0,0,1.5-1.5v-9.077a1.5,1.5,0,0,0-1.5-1.5H93.076a1.5,1.5,0,0,0-1.5,1.5v9.077A1.5,1.5,0,0,0,93.076,181.056Zm.3-10.275H104.7v8.478H93.375Zm0,0" transform="translate(-80.607 -148.74)"/>
    </g>
    <g id="ordenador-3" data-name="ordenador" transform="translate(1002.614 759.662)">
      <path id="Trazado_102940-3" data-name="Trazado 102940" d="M417.62,450.853H407.138a.6.6,0,0,1-.6-.6v-3.5a3.2,3.2,0,0,1,3.2-3.2h5.275a3.2,3.2,0,0,1,3.2,3.2v3.5A.6.6,0,0,1,417.62,450.853Zm0,0" transform="translate(-357.835 -390.413)" fill="#e7e7e7"/>
      <path id="Trazado_102941-3" data-name="Trazado 102941" d="M461.493,446.753v3.5a.6.6,0,0,1-.6.6h-1.989v-4.1a3.2,3.2,0,0,0-3.2-3.2h2.588A3.2,3.2,0,0,1,461.493,446.753Zm0,0" transform="translate(-401.109 -390.413)" fill="#cecece"/>
      <g id="Grupo_57463-3" data-name="Grupo 57463" transform="translate(2.987 53.564)">
        <path id="Trazado_102942-3" data-name="Trazado 102942" d="M28.959,449.629H24.93v-1.414a1.1,1.1,0,0,1,1.1-1.105h1.819a1.1,1.1,0,0,1,1.1,1.105v1.414Zm0,0" transform="translate(-24.93 -447.109)" fill="#9ae7fd"/>
        <path id="Trazado_102943-3" data-name="Trazado 102943" d="M71.207,449.629H58.973v-1.414a1.1,1.1,0,0,1,1.1-1.105H70.1a1.1,1.1,0,0,1,1.1,1.105Zm0,0" transform="translate(-54.894 -447.109)" fill="#9ae7fd"/>
        <path id="Trazado_102944-3" data-name="Trazado 102944" d="M165.127,449.629H161.1v-1.414a1.1,1.1,0,0,1,1.1-1.105h1.82a1.1,1.1,0,0,1,1.1,1.105Zm0,0" transform="translate(-144.785 -447.109)" fill="#9ae7fd"/>
        <path id="Trazado_102945-3" data-name="Trazado 102945" d="M199.17,449.629h-4.03v-1.414a1.1,1.1,0,0,1,1.1-1.105h1.82a1.1,1.1,0,0,1,1.1,1.105Zm0,0" transform="translate(-174.749 -447.109)" fill="#9ae7fd"/>
        <path id="Trazado_102946-3" data-name="Trazado 102946" d="M267.256,449.629h-4.03v-1.414a1.1,1.1,0,0,1,1.1-1.105h1.82a1.1,1.1,0,0,1,1.1,1.105Zm0,0" transform="translate(-234.678 -447.109)" fill="#9ae7fd"/>
        <path id="Trazado_102947-3" data-name="Trazado 102947" d="M301.3,449.629h-4.03v-1.414a1.1,1.1,0,0,1,1.1-1.105h1.82a1.1,1.1,0,0,1,1.1,1.105Zm0,0" transform="translate(-264.643 -447.109)" fill="#9ae7fd"/>
        <path id="Trazado_102948-3" data-name="Trazado 102948" d="M335.342,449.629h-4.03v-1.414a1.1,1.1,0,0,1,1.1-1.105h1.82a1.1,1.1,0,0,1,1.1,1.105Zm0,0" transform="translate(-294.607 -447.109)" fill="#9ae7fd"/>
      </g>
      <path id="Trazado_102949-3" data-name="Trazado 102949" d="M51.812,472.5H8.1a.6.6,0,0,1-.6-.6V468.74a.6.6,0,0,1,.6-.6H51.812a.6.6,0,0,1,.6.6V471.9A.6.6,0,0,1,51.812,472.5Zm0,0" transform="translate(-6.601 -412.057)" fill="#bfbfbf"/>
      <path id="Trazado_102950-3" data-name="Trazado 102950" d="M362.371,472.5h-2.043v-4.356h2.043a.6.6,0,0,1,.6.6V471.9A.6.6,0,0,1,362.371,472.5Zm0,0" transform="translate(-317.16 -412.057)" fill="#acacac"/>
      <path id="Trazado_102951-3" data-name="Trazado 102951" d="M54.762,78.328h48.144v25.894H54.762Zm0,0" transform="translate(-48.201 -68.944)" fill="#9ae7fd"/>
      <path id="Trazado_102952-3" data-name="Trazado 102952" d="M416.247,9.978v35.4a2.474,2.474,0,0,1-2.475,2.474H410.75a2.474,2.474,0,0,0,2.474-2.474V9.978A2.474,2.474,0,0,0,410.75,7.5h3.022A2.474,2.474,0,0,1,416.247,9.978Zm0,0" transform="translate(-361.542 -6.605)" fill="#64dcfc"/>
      <path id="Trazado_102953-3" data-name="Trazado 102953" d="M102.51,294.539h-48.2v3.487a2.474,2.474,0,0,0,2.475,2.474h43.249a2.475,2.475,0,0,0,2.475-2.474v-3.487Zm0,0" transform="translate(-47.806 -259.253)" fill="#bfbfbf"/>
      <path id="Trazado_102954-3" data-name="Trazado 102954" d="M416.247,294.539v3.487a2.474,2.474,0,0,1-2.475,2.475H410.75a2.474,2.474,0,0,0,2.474-2.475v-3.487Zm0,0" transform="translate(-361.542 -259.253)" fill="#acacac"/>
      <path id="Trazado_102955-3" data-name="Trazado 102955" d="M102.961,15.941h-48.2V9.974A2.474,2.474,0,0,1,57.235,7.5h43.251a2.474,2.474,0,0,1,2.474,2.474Zm0,0" transform="translate(-48.201 -6.601)" fill="#bfbfbf"/>
      <path id="Trazado_102956-3" data-name="Trazado 102956" d="M416.3,9.977v5.968h-3.078V9.977A2.474,2.474,0,0,0,410.75,7.5h3.078A2.474,2.474,0,0,1,416.3,9.977Zm0,0" transform="translate(-361.542 -6.605)" fill="#acacac"/>
      <path id="Trazado_102957-3" data-name="Trazado 102957" d="M199.2,344.3h13.483v4.064H199.2Zm0,0" transform="translate(-175.335 -303.053)" fill="#838383"/>
      <path id="Trazado_102958-3" data-name="Trazado 102958" d="M292.832,344.8H295.1v3.944h-2.265Zm0,0" transform="translate(-257.75 -303.497)" fill="#5a5a5a"/>
      <path id="Trazado_102959-3" data-name="Trazado 102959" d="M181.389,382.213H159.168a.485.485,0,0,1-.485-.485v-1.571a1.93,1.93,0,0,1,1.929-1.93h19.332a1.93,1.93,0,0,1,1.929,1.93v1.571A.485.485,0,0,1,181.389,382.213Zm0,0" transform="translate(-139.673 -332.915)" fill="#bfbfbf"/>
      <path id="Trazado_102960-3" data-name="Trazado 102960" d="M321.943,380.156v1.572a.485.485,0,0,1-.485.485h-1.712v-2.058a1.93,1.93,0,0,0-1.929-1.929h2.2A1.929,1.929,0,0,1,321.943,380.156Zm0,0" transform="translate(-279.742 -332.915)" fill="#acacac"/>
      <path id="Trazado_102961-3" data-name="Trazado 102961" d="M84.092,32.216a1.407,1.407,0,1,1-1.408-1.408A1.407,1.407,0,0,1,84.092,32.216Zm0,0" transform="translate(-71.54 -27.118)" fill="#ff5757"/>
      <path id="Trazado_102962-3" data-name="Trazado 102962" d="M129.463,32.216a1.407,1.407,0,1,1-1.408-1.408A1.407,1.407,0,0,1,129.463,32.216Zm0,0" transform="translate(-111.476 -27.118)" fill="#ffcd6b"/>
      <path id="Trazado_102963-3" data-name="Trazado 102963" d="M174.834,32.216a1.407,1.407,0,1,1-1.408-1.408A1.407,1.407,0,0,1,174.834,32.216Zm0,0" transform="translate(-151.411 -27.118)" fill="#00d3b4"/>
      <path id="Trazado_102964-3" data-name="Trazado 102964" d="M87.3,32.22a1.407,1.407,0,0,1-2.378,1.017,1.406,1.406,0,0,0,.938-2.424h.033A1.406,1.406,0,0,1,87.3,32.22Zm0,0" transform="translate(-74.748 -27.121)" fill="#ff4343"/>
      <path id="Trazado_102965-3" data-name="Trazado 102965" d="M132.667,32.22a1.407,1.407,0,0,1-2.378,1.017,1.406,1.406,0,0,0,.939-2.424h.032A1.407,1.407,0,0,1,132.667,32.22Zm0,0" transform="translate(-114.68 -27.121)" fill="#ffc143"/>
      <path id="Trazado_102966-3" data-name="Trazado 102966" d="M178.042,32.22a1.407,1.407,0,0,1-2.378,1.017,1.406,1.406,0,0,0,.938-2.424h.033A1.407,1.407,0,0,1,178.042,32.22Zm0,0" transform="translate(-154.619 -27.121)" fill="#00b7a0"/>
      <path id="Trazado_102967-3" data-name="Trazado 102967" d="M111.6,186.759H99.677a.6.6,0,0,1-.6-.6v-9.077a.6.6,0,0,1,.6-.6H111.6a.6.6,0,0,1,.6.6v9.077A.6.6,0,0,1,111.6,186.759Zm0,0" transform="translate(-87.208 -155.341)" fill="#ffb509"/>
      <path id="Trazado_102968-3" data-name="Trazado 102968" d="M190.627,177.083v9.077a.6.6,0,0,1-.6.6h-1.852a.6.6,0,0,0,.6-.6v-9.077a.6.6,0,0,0-.6-.6h1.852A.6.6,0,0,1,190.627,177.083Zm0,0" transform="translate(-165.632 -155.341)" fill="#fa0"/>
      <path id="Trazado_102969-3" data-name="Trazado 102969" d="M94.566,110.492h5.907a.9.9,0,1,0,0-1.8H94.566a.9.9,0,1,0,0,1.8Zm0,0" transform="translate(-82.446 -95.674)"/>
      <path id="Trazado_102970-3" data-name="Trazado 102970" d="M170.754,110.492H181.14a.9.9,0,1,0,0-1.8H170.754a.9.9,0,0,0,0,1.8Zm0,0" transform="translate(-149.507 -95.674)"/>
      <path id="Trazado_102971-3" data-name="Trazado 102971" d="M94.566,139.106h2.516a.9.9,0,1,0,0-1.8H94.566a.9.9,0,1,0,0,1.8Zm0,0" transform="translate(-82.446 -120.859)"/>
      <path id="Trazado_102972-3" data-name="Trazado 102972" d="M233.1,138.207a.9.9,0,0,0-.9-.9h-1.533a.9.9,0,1,0,0,1.8H232.2A.9.9,0,0,0,233.1,138.207Zm0,0" transform="translate(-202.243 -120.859)"/>
      <path id="Trazado_102973-3" data-name="Trazado 102973" d="M141.254,137.309a.9.9,0,1,0,0,1.8h7.527a.9.9,0,1,0,0-1.8Zm0,0" transform="translate(-123.541 -120.859)"/>
      <path id="Trazado_102974-3" data-name="Trazado 102974" d="M265.773,138.207a.9.9,0,0,0,.9.9h2.871a.9.9,0,1,0,0-1.8h-2.871A.9.9,0,0,0,265.773,138.207Zm0,0" transform="translate(-233.933 -120.859)"/>
      <path id="Trazado_102975-3" data-name="Trazado 102975" d="M243.981,176.734h-2.567a.9.9,0,1,0,0,1.8h2.567a.9.9,0,1,0,0-1.8Zm0,0" transform="translate(-211.702 -155.561)"/>
      <path id="Trazado_102976-3" data-name="Trazado 102976" d="M295.953,177.633a.9.9,0,0,0,.9.9h4.143a.9.9,0,0,0,0-1.8h-4.143A.9.9,0,0,0,295.953,177.633Zm0,0" transform="translate(-260.498 -155.561)"/>
      <path id="Trazado_102977-3" data-name="Trazado 102977" d="M361.148,178.531h5.341a.9.9,0,0,0,0-1.8h-5.341a.9.9,0,0,0,0,1.8Zm0,0" transform="translate(-317.092 -155.561)"/>
      <path id="Trazado_102978-3" data-name="Trazado 102978" d="M240.516,212.766a.9.9,0,0,0,.9.9h6.641a.9.9,0,1,0,0-1.8h-6.641A.9.9,0,0,0,240.516,212.766Zm0,0" transform="translate(-211.702 -186.485)"/>
      <path id="Trazado_102979-3" data-name="Trazado 102979" d="M330.531,212.766a.9.9,0,0,0,.9.9h1.626a.9.9,0,0,0,0-1.8H331.43A.9.9,0,0,0,330.531,212.766Zm0,0" transform="translate(-290.933 -186.485)"/>
      <path id="Trazado_102980-3" data-name="Trazado 102980" d="M381.834,211.867h-3.252a.9.9,0,0,0,0,1.8h3.252a.9.9,0,0,0,0-1.8Zm0,0" transform="translate(-332.437 -186.485)"/>
      <path id="Trazado_102981-3" data-name="Trazado 102981" d="M243.981,247h-2.567a.9.9,0,1,0,0,1.8h2.567a.9.9,0,1,0,0-1.8Zm0,0" transform="translate(-211.702 -217.409)"/>
      <path id="Trazado_102982-3" data-name="Trazado 102982" d="M304.554,247h-7.7a.9.9,0,0,0,0,1.8h7.7a.9.9,0,1,0,0-1.8Zm0,0" transform="translate(-260.498 -217.409)"/>
      <path id="Trazado_102983-3" data-name="Trazado 102983" d="M393.779,247h-1.626a.9.9,0,0,0,0,1.8h1.626a.9.9,0,0,0,0-1.8Zm0,0" transform="translate(-344.381 -217.409)"/>
      <path id="Trazado_102984-3" data-name="Trazado 102984" d="M45.21,442.129H44.62v-.516a2.006,2.006,0,0,0-2-2H40.8a1.992,1.992,0,0,0-1.129.35,1.993,1.993,0,0,0-1.13-.35H36.718a1.991,1.991,0,0,0-1.129.35,1.993,1.993,0,0,0-1.129-.35H32.64a2.006,2.006,0,0,0-2,2v.516h-2.33v-.516a2.006,2.006,0,0,0-2-2h-1.82a1.992,1.992,0,0,0-1.129.35,1.993,1.993,0,0,0-1.129-.35H20.4a1.99,1.99,0,0,0-1.1.334,1.992,1.992,0,0,0-1.105-.334H8.17a1.993,1.993,0,0,0-1.13.35,1.991,1.991,0,0,0-1.129-.35H4.091a2.006,2.006,0,0,0-2,2v.516H1.5a1.5,1.5,0,0,0-1.5,1.5v3.158a1.5,1.5,0,0,0,1.5,1.5h7.13a.9.9,0,1,0,0-1.8H1.8v-2.559H44.911v2.559H12.7a.9.9,0,1,0,0,1.8H45.21a1.5,1.5,0,0,0,1.5-1.5v-3.158A1.5,1.5,0,0,0,45.21,442.129Zm-39.093,0H3.885v-.516a.207.207,0,0,1,.206-.207H5.911a.207.207,0,0,1,.207.207Zm12.283,0H7.964v-.516a.207.207,0,0,1,.206-.207H18.195a.207.207,0,0,1,.207.207v.516Zm4.03,0H20.2v-.516a.207.207,0,0,1,.206-.207h1.82a.207.207,0,0,1,.206.207Zm4.078,0H24.277v-.516a.207.207,0,0,1,.206-.207H26.3a.207.207,0,0,1,.206.207Zm8.157,0H32.433v-.516a.207.207,0,0,1,.206-.207h1.82a.207.207,0,0,1,.206.207Zm4.078,0H36.512v-.516a.207.207,0,0,1,.206-.207h1.82a.207.207,0,0,1,.206.207Zm4.078,0H40.59v-.516a.207.207,0,0,1,.206-.207h1.819a.207.207,0,0,1,.207.207Zm0,0" transform="translate(0 -386.944)"/>
      <path id="Trazado_102985-3" data-name="Trazado 102985" d="M408.414,436.051H403.14a4.106,4.106,0,0,0-4.1,4.1v3.5a1.5,1.5,0,0,0,1.5,1.5h10.482a1.5,1.5,0,0,0,1.5-1.5v-3.5A4.106,4.106,0,0,0,408.414,436.051Zm2.3,7.3h-9.883v-3.2a2.307,2.307,0,0,1,2.3-2.3h5.274a2.307,2.307,0,0,1,2.3,2.3Zm0,0" transform="translate(-351.234 -383.811)"/>
      <path id="Trazado_102986-3" data-name="Trazado 102986" d="M50.186,42.146H64.17v2.267H62.144a2.831,2.831,0,0,0-2.828,2.828v1.572A1.385,1.385,0,0,0,60.7,50.2H73.852a.9.9,0,0,0,0-1.8H61.113V47.241a1.032,1.032,0,0,1,1.031-1.031H81.475a1.032,1.032,0,0,1,1.031,1.031V48.4H78.045a.9.9,0,0,0,0,1.8H82.92A1.385,1.385,0,0,0,84.3,48.813V47.241a2.831,2.831,0,0,0-2.828-2.828H79.45V42.146H93.435a3.377,3.377,0,0,0,3.373-3.373l.055-35.4A3.376,3.376,0,0,0,93.49,0h-43.3a3.377,3.377,0,0,0-3.373,3.373v35.4A3.377,3.377,0,0,0,50.186,42.146Zm27.467,2.267H65.967V42.146H77.653ZM48.663,3.373A1.577,1.577,0,0,1,50.239,1.8h43.2a1.578,1.578,0,0,1,1.576,1.576V8.441H48.663Zm-.054,6.865h46.4v24.15H48.61Zm0,25.947h46.4v2.588a1.578,1.578,0,0,1-1.576,1.576H50.186a1.578,1.578,0,0,1-1.576-1.576Zm0,0" transform="translate(-41.204)"/>
      <path id="Trazado_102987-3" data-name="Trazado 102987" d="M76.083,23.309a2.306,2.306,0,1,0,2.306,2.306A2.309,2.309,0,0,0,76.083,23.309Zm0,2.815a.509.509,0,1,1,.509-.509A.509.509,0,0,1,76.083,26.123Zm0,0" transform="translate(-64.939 -20.516)"/>
      <path id="Trazado_102988-3" data-name="Trazado 102988" d="M121.454,23.309a2.306,2.306,0,1,0,2.306,2.306A2.309,2.309,0,0,0,121.454,23.309Zm0,2.815a.509.509,0,1,1,.509-.509A.509.509,0,0,1,121.454,26.123Zm0,0" transform="translate(-104.874 -20.516)"/>
      <path id="Trazado_102989-3" data-name="Trazado 102989" d="M166.825,23.309a2.306,2.306,0,1,0,2.306,2.306A2.309,2.309,0,0,0,166.825,23.309Zm0,2.815a.509.509,0,1,1,.509-.509A.509.509,0,0,1,166.825,26.123Zm0,0" transform="translate(-144.81 -20.516)"/>
      <path id="Trazado_102990-3" data-name="Trazado 102990" d="M93.076,181.056H105a1.5,1.5,0,0,0,1.5-1.5v-9.077a1.5,1.5,0,0,0-1.5-1.5H93.076a1.5,1.5,0,0,0-1.5,1.5v9.077A1.5,1.5,0,0,0,93.076,181.056Zm.3-10.275H104.7v8.478H93.375Zm0,0" transform="translate(-80.607 -148.74)"/>
    </g>
    <g id="ordenador-4" data-name="ordenador" transform="translate(848 685.854)">
      <path id="Trazado_102940-4" data-name="Trazado 102940" d="M417.62,450.853H407.138a.6.6,0,0,1-.6-.6v-3.5a3.2,3.2,0,0,1,3.2-3.2h5.275a3.2,3.2,0,0,1,3.2,3.2v3.5A.6.6,0,0,1,417.62,450.853Zm0,0" transform="translate(-357.835 -390.413)" fill="#e7e7e7"/>
      <path id="Trazado_102941-4" data-name="Trazado 102941" d="M461.493,446.753v3.5a.6.6,0,0,1-.6.6h-1.989v-4.1a3.2,3.2,0,0,0-3.2-3.2h2.588A3.2,3.2,0,0,1,461.493,446.753Zm0,0" transform="translate(-401.109 -390.413)" fill="#cecece"/>
      <g id="Grupo_57463-4" data-name="Grupo 57463" transform="translate(2.987 53.564)">
        <path id="Trazado_102942-4" data-name="Trazado 102942" d="M28.959,449.629H24.93v-1.414a1.1,1.1,0,0,1,1.1-1.105h1.819a1.1,1.1,0,0,1,1.1,1.105v1.414Zm0,0" transform="translate(-24.93 -447.109)" fill="#9ae7fd"/>
        <path id="Trazado_102943-4" data-name="Trazado 102943" d="M71.207,449.629H58.973v-1.414a1.1,1.1,0,0,1,1.1-1.105H70.1a1.1,1.1,0,0,1,1.1,1.105Zm0,0" transform="translate(-54.894 -447.109)" fill="#9ae7fd"/>
        <path id="Trazado_102944-4" data-name="Trazado 102944" d="M165.127,449.629H161.1v-1.414a1.1,1.1,0,0,1,1.1-1.105h1.82a1.1,1.1,0,0,1,1.1,1.105Zm0,0" transform="translate(-144.785 -447.109)" fill="#9ae7fd"/>
        <path id="Trazado_102945-4" data-name="Trazado 102945" d="M199.17,449.629h-4.03v-1.414a1.1,1.1,0,0,1,1.1-1.105h1.82a1.1,1.1,0,0,1,1.1,1.105Zm0,0" transform="translate(-174.749 -447.109)" fill="#9ae7fd"/>
        <path id="Trazado_102946-4" data-name="Trazado 102946" d="M267.256,449.629h-4.03v-1.414a1.1,1.1,0,0,1,1.1-1.105h1.82a1.1,1.1,0,0,1,1.1,1.105Zm0,0" transform="translate(-234.678 -447.109)" fill="#9ae7fd"/>
        <path id="Trazado_102947-4" data-name="Trazado 102947" d="M301.3,449.629h-4.03v-1.414a1.1,1.1,0,0,1,1.1-1.105h1.82a1.1,1.1,0,0,1,1.1,1.105Zm0,0" transform="translate(-264.643 -447.109)" fill="#9ae7fd"/>
        <path id="Trazado_102948-4" data-name="Trazado 102948" d="M335.342,449.629h-4.03v-1.414a1.1,1.1,0,0,1,1.1-1.105h1.82a1.1,1.1,0,0,1,1.1,1.105Zm0,0" transform="translate(-294.607 -447.109)" fill="#9ae7fd"/>
      </g>
      <path id="Trazado_102949-4" data-name="Trazado 102949" d="M51.812,472.5H8.1a.6.6,0,0,1-.6-.6V468.74a.6.6,0,0,1,.6-.6H51.812a.6.6,0,0,1,.6.6V471.9A.6.6,0,0,1,51.812,472.5Zm0,0" transform="translate(-6.601 -412.057)" fill="#bfbfbf"/>
      <path id="Trazado_102950-4" data-name="Trazado 102950" d="M362.371,472.5h-2.043v-4.356h2.043a.6.6,0,0,1,.6.6V471.9A.6.6,0,0,1,362.371,472.5Zm0,0" transform="translate(-317.16 -412.057)" fill="#acacac"/>
      <path id="Trazado_102951-4" data-name="Trazado 102951" d="M54.762,78.328h48.144v25.894H54.762Zm0,0" transform="translate(-48.201 -68.944)" fill="#9ae7fd"/>
      <path id="Trazado_102952-4" data-name="Trazado 102952" d="M416.247,9.978v35.4a2.474,2.474,0,0,1-2.475,2.474H410.75a2.474,2.474,0,0,0,2.474-2.474V9.978A2.474,2.474,0,0,0,410.75,7.5h3.022A2.474,2.474,0,0,1,416.247,9.978Zm0,0" transform="translate(-361.542 -6.605)" fill="#64dcfc"/>
      <path id="Trazado_102953-4" data-name="Trazado 102953" d="M102.51,294.539h-48.2v3.487a2.474,2.474,0,0,0,2.475,2.474h43.249a2.475,2.475,0,0,0,2.475-2.474v-3.487Zm0,0" transform="translate(-47.806 -259.253)" fill="#bfbfbf"/>
      <path id="Trazado_102954-4" data-name="Trazado 102954" d="M416.247,294.539v3.487a2.474,2.474,0,0,1-2.475,2.475H410.75a2.474,2.474,0,0,0,2.474-2.475v-3.487Zm0,0" transform="translate(-361.542 -259.253)" fill="#acacac"/>
      <path id="Trazado_102955-4" data-name="Trazado 102955" d="M102.961,15.941h-48.2V9.974A2.474,2.474,0,0,1,57.235,7.5h43.251a2.474,2.474,0,0,1,2.474,2.474Zm0,0" transform="translate(-48.201 -6.601)" fill="#bfbfbf"/>
      <path id="Trazado_102956-4" data-name="Trazado 102956" d="M416.3,9.977v5.968h-3.078V9.977A2.474,2.474,0,0,0,410.75,7.5h3.078A2.474,2.474,0,0,1,416.3,9.977Zm0,0" transform="translate(-361.542 -6.605)" fill="#acacac"/>
      <path id="Trazado_102957-4" data-name="Trazado 102957" d="M199.2,344.3h13.483v4.064H199.2Zm0,0" transform="translate(-175.335 -303.053)" fill="#838383"/>
      <path id="Trazado_102958-4" data-name="Trazado 102958" d="M292.832,344.8H295.1v3.944h-2.265Zm0,0" transform="translate(-257.75 -303.497)" fill="#5a5a5a"/>
      <path id="Trazado_102959-4" data-name="Trazado 102959" d="M181.389,382.213H159.168a.485.485,0,0,1-.485-.485v-1.571a1.93,1.93,0,0,1,1.929-1.93h19.332a1.93,1.93,0,0,1,1.929,1.93v1.571A.485.485,0,0,1,181.389,382.213Zm0,0" transform="translate(-139.673 -332.915)" fill="#bfbfbf"/>
      <path id="Trazado_102960-4" data-name="Trazado 102960" d="M321.943,380.156v1.572a.485.485,0,0,1-.485.485h-1.712v-2.058a1.93,1.93,0,0,0-1.929-1.929h2.2A1.929,1.929,0,0,1,321.943,380.156Zm0,0" transform="translate(-279.742 -332.915)" fill="#acacac"/>
      <path id="Trazado_102961-4" data-name="Trazado 102961" d="M84.092,32.216a1.407,1.407,0,1,1-1.408-1.408A1.407,1.407,0,0,1,84.092,32.216Zm0,0" transform="translate(-71.54 -27.118)" fill="#ff5757"/>
      <path id="Trazado_102962-4" data-name="Trazado 102962" d="M129.463,32.216a1.407,1.407,0,1,1-1.408-1.408A1.407,1.407,0,0,1,129.463,32.216Zm0,0" transform="translate(-111.476 -27.118)" fill="#ffcd6b"/>
      <path id="Trazado_102963-4" data-name="Trazado 102963" d="M174.834,32.216a1.407,1.407,0,1,1-1.408-1.408A1.407,1.407,0,0,1,174.834,32.216Zm0,0" transform="translate(-151.411 -27.118)" fill="#00d3b4"/>
      <path id="Trazado_102964-4" data-name="Trazado 102964" d="M87.3,32.22a1.407,1.407,0,0,1-2.378,1.017,1.406,1.406,0,0,0,.938-2.424h.033A1.406,1.406,0,0,1,87.3,32.22Zm0,0" transform="translate(-74.748 -27.121)" fill="#ff4343"/>
      <path id="Trazado_102965-4" data-name="Trazado 102965" d="M132.667,32.22a1.407,1.407,0,0,1-2.378,1.017,1.406,1.406,0,0,0,.939-2.424h.032A1.407,1.407,0,0,1,132.667,32.22Zm0,0" transform="translate(-114.68 -27.121)" fill="#ffc143"/>
      <path id="Trazado_102966-4" data-name="Trazado 102966" d="M178.042,32.22a1.407,1.407,0,0,1-2.378,1.017,1.406,1.406,0,0,0,.938-2.424h.033A1.407,1.407,0,0,1,178.042,32.22Zm0,0" transform="translate(-154.619 -27.121)" fill="#00b7a0"/>
      <path id="Trazado_102967-4" data-name="Trazado 102967" d="M111.6,186.759H99.677a.6.6,0,0,1-.6-.6v-9.077a.6.6,0,0,1,.6-.6H111.6a.6.6,0,0,1,.6.6v9.077A.6.6,0,0,1,111.6,186.759Zm0,0" transform="translate(-87.208 -155.341)" fill="#ffb509"/>
      <path id="Trazado_102968-4" data-name="Trazado 102968" d="M190.627,177.083v9.077a.6.6,0,0,1-.6.6h-1.852a.6.6,0,0,0,.6-.6v-9.077a.6.6,0,0,0-.6-.6h1.852A.6.6,0,0,1,190.627,177.083Zm0,0" transform="translate(-165.632 -155.341)" fill="#fa0"/>
      <path id="Trazado_102969-4" data-name="Trazado 102969" d="M94.566,110.492h5.907a.9.9,0,1,0,0-1.8H94.566a.9.9,0,1,0,0,1.8Zm0,0" transform="translate(-82.446 -95.674)"/>
      <path id="Trazado_102970-4" data-name="Trazado 102970" d="M170.754,110.492H181.14a.9.9,0,1,0,0-1.8H170.754a.9.9,0,0,0,0,1.8Zm0,0" transform="translate(-149.507 -95.674)"/>
      <path id="Trazado_102971-4" data-name="Trazado 102971" d="M94.566,139.106h2.516a.9.9,0,1,0,0-1.8H94.566a.9.9,0,1,0,0,1.8Zm0,0" transform="translate(-82.446 -120.859)"/>
      <path id="Trazado_102972-4" data-name="Trazado 102972" d="M233.1,138.207a.9.9,0,0,0-.9-.9h-1.533a.9.9,0,1,0,0,1.8H232.2A.9.9,0,0,0,233.1,138.207Zm0,0" transform="translate(-202.243 -120.859)"/>
      <path id="Trazado_102973-4" data-name="Trazado 102973" d="M141.254,137.309a.9.9,0,1,0,0,1.8h7.527a.9.9,0,1,0,0-1.8Zm0,0" transform="translate(-123.541 -120.859)"/>
      <path id="Trazado_102974-4" data-name="Trazado 102974" d="M265.773,138.207a.9.9,0,0,0,.9.9h2.871a.9.9,0,1,0,0-1.8h-2.871A.9.9,0,0,0,265.773,138.207Zm0,0" transform="translate(-233.933 -120.859)"/>
      <path id="Trazado_102975-4" data-name="Trazado 102975" d="M243.981,176.734h-2.567a.9.9,0,1,0,0,1.8h2.567a.9.9,0,1,0,0-1.8Zm0,0" transform="translate(-211.702 -155.561)"/>
      <path id="Trazado_102976-4" data-name="Trazado 102976" d="M295.953,177.633a.9.9,0,0,0,.9.9h4.143a.9.9,0,0,0,0-1.8h-4.143A.9.9,0,0,0,295.953,177.633Zm0,0" transform="translate(-260.498 -155.561)"/>
      <path id="Trazado_102977-4" data-name="Trazado 102977" d="M361.148,178.531h5.341a.9.9,0,0,0,0-1.8h-5.341a.9.9,0,0,0,0,1.8Zm0,0" transform="translate(-317.092 -155.561)"/>
      <path id="Trazado_102978-4" data-name="Trazado 102978" d="M240.516,212.766a.9.9,0,0,0,.9.9h6.641a.9.9,0,1,0,0-1.8h-6.641A.9.9,0,0,0,240.516,212.766Zm0,0" transform="translate(-211.702 -186.485)"/>
      <path id="Trazado_102979-4" data-name="Trazado 102979" d="M330.531,212.766a.9.9,0,0,0,.9.9h1.626a.9.9,0,0,0,0-1.8H331.43A.9.9,0,0,0,330.531,212.766Zm0,0" transform="translate(-290.933 -186.485)"/>
      <path id="Trazado_102980-4" data-name="Trazado 102980" d="M381.834,211.867h-3.252a.9.9,0,0,0,0,1.8h3.252a.9.9,0,0,0,0-1.8Zm0,0" transform="translate(-332.437 -186.485)"/>
      <path id="Trazado_102981-4" data-name="Trazado 102981" d="M243.981,247h-2.567a.9.9,0,1,0,0,1.8h2.567a.9.9,0,1,0,0-1.8Zm0,0" transform="translate(-211.702 -217.409)"/>
      <path id="Trazado_102982-4" data-name="Trazado 102982" d="M304.554,247h-7.7a.9.9,0,0,0,0,1.8h7.7a.9.9,0,1,0,0-1.8Zm0,0" transform="translate(-260.498 -217.409)"/>
      <path id="Trazado_102983-4" data-name="Trazado 102983" d="M393.779,247h-1.626a.9.9,0,0,0,0,1.8h1.626a.9.9,0,0,0,0-1.8Zm0,0" transform="translate(-344.381 -217.409)"/>
      <path id="Trazado_102984-4" data-name="Trazado 102984" d="M45.21,442.129H44.62v-.516a2.006,2.006,0,0,0-2-2H40.8a1.992,1.992,0,0,0-1.129.35,1.993,1.993,0,0,0-1.13-.35H36.718a1.991,1.991,0,0,0-1.129.35,1.993,1.993,0,0,0-1.129-.35H32.64a2.006,2.006,0,0,0-2,2v.516h-2.33v-.516a2.006,2.006,0,0,0-2-2h-1.82a1.992,1.992,0,0,0-1.129.35,1.993,1.993,0,0,0-1.129-.35H20.4a1.99,1.99,0,0,0-1.1.334,1.992,1.992,0,0,0-1.105-.334H8.17a1.993,1.993,0,0,0-1.13.35,1.991,1.991,0,0,0-1.129-.35H4.091a2.006,2.006,0,0,0-2,2v.516H1.5a1.5,1.5,0,0,0-1.5,1.5v3.158a1.5,1.5,0,0,0,1.5,1.5h7.13a.9.9,0,1,0,0-1.8H1.8v-2.559H44.911v2.559H12.7a.9.9,0,1,0,0,1.8H45.21a1.5,1.5,0,0,0,1.5-1.5v-3.158A1.5,1.5,0,0,0,45.21,442.129Zm-39.093,0H3.885v-.516a.207.207,0,0,1,.206-.207H5.911a.207.207,0,0,1,.207.207Zm12.283,0H7.964v-.516a.207.207,0,0,1,.206-.207H18.195a.207.207,0,0,1,.207.207v.516Zm4.03,0H20.2v-.516a.207.207,0,0,1,.206-.207h1.82a.207.207,0,0,1,.206.207Zm4.078,0H24.277v-.516a.207.207,0,0,1,.206-.207H26.3a.207.207,0,0,1,.206.207Zm8.157,0H32.433v-.516a.207.207,0,0,1,.206-.207h1.82a.207.207,0,0,1,.206.207Zm4.078,0H36.512v-.516a.207.207,0,0,1,.206-.207h1.82a.207.207,0,0,1,.206.207Zm4.078,0H40.59v-.516a.207.207,0,0,1,.206-.207h1.819a.207.207,0,0,1,.207.207Zm0,0" transform="translate(0 -386.944)"/>
      <path id="Trazado_102985-4" data-name="Trazado 102985" d="M408.414,436.051H403.14a4.106,4.106,0,0,0-4.1,4.1v3.5a1.5,1.5,0,0,0,1.5,1.5h10.482a1.5,1.5,0,0,0,1.5-1.5v-3.5A4.106,4.106,0,0,0,408.414,436.051Zm2.3,7.3h-9.883v-3.2a2.307,2.307,0,0,1,2.3-2.3h5.274a2.307,2.307,0,0,1,2.3,2.3Zm0,0" transform="translate(-351.234 -383.811)"/>
      <path id="Trazado_102986-4" data-name="Trazado 102986" d="M50.186,42.146H64.17v2.267H62.144a2.831,2.831,0,0,0-2.828,2.828v1.572A1.385,1.385,0,0,0,60.7,50.2H73.852a.9.9,0,0,0,0-1.8H61.113V47.241a1.032,1.032,0,0,1,1.031-1.031H81.475a1.032,1.032,0,0,1,1.031,1.031V48.4H78.045a.9.9,0,0,0,0,1.8H82.92A1.385,1.385,0,0,0,84.3,48.813V47.241a2.831,2.831,0,0,0-2.828-2.828H79.45V42.146H93.435a3.377,3.377,0,0,0,3.373-3.373l.055-35.4A3.376,3.376,0,0,0,93.49,0h-43.3a3.377,3.377,0,0,0-3.373,3.373v35.4A3.377,3.377,0,0,0,50.186,42.146Zm27.467,2.267H65.967V42.146H77.653ZM48.663,3.373A1.577,1.577,0,0,1,50.239,1.8h43.2a1.578,1.578,0,0,1,1.576,1.576V8.441H48.663Zm-.054,6.865h46.4v24.15H48.61Zm0,25.947h46.4v2.588a1.578,1.578,0,0,1-1.576,1.576H50.186a1.578,1.578,0,0,1-1.576-1.576Zm0,0" transform="translate(-41.204)"/>
      <path id="Trazado_102987-4" data-name="Trazado 102987" d="M76.083,23.309a2.306,2.306,0,1,0,2.306,2.306A2.309,2.309,0,0,0,76.083,23.309Zm0,2.815a.509.509,0,1,1,.509-.509A.509.509,0,0,1,76.083,26.123Zm0,0" transform="translate(-64.939 -20.516)"/>
      <path id="Trazado_102988-4" data-name="Trazado 102988" d="M121.454,23.309a2.306,2.306,0,1,0,2.306,2.306A2.309,2.309,0,0,0,121.454,23.309Zm0,2.815a.509.509,0,1,1,.509-.509A.509.509,0,0,1,121.454,26.123Zm0,0" transform="translate(-104.874 -20.516)"/>
      <path id="Trazado_102989-4" data-name="Trazado 102989" d="M166.825,23.309a2.306,2.306,0,1,0,2.306,2.306A2.309,2.309,0,0,0,166.825,23.309Zm0,2.815a.509.509,0,1,1,.509-.509A.509.509,0,0,1,166.825,26.123Zm0,0" transform="translate(-144.81 -20.516)"/>
      <path id="Trazado_102990-4" data-name="Trazado 102990" d="M93.076,181.056H105a1.5,1.5,0,0,0,1.5-1.5v-9.077a1.5,1.5,0,0,0-1.5-1.5H93.076a1.5,1.5,0,0,0-1.5,1.5v9.077A1.5,1.5,0,0,0,93.076,181.056Zm.3-10.275H104.7v8.478H93.375Zm0,0" transform="translate(-80.607 -148.74)"/>
    </g>
    <g id="ordenador-5" data-name="ordenador" transform="translate(925.307 685.854)">
      <path id="Trazado_102940-5" data-name="Trazado 102940" d="M417.62,450.853H407.138a.6.6,0,0,1-.6-.6v-3.5a3.2,3.2,0,0,1,3.2-3.2h5.275a3.2,3.2,0,0,1,3.2,3.2v3.5A.6.6,0,0,1,417.62,450.853Zm0,0" transform="translate(-357.835 -390.413)" fill="#e7e7e7"/>
      <path id="Trazado_102941-5" data-name="Trazado 102941" d="M461.493,446.753v3.5a.6.6,0,0,1-.6.6h-1.989v-4.1a3.2,3.2,0,0,0-3.2-3.2h2.588A3.2,3.2,0,0,1,461.493,446.753Zm0,0" transform="translate(-401.109 -390.413)" fill="#cecece"/>
      <g id="Grupo_57463-5" data-name="Grupo 57463" transform="translate(2.987 53.564)">
        <path id="Trazado_102942-5" data-name="Trazado 102942" d="M28.959,449.629H24.93v-1.414a1.1,1.1,0,0,1,1.1-1.105h1.819a1.1,1.1,0,0,1,1.1,1.105v1.414Zm0,0" transform="translate(-24.93 -447.109)" fill="#9ae7fd"/>
        <path id="Trazado_102943-5" data-name="Trazado 102943" d="M71.207,449.629H58.973v-1.414a1.1,1.1,0,0,1,1.1-1.105H70.1a1.1,1.1,0,0,1,1.1,1.105Zm0,0" transform="translate(-54.894 -447.109)" fill="#9ae7fd"/>
        <path id="Trazado_102944-5" data-name="Trazado 102944" d="M165.127,449.629H161.1v-1.414a1.1,1.1,0,0,1,1.1-1.105h1.82a1.1,1.1,0,0,1,1.1,1.105Zm0,0" transform="translate(-144.785 -447.109)" fill="#9ae7fd"/>
        <path id="Trazado_102945-5" data-name="Trazado 102945" d="M199.17,449.629h-4.03v-1.414a1.1,1.1,0,0,1,1.1-1.105h1.82a1.1,1.1,0,0,1,1.1,1.105Zm0,0" transform="translate(-174.749 -447.109)" fill="#9ae7fd"/>
        <path id="Trazado_102946-5" data-name="Trazado 102946" d="M267.256,449.629h-4.03v-1.414a1.1,1.1,0,0,1,1.1-1.105h1.82a1.1,1.1,0,0,1,1.1,1.105Zm0,0" transform="translate(-234.678 -447.109)" fill="#9ae7fd"/>
        <path id="Trazado_102947-5" data-name="Trazado 102947" d="M301.3,449.629h-4.03v-1.414a1.1,1.1,0,0,1,1.1-1.105h1.82a1.1,1.1,0,0,1,1.1,1.105Zm0,0" transform="translate(-264.643 -447.109)" fill="#9ae7fd"/>
        <path id="Trazado_102948-5" data-name="Trazado 102948" d="M335.342,449.629h-4.03v-1.414a1.1,1.1,0,0,1,1.1-1.105h1.82a1.1,1.1,0,0,1,1.1,1.105Zm0,0" transform="translate(-294.607 -447.109)" fill="#9ae7fd"/>
      </g>
      <path id="Trazado_102949-5" data-name="Trazado 102949" d="M51.812,472.5H8.1a.6.6,0,0,1-.6-.6V468.74a.6.6,0,0,1,.6-.6H51.812a.6.6,0,0,1,.6.6V471.9A.6.6,0,0,1,51.812,472.5Zm0,0" transform="translate(-6.601 -412.057)" fill="#bfbfbf"/>
      <path id="Trazado_102950-5" data-name="Trazado 102950" d="M362.371,472.5h-2.043v-4.356h2.043a.6.6,0,0,1,.6.6V471.9A.6.6,0,0,1,362.371,472.5Zm0,0" transform="translate(-317.16 -412.057)" fill="#acacac"/>
      <path id="Trazado_102951-5" data-name="Trazado 102951" d="M54.762,78.328h48.144v25.894H54.762Zm0,0" transform="translate(-48.201 -68.944)" fill="#9ae7fd"/>
      <path id="Trazado_102952-5" data-name="Trazado 102952" d="M416.247,9.978v35.4a2.474,2.474,0,0,1-2.475,2.474H410.75a2.474,2.474,0,0,0,2.474-2.474V9.978A2.474,2.474,0,0,0,410.75,7.5h3.022A2.474,2.474,0,0,1,416.247,9.978Zm0,0" transform="translate(-361.542 -6.605)" fill="#64dcfc"/>
      <path id="Trazado_102953-5" data-name="Trazado 102953" d="M102.51,294.539h-48.2v3.487a2.474,2.474,0,0,0,2.475,2.474h43.249a2.475,2.475,0,0,0,2.475-2.474v-3.487Zm0,0" transform="translate(-47.806 -259.253)" fill="#bfbfbf"/>
      <path id="Trazado_102954-5" data-name="Trazado 102954" d="M416.247,294.539v3.487a2.474,2.474,0,0,1-2.475,2.475H410.75a2.474,2.474,0,0,0,2.474-2.475v-3.487Zm0,0" transform="translate(-361.542 -259.253)" fill="#acacac"/>
      <path id="Trazado_102955-5" data-name="Trazado 102955" d="M102.961,15.941h-48.2V9.974A2.474,2.474,0,0,1,57.235,7.5h43.251a2.474,2.474,0,0,1,2.474,2.474Zm0,0" transform="translate(-48.201 -6.601)" fill="#bfbfbf"/>
      <path id="Trazado_102956-5" data-name="Trazado 102956" d="M416.3,9.977v5.968h-3.078V9.977A2.474,2.474,0,0,0,410.75,7.5h3.078A2.474,2.474,0,0,1,416.3,9.977Zm0,0" transform="translate(-361.542 -6.605)" fill="#acacac"/>
      <path id="Trazado_102957-5" data-name="Trazado 102957" d="M199.2,344.3h13.483v4.064H199.2Zm0,0" transform="translate(-175.335 -303.053)" fill="#838383"/>
      <path id="Trazado_102958-5" data-name="Trazado 102958" d="M292.832,344.8H295.1v3.944h-2.265Zm0,0" transform="translate(-257.75 -303.497)" fill="#5a5a5a"/>
      <path id="Trazado_102959-5" data-name="Trazado 102959" d="M181.389,382.213H159.168a.485.485,0,0,1-.485-.485v-1.571a1.93,1.93,0,0,1,1.929-1.93h19.332a1.93,1.93,0,0,1,1.929,1.93v1.571A.485.485,0,0,1,181.389,382.213Zm0,0" transform="translate(-139.673 -332.915)" fill="#bfbfbf"/>
      <path id="Trazado_102960-5" data-name="Trazado 102960" d="M321.943,380.156v1.572a.485.485,0,0,1-.485.485h-1.712v-2.058a1.93,1.93,0,0,0-1.929-1.929h2.2A1.929,1.929,0,0,1,321.943,380.156Zm0,0" transform="translate(-279.742 -332.915)" fill="#acacac"/>
      <path id="Trazado_102961-5" data-name="Trazado 102961" d="M84.092,32.216a1.407,1.407,0,1,1-1.408-1.408A1.407,1.407,0,0,1,84.092,32.216Zm0,0" transform="translate(-71.54 -27.118)" fill="#ff5757"/>
      <path id="Trazado_102962-5" data-name="Trazado 102962" d="M129.463,32.216a1.407,1.407,0,1,1-1.408-1.408A1.407,1.407,0,0,1,129.463,32.216Zm0,0" transform="translate(-111.476 -27.118)" fill="#ffcd6b"/>
      <path id="Trazado_102963-5" data-name="Trazado 102963" d="M174.834,32.216a1.407,1.407,0,1,1-1.408-1.408A1.407,1.407,0,0,1,174.834,32.216Zm0,0" transform="translate(-151.411 -27.118)" fill="#00d3b4"/>
      <path id="Trazado_102964-5" data-name="Trazado 102964" d="M87.3,32.22a1.407,1.407,0,0,1-2.378,1.017,1.406,1.406,0,0,0,.938-2.424h.033A1.406,1.406,0,0,1,87.3,32.22Zm0,0" transform="translate(-74.748 -27.121)" fill="#ff4343"/>
      <path id="Trazado_102965-5" data-name="Trazado 102965" d="M132.667,32.22a1.407,1.407,0,0,1-2.378,1.017,1.406,1.406,0,0,0,.939-2.424h.032A1.407,1.407,0,0,1,132.667,32.22Zm0,0" transform="translate(-114.68 -27.121)" fill="#ffc143"/>
      <path id="Trazado_102966-5" data-name="Trazado 102966" d="M178.042,32.22a1.407,1.407,0,0,1-2.378,1.017,1.406,1.406,0,0,0,.938-2.424h.033A1.407,1.407,0,0,1,178.042,32.22Zm0,0" transform="translate(-154.619 -27.121)" fill="#00b7a0"/>
      <path id="Trazado_102967-5" data-name="Trazado 102967" d="M111.6,186.759H99.677a.6.6,0,0,1-.6-.6v-9.077a.6.6,0,0,1,.6-.6H111.6a.6.6,0,0,1,.6.6v9.077A.6.6,0,0,1,111.6,186.759Zm0,0" transform="translate(-87.208 -155.341)" fill="#ffb509"/>
      <path id="Trazado_102968-5" data-name="Trazado 102968" d="M190.627,177.083v9.077a.6.6,0,0,1-.6.6h-1.852a.6.6,0,0,0,.6-.6v-9.077a.6.6,0,0,0-.6-.6h1.852A.6.6,0,0,1,190.627,177.083Zm0,0" transform="translate(-165.632 -155.341)" fill="#fa0"/>
      <path id="Trazado_102969-5" data-name="Trazado 102969" d="M94.566,110.492h5.907a.9.9,0,1,0,0-1.8H94.566a.9.9,0,1,0,0,1.8Zm0,0" transform="translate(-82.446 -95.674)"/>
      <path id="Trazado_102970-5" data-name="Trazado 102970" d="M170.754,110.492H181.14a.9.9,0,1,0,0-1.8H170.754a.9.9,0,0,0,0,1.8Zm0,0" transform="translate(-149.507 -95.674)"/>
      <path id="Trazado_102971-5" data-name="Trazado 102971" d="M94.566,139.106h2.516a.9.9,0,1,0,0-1.8H94.566a.9.9,0,1,0,0,1.8Zm0,0" transform="translate(-82.446 -120.859)"/>
      <path id="Trazado_102972-5" data-name="Trazado 102972" d="M233.1,138.207a.9.9,0,0,0-.9-.9h-1.533a.9.9,0,1,0,0,1.8H232.2A.9.9,0,0,0,233.1,138.207Zm0,0" transform="translate(-202.243 -120.859)"/>
      <path id="Trazado_102973-5" data-name="Trazado 102973" d="M141.254,137.309a.9.9,0,1,0,0,1.8h7.527a.9.9,0,1,0,0-1.8Zm0,0" transform="translate(-123.541 -120.859)"/>
      <path id="Trazado_102974-5" data-name="Trazado 102974" d="M265.773,138.207a.9.9,0,0,0,.9.9h2.871a.9.9,0,1,0,0-1.8h-2.871A.9.9,0,0,0,265.773,138.207Zm0,0" transform="translate(-233.933 -120.859)"/>
      <path id="Trazado_102975-5" data-name="Trazado 102975" d="M243.981,176.734h-2.567a.9.9,0,1,0,0,1.8h2.567a.9.9,0,1,0,0-1.8Zm0,0" transform="translate(-211.702 -155.561)"/>
      <path id="Trazado_102976-5" data-name="Trazado 102976" d="M295.953,177.633a.9.9,0,0,0,.9.9h4.143a.9.9,0,0,0,0-1.8h-4.143A.9.9,0,0,0,295.953,177.633Zm0,0" transform="translate(-260.498 -155.561)"/>
      <path id="Trazado_102977-5" data-name="Trazado 102977" d="M361.148,178.531h5.341a.9.9,0,0,0,0-1.8h-5.341a.9.9,0,0,0,0,1.8Zm0,0" transform="translate(-317.092 -155.561)"/>
      <path id="Trazado_102978-5" data-name="Trazado 102978" d="M240.516,212.766a.9.9,0,0,0,.9.9h6.641a.9.9,0,1,0,0-1.8h-6.641A.9.9,0,0,0,240.516,212.766Zm0,0" transform="translate(-211.702 -186.485)"/>
      <path id="Trazado_102979-5" data-name="Trazado 102979" d="M330.531,212.766a.9.9,0,0,0,.9.9h1.626a.9.9,0,0,0,0-1.8H331.43A.9.9,0,0,0,330.531,212.766Zm0,0" transform="translate(-290.933 -186.485)"/>
      <path id="Trazado_102980-5" data-name="Trazado 102980" d="M381.834,211.867h-3.252a.9.9,0,0,0,0,1.8h3.252a.9.9,0,0,0,0-1.8Zm0,0" transform="translate(-332.437 -186.485)"/>
      <path id="Trazado_102981-5" data-name="Trazado 102981" d="M243.981,247h-2.567a.9.9,0,1,0,0,1.8h2.567a.9.9,0,1,0,0-1.8Zm0,0" transform="translate(-211.702 -217.409)"/>
      <path id="Trazado_102982-5" data-name="Trazado 102982" d="M304.554,247h-7.7a.9.9,0,0,0,0,1.8h7.7a.9.9,0,1,0,0-1.8Zm0,0" transform="translate(-260.498 -217.409)"/>
      <path id="Trazado_102983-5" data-name="Trazado 102983" d="M393.779,247h-1.626a.9.9,0,0,0,0,1.8h1.626a.9.9,0,0,0,0-1.8Zm0,0" transform="translate(-344.381 -217.409)"/>
      <path id="Trazado_102984-5" data-name="Trazado 102984" d="M45.21,442.129H44.62v-.516a2.006,2.006,0,0,0-2-2H40.8a1.992,1.992,0,0,0-1.129.35,1.993,1.993,0,0,0-1.13-.35H36.718a1.991,1.991,0,0,0-1.129.35,1.993,1.993,0,0,0-1.129-.35H32.64a2.006,2.006,0,0,0-2,2v.516h-2.33v-.516a2.006,2.006,0,0,0-2-2h-1.82a1.992,1.992,0,0,0-1.129.35,1.993,1.993,0,0,0-1.129-.35H20.4a1.99,1.99,0,0,0-1.1.334,1.992,1.992,0,0,0-1.105-.334H8.17a1.993,1.993,0,0,0-1.13.35,1.991,1.991,0,0,0-1.129-.35H4.091a2.006,2.006,0,0,0-2,2v.516H1.5a1.5,1.5,0,0,0-1.5,1.5v3.158a1.5,1.5,0,0,0,1.5,1.5h7.13a.9.9,0,1,0,0-1.8H1.8v-2.559H44.911v2.559H12.7a.9.9,0,1,0,0,1.8H45.21a1.5,1.5,0,0,0,1.5-1.5v-3.158A1.5,1.5,0,0,0,45.21,442.129Zm-39.093,0H3.885v-.516a.207.207,0,0,1,.206-.207H5.911a.207.207,0,0,1,.207.207Zm12.283,0H7.964v-.516a.207.207,0,0,1,.206-.207H18.195a.207.207,0,0,1,.207.207v.516Zm4.03,0H20.2v-.516a.207.207,0,0,1,.206-.207h1.82a.207.207,0,0,1,.206.207Zm4.078,0H24.277v-.516a.207.207,0,0,1,.206-.207H26.3a.207.207,0,0,1,.206.207Zm8.157,0H32.433v-.516a.207.207,0,0,1,.206-.207h1.82a.207.207,0,0,1,.206.207Zm4.078,0H36.512v-.516a.207.207,0,0,1,.206-.207h1.82a.207.207,0,0,1,.206.207Zm4.078,0H40.59v-.516a.207.207,0,0,1,.206-.207h1.819a.207.207,0,0,1,.207.207Zm0,0" transform="translate(0 -386.944)"/>
      <path id="Trazado_102985-5" data-name="Trazado 102985" d="M408.414,436.051H403.14a4.106,4.106,0,0,0-4.1,4.1v3.5a1.5,1.5,0,0,0,1.5,1.5h10.482a1.5,1.5,0,0,0,1.5-1.5v-3.5A4.106,4.106,0,0,0,408.414,436.051Zm2.3,7.3h-9.883v-3.2a2.307,2.307,0,0,1,2.3-2.3h5.274a2.307,2.307,0,0,1,2.3,2.3Zm0,0" transform="translate(-351.234 -383.811)"/>
      <path id="Trazado_102986-5" data-name="Trazado 102986" d="M50.186,42.146H64.17v2.267H62.144a2.831,2.831,0,0,0-2.828,2.828v1.572A1.385,1.385,0,0,0,60.7,50.2H73.852a.9.9,0,0,0,0-1.8H61.113V47.241a1.032,1.032,0,0,1,1.031-1.031H81.475a1.032,1.032,0,0,1,1.031,1.031V48.4H78.045a.9.9,0,0,0,0,1.8H82.92A1.385,1.385,0,0,0,84.3,48.813V47.241a2.831,2.831,0,0,0-2.828-2.828H79.45V42.146H93.435a3.377,3.377,0,0,0,3.373-3.373l.055-35.4A3.376,3.376,0,0,0,93.49,0h-43.3a3.377,3.377,0,0,0-3.373,3.373v35.4A3.377,3.377,0,0,0,50.186,42.146Zm27.467,2.267H65.967V42.146H77.653ZM48.663,3.373A1.577,1.577,0,0,1,50.239,1.8h43.2a1.578,1.578,0,0,1,1.576,1.576V8.441H48.663Zm-.054,6.865h46.4v24.15H48.61Zm0,25.947h46.4v2.588a1.578,1.578,0,0,1-1.576,1.576H50.186a1.578,1.578,0,0,1-1.576-1.576Zm0,0" transform="translate(-41.204)"/>
      <path id="Trazado_102987-5" data-name="Trazado 102987" d="M76.083,23.309a2.306,2.306,0,1,0,2.306,2.306A2.309,2.309,0,0,0,76.083,23.309Zm0,2.815a.509.509,0,1,1,.509-.509A.509.509,0,0,1,76.083,26.123Zm0,0" transform="translate(-64.939 -20.516)"/>
      <path id="Trazado_102988-5" data-name="Trazado 102988" d="M121.454,23.309a2.306,2.306,0,1,0,2.306,2.306A2.309,2.309,0,0,0,121.454,23.309Zm0,2.815a.509.509,0,1,1,.509-.509A.509.509,0,0,1,121.454,26.123Zm0,0" transform="translate(-104.874 -20.516)"/>
      <path id="Trazado_102989-5" data-name="Trazado 102989" d="M166.825,23.309a2.306,2.306,0,1,0,2.306,2.306A2.309,2.309,0,0,0,166.825,23.309Zm0,2.815a.509.509,0,1,1,.509-.509A.509.509,0,0,1,166.825,26.123Zm0,0" transform="translate(-144.81 -20.516)"/>
      <path id="Trazado_102990-5" data-name="Trazado 102990" d="M93.076,181.056H105a1.5,1.5,0,0,0,1.5-1.5v-9.077a1.5,1.5,0,0,0-1.5-1.5H93.076a1.5,1.5,0,0,0-1.5,1.5v9.077A1.5,1.5,0,0,0,93.076,181.056Zm.3-10.275H104.7v8.478H93.375Zm0,0" transform="translate(-80.607 -148.74)"/>
    </g>
    <g id="ordenador-6" data-name="ordenador" transform="translate(1002.614 685.854)">
      <path id="Trazado_102940-6" data-name="Trazado 102940" d="M417.62,450.853H407.138a.6.6,0,0,1-.6-.6v-3.5a3.2,3.2,0,0,1,3.2-3.2h5.275a3.2,3.2,0,0,1,3.2,3.2v3.5A.6.6,0,0,1,417.62,450.853Zm0,0" transform="translate(-357.835 -390.413)" fill="#e7e7e7"/>
      <path id="Trazado_102941-6" data-name="Trazado 102941" d="M461.493,446.753v3.5a.6.6,0,0,1-.6.6h-1.989v-4.1a3.2,3.2,0,0,0-3.2-3.2h2.588A3.2,3.2,0,0,1,461.493,446.753Zm0,0" transform="translate(-401.109 -390.413)" fill="#cecece"/>
      <g id="Grupo_57463-6" data-name="Grupo 57463" transform="translate(2.987 53.564)">
        <path id="Trazado_102942-6" data-name="Trazado 102942" d="M28.959,449.629H24.93v-1.414a1.1,1.1,0,0,1,1.1-1.105h1.819a1.1,1.1,0,0,1,1.1,1.105v1.414Zm0,0" transform="translate(-24.93 -447.109)" fill="#9ae7fd"/>
        <path id="Trazado_102943-6" data-name="Trazado 102943" d="M71.207,449.629H58.973v-1.414a1.1,1.1,0,0,1,1.1-1.105H70.1a1.1,1.1,0,0,1,1.1,1.105Zm0,0" transform="translate(-54.894 -447.109)" fill="#9ae7fd"/>
        <path id="Trazado_102944-6" data-name="Trazado 102944" d="M165.127,449.629H161.1v-1.414a1.1,1.1,0,0,1,1.1-1.105h1.82a1.1,1.1,0,0,1,1.1,1.105Zm0,0" transform="translate(-144.785 -447.109)" fill="#9ae7fd"/>
        <path id="Trazado_102945-6" data-name="Trazado 102945" d="M199.17,449.629h-4.03v-1.414a1.1,1.1,0,0,1,1.1-1.105h1.82a1.1,1.1,0,0,1,1.1,1.105Zm0,0" transform="translate(-174.749 -447.109)" fill="#9ae7fd"/>
        <path id="Trazado_102946-6" data-name="Trazado 102946" d="M267.256,449.629h-4.03v-1.414a1.1,1.1,0,0,1,1.1-1.105h1.82a1.1,1.1,0,0,1,1.1,1.105Zm0,0" transform="translate(-234.678 -447.109)" fill="#9ae7fd"/>
        <path id="Trazado_102947-6" data-name="Trazado 102947" d="M301.3,449.629h-4.03v-1.414a1.1,1.1,0,0,1,1.1-1.105h1.82a1.1,1.1,0,0,1,1.1,1.105Zm0,0" transform="translate(-264.643 -447.109)" fill="#9ae7fd"/>
        <path id="Trazado_102948-6" data-name="Trazado 102948" d="M335.342,449.629h-4.03v-1.414a1.1,1.1,0,0,1,1.1-1.105h1.82a1.1,1.1,0,0,1,1.1,1.105Zm0,0" transform="translate(-294.607 -447.109)" fill="#9ae7fd"/>
      </g>
      <path id="Trazado_102949-6" data-name="Trazado 102949" d="M51.812,472.5H8.1a.6.6,0,0,1-.6-.6V468.74a.6.6,0,0,1,.6-.6H51.812a.6.6,0,0,1,.6.6V471.9A.6.6,0,0,1,51.812,472.5Zm0,0" transform="translate(-6.601 -412.057)" fill="#bfbfbf"/>
      <path id="Trazado_102950-6" data-name="Trazado 102950" d="M362.371,472.5h-2.043v-4.356h2.043a.6.6,0,0,1,.6.6V471.9A.6.6,0,0,1,362.371,472.5Zm0,0" transform="translate(-317.16 -412.057)" fill="#acacac"/>
      <path id="Trazado_102951-6" data-name="Trazado 102951" d="M54.762,78.328h48.144v25.894H54.762Zm0,0" transform="translate(-48.201 -68.944)" fill="#9ae7fd"/>
      <path id="Trazado_102952-6" data-name="Trazado 102952" d="M416.247,9.978v35.4a2.474,2.474,0,0,1-2.475,2.474H410.75a2.474,2.474,0,0,0,2.474-2.474V9.978A2.474,2.474,0,0,0,410.75,7.5h3.022A2.474,2.474,0,0,1,416.247,9.978Zm0,0" transform="translate(-361.542 -6.605)" fill="#64dcfc"/>
      <path id="Trazado_102953-6" data-name="Trazado 102953" d="M102.51,294.539h-48.2v3.487a2.474,2.474,0,0,0,2.475,2.474h43.249a2.475,2.475,0,0,0,2.475-2.474v-3.487Zm0,0" transform="translate(-47.806 -259.253)" fill="#bfbfbf"/>
      <path id="Trazado_102954-6" data-name="Trazado 102954" d="M416.247,294.539v3.487a2.474,2.474,0,0,1-2.475,2.475H410.75a2.474,2.474,0,0,0,2.474-2.475v-3.487Zm0,0" transform="translate(-361.542 -259.253)" fill="#acacac"/>
      <path id="Trazado_102955-6" data-name="Trazado 102955" d="M102.961,15.941h-48.2V9.974A2.474,2.474,0,0,1,57.235,7.5h43.251a2.474,2.474,0,0,1,2.474,2.474Zm0,0" transform="translate(-48.201 -6.601)" fill="#bfbfbf"/>
      <path id="Trazado_102956-6" data-name="Trazado 102956" d="M416.3,9.977v5.968h-3.078V9.977A2.474,2.474,0,0,0,410.75,7.5h3.078A2.474,2.474,0,0,1,416.3,9.977Zm0,0" transform="translate(-361.542 -6.605)" fill="#acacac"/>
      <path id="Trazado_102957-6" data-name="Trazado 102957" d="M199.2,344.3h13.483v4.064H199.2Zm0,0" transform="translate(-175.335 -303.053)" fill="#838383"/>
      <path id="Trazado_102958-6" data-name="Trazado 102958" d="M292.832,344.8H295.1v3.944h-2.265Zm0,0" transform="translate(-257.75 -303.497)" fill="#5a5a5a"/>
      <path id="Trazado_102959-6" data-name="Trazado 102959" d="M181.389,382.213H159.168a.485.485,0,0,1-.485-.485v-1.571a1.93,1.93,0,0,1,1.929-1.93h19.332a1.93,1.93,0,0,1,1.929,1.93v1.571A.485.485,0,0,1,181.389,382.213Zm0,0" transform="translate(-139.673 -332.915)" fill="#bfbfbf"/>
      <path id="Trazado_102960-6" data-name="Trazado 102960" d="M321.943,380.156v1.572a.485.485,0,0,1-.485.485h-1.712v-2.058a1.93,1.93,0,0,0-1.929-1.929h2.2A1.929,1.929,0,0,1,321.943,380.156Zm0,0" transform="translate(-279.742 -332.915)" fill="#acacac"/>
      <path id="Trazado_102961-6" data-name="Trazado 102961" d="M84.092,32.216a1.407,1.407,0,1,1-1.408-1.408A1.407,1.407,0,0,1,84.092,32.216Zm0,0" transform="translate(-71.54 -27.118)" fill="#ff5757"/>
      <path id="Trazado_102962-6" data-name="Trazado 102962" d="M129.463,32.216a1.407,1.407,0,1,1-1.408-1.408A1.407,1.407,0,0,1,129.463,32.216Zm0,0" transform="translate(-111.476 -27.118)" fill="#ffcd6b"/>
      <path id="Trazado_102963-6" data-name="Trazado 102963" d="M174.834,32.216a1.407,1.407,0,1,1-1.408-1.408A1.407,1.407,0,0,1,174.834,32.216Zm0,0" transform="translate(-151.411 -27.118)" fill="#00d3b4"/>
      <path id="Trazado_102964-6" data-name="Trazado 102964" d="M87.3,32.22a1.407,1.407,0,0,1-2.378,1.017,1.406,1.406,0,0,0,.938-2.424h.033A1.406,1.406,0,0,1,87.3,32.22Zm0,0" transform="translate(-74.748 -27.121)" fill="#ff4343"/>
      <path id="Trazado_102965-6" data-name="Trazado 102965" d="M132.667,32.22a1.407,1.407,0,0,1-2.378,1.017,1.406,1.406,0,0,0,.939-2.424h.032A1.407,1.407,0,0,1,132.667,32.22Zm0,0" transform="translate(-114.68 -27.121)" fill="#ffc143"/>
      <path id="Trazado_102966-6" data-name="Trazado 102966" d="M178.042,32.22a1.407,1.407,0,0,1-2.378,1.017,1.406,1.406,0,0,0,.938-2.424h.033A1.407,1.407,0,0,1,178.042,32.22Zm0,0" transform="translate(-154.619 -27.121)" fill="#00b7a0"/>
      <path id="Trazado_102967-6" data-name="Trazado 102967" d="M111.6,186.759H99.677a.6.6,0,0,1-.6-.6v-9.077a.6.6,0,0,1,.6-.6H111.6a.6.6,0,0,1,.6.6v9.077A.6.6,0,0,1,111.6,186.759Zm0,0" transform="translate(-87.208 -155.341)" fill="#ffb509"/>
      <path id="Trazado_102968-6" data-name="Trazado 102968" d="M190.627,177.083v9.077a.6.6,0,0,1-.6.6h-1.852a.6.6,0,0,0,.6-.6v-9.077a.6.6,0,0,0-.6-.6h1.852A.6.6,0,0,1,190.627,177.083Zm0,0" transform="translate(-165.632 -155.341)" fill="#fa0"/>
      <path id="Trazado_102969-6" data-name="Trazado 102969" d="M94.566,110.492h5.907a.9.9,0,1,0,0-1.8H94.566a.9.9,0,1,0,0,1.8Zm0,0" transform="translate(-82.446 -95.674)"/>
      <path id="Trazado_102970-6" data-name="Trazado 102970" d="M170.754,110.492H181.14a.9.9,0,1,0,0-1.8H170.754a.9.9,0,0,0,0,1.8Zm0,0" transform="translate(-149.507 -95.674)"/>
      <path id="Trazado_102971-6" data-name="Trazado 102971" d="M94.566,139.106h2.516a.9.9,0,1,0,0-1.8H94.566a.9.9,0,1,0,0,1.8Zm0,0" transform="translate(-82.446 -120.859)"/>
      <path id="Trazado_102972-6" data-name="Trazado 102972" d="M233.1,138.207a.9.9,0,0,0-.9-.9h-1.533a.9.9,0,1,0,0,1.8H232.2A.9.9,0,0,0,233.1,138.207Zm0,0" transform="translate(-202.243 -120.859)"/>
      <path id="Trazado_102973-6" data-name="Trazado 102973" d="M141.254,137.309a.9.9,0,1,0,0,1.8h7.527a.9.9,0,1,0,0-1.8Zm0,0" transform="translate(-123.541 -120.859)"/>
      <path id="Trazado_102974-6" data-name="Trazado 102974" d="M265.773,138.207a.9.9,0,0,0,.9.9h2.871a.9.9,0,1,0,0-1.8h-2.871A.9.9,0,0,0,265.773,138.207Zm0,0" transform="translate(-233.933 -120.859)"/>
      <path id="Trazado_102975-6" data-name="Trazado 102975" d="M243.981,176.734h-2.567a.9.9,0,1,0,0,1.8h2.567a.9.9,0,1,0,0-1.8Zm0,0" transform="translate(-211.702 -155.561)"/>
      <path id="Trazado_102976-6" data-name="Trazado 102976" d="M295.953,177.633a.9.9,0,0,0,.9.9h4.143a.9.9,0,0,0,0-1.8h-4.143A.9.9,0,0,0,295.953,177.633Zm0,0" transform="translate(-260.498 -155.561)"/>
      <path id="Trazado_102977-6" data-name="Trazado 102977" d="M361.148,178.531h5.341a.9.9,0,0,0,0-1.8h-5.341a.9.9,0,0,0,0,1.8Zm0,0" transform="translate(-317.092 -155.561)"/>
      <path id="Trazado_102978-6" data-name="Trazado 102978" d="M240.516,212.766a.9.9,0,0,0,.9.9h6.641a.9.9,0,1,0,0-1.8h-6.641A.9.9,0,0,0,240.516,212.766Zm0,0" transform="translate(-211.702 -186.485)"/>
      <path id="Trazado_102979-6" data-name="Trazado 102979" d="M330.531,212.766a.9.9,0,0,0,.9.9h1.626a.9.9,0,0,0,0-1.8H331.43A.9.9,0,0,0,330.531,212.766Zm0,0" transform="translate(-290.933 -186.485)"/>
      <path id="Trazado_102980-6" data-name="Trazado 102980" d="M381.834,211.867h-3.252a.9.9,0,0,0,0,1.8h3.252a.9.9,0,0,0,0-1.8Zm0,0" transform="translate(-332.437 -186.485)"/>
      <path id="Trazado_102981-6" data-name="Trazado 102981" d="M243.981,247h-2.567a.9.9,0,1,0,0,1.8h2.567a.9.9,0,1,0,0-1.8Zm0,0" transform="translate(-211.702 -217.409)"/>
      <path id="Trazado_102982-6" data-name="Trazado 102982" d="M304.554,247h-7.7a.9.9,0,0,0,0,1.8h7.7a.9.9,0,1,0,0-1.8Zm0,0" transform="translate(-260.498 -217.409)"/>
      <path id="Trazado_102983-6" data-name="Trazado 102983" d="M393.779,247h-1.626a.9.9,0,0,0,0,1.8h1.626a.9.9,0,0,0,0-1.8Zm0,0" transform="translate(-344.381 -217.409)"/>
      <path id="Trazado_102984-6" data-name="Trazado 102984" d="M45.21,442.129H44.62v-.516a2.006,2.006,0,0,0-2-2H40.8a1.992,1.992,0,0,0-1.129.35,1.993,1.993,0,0,0-1.13-.35H36.718a1.991,1.991,0,0,0-1.129.35,1.993,1.993,0,0,0-1.129-.35H32.64a2.006,2.006,0,0,0-2,2v.516h-2.33v-.516a2.006,2.006,0,0,0-2-2h-1.82a1.992,1.992,0,0,0-1.129.35,1.993,1.993,0,0,0-1.129-.35H20.4a1.99,1.99,0,0,0-1.1.334,1.992,1.992,0,0,0-1.105-.334H8.17a1.993,1.993,0,0,0-1.13.35,1.991,1.991,0,0,0-1.129-.35H4.091a2.006,2.006,0,0,0-2,2v.516H1.5a1.5,1.5,0,0,0-1.5,1.5v3.158a1.5,1.5,0,0,0,1.5,1.5h7.13a.9.9,0,1,0,0-1.8H1.8v-2.559H44.911v2.559H12.7a.9.9,0,1,0,0,1.8H45.21a1.5,1.5,0,0,0,1.5-1.5v-3.158A1.5,1.5,0,0,0,45.21,442.129Zm-39.093,0H3.885v-.516a.207.207,0,0,1,.206-.207H5.911a.207.207,0,0,1,.207.207Zm12.283,0H7.964v-.516a.207.207,0,0,1,.206-.207H18.195a.207.207,0,0,1,.207.207v.516Zm4.03,0H20.2v-.516a.207.207,0,0,1,.206-.207h1.82a.207.207,0,0,1,.206.207Zm4.078,0H24.277v-.516a.207.207,0,0,1,.206-.207H26.3a.207.207,0,0,1,.206.207Zm8.157,0H32.433v-.516a.207.207,0,0,1,.206-.207h1.82a.207.207,0,0,1,.206.207Zm4.078,0H36.512v-.516a.207.207,0,0,1,.206-.207h1.82a.207.207,0,0,1,.206.207Zm4.078,0H40.59v-.516a.207.207,0,0,1,.206-.207h1.819a.207.207,0,0,1,.207.207Zm0,0" transform="translate(0 -386.944)"/>
      <path id="Trazado_102985-6" data-name="Trazado 102985" d="M408.414,436.051H403.14a4.106,4.106,0,0,0-4.1,4.1v3.5a1.5,1.5,0,0,0,1.5,1.5h10.482a1.5,1.5,0,0,0,1.5-1.5v-3.5A4.106,4.106,0,0,0,408.414,436.051Zm2.3,7.3h-9.883v-3.2a2.307,2.307,0,0,1,2.3-2.3h5.274a2.307,2.307,0,0,1,2.3,2.3Zm0,0" transform="translate(-351.234 -383.811)"/>
      <path id="Trazado_102986-6" data-name="Trazado 102986" d="M50.186,42.146H64.17v2.267H62.144a2.831,2.831,0,0,0-2.828,2.828v1.572A1.385,1.385,0,0,0,60.7,50.2H73.852a.9.9,0,0,0,0-1.8H61.113V47.241a1.032,1.032,0,0,1,1.031-1.031H81.475a1.032,1.032,0,0,1,1.031,1.031V48.4H78.045a.9.9,0,0,0,0,1.8H82.92A1.385,1.385,0,0,0,84.3,48.813V47.241a2.831,2.831,0,0,0-2.828-2.828H79.45V42.146H93.435a3.377,3.377,0,0,0,3.373-3.373l.055-35.4A3.376,3.376,0,0,0,93.49,0h-43.3a3.377,3.377,0,0,0-3.373,3.373v35.4A3.377,3.377,0,0,0,50.186,42.146Zm27.467,2.267H65.967V42.146H77.653ZM48.663,3.373A1.577,1.577,0,0,1,50.239,1.8h43.2a1.578,1.578,0,0,1,1.576,1.576V8.441H48.663Zm-.054,6.865h46.4v24.15H48.61Zm0,25.947h46.4v2.588a1.578,1.578,0,0,1-1.576,1.576H50.186a1.578,1.578,0,0,1-1.576-1.576Zm0,0" transform="translate(-41.204)"/>
      <path id="Trazado_102987-6" data-name="Trazado 102987" d="M76.083,23.309a2.306,2.306,0,1,0,2.306,2.306A2.309,2.309,0,0,0,76.083,23.309Zm0,2.815a.509.509,0,1,1,.509-.509A.509.509,0,0,1,76.083,26.123Zm0,0" transform="translate(-64.939 -20.516)"/>
      <path id="Trazado_102988-6" data-name="Trazado 102988" d="M121.454,23.309a2.306,2.306,0,1,0,2.306,2.306A2.309,2.309,0,0,0,121.454,23.309Zm0,2.815a.509.509,0,1,1,.509-.509A.509.509,0,0,1,121.454,26.123Zm0,0" transform="translate(-104.874 -20.516)"/>
      <path id="Trazado_102989-6" data-name="Trazado 102989" d="M166.825,23.309a2.306,2.306,0,1,0,2.306,2.306A2.309,2.309,0,0,0,166.825,23.309Zm0,2.815a.509.509,0,1,1,.509-.509A.509.509,0,0,1,166.825,26.123Zm0,0" transform="translate(-144.81 -20.516)"/>
      <path id="Trazado_102990-6" data-name="Trazado 102990" d="M93.076,181.056H105a1.5,1.5,0,0,0,1.5-1.5v-9.077a1.5,1.5,0,0,0-1.5-1.5H93.076a1.5,1.5,0,0,0-1.5,1.5v9.077A1.5,1.5,0,0,0,93.076,181.056Zm.3-10.275H104.7v8.478H93.375Zm0,0" transform="translate(-80.607 -148.74)"/>
    </g>
  </g>
</svg>
