<svg xmlns="http://www.w3.org/2000/svg" width="84" height="84" viewBox="0 0 84 84">
  <g id="Grupo_57542" data-name="Grupo 57542" transform="translate(-180 -1338)">
    <circle id="Elipse_1530" data-name="Elipse 1530" cx="42" cy="42" r="42" transform="translate(180 1338)" fill="#ffca28"/>
    <g id="network" transform="translate(195.686 1353.686)">
      <path id="Trazado_103020" data-name="Trazado 103020" d="M56.073,16v1.621a1.626,1.626,0,0,1-1.621,1.621H36.621A1.626,1.626,0,0,1,35,17.621V16Z" transform="translate(-6.254 -2.653)" fill="#c6c5ca"/>
      <path id="Trazado_103021" data-name="Trazado 103021" d="M56.073,4.621v8.915H35V4.621A1.626,1.626,0,0,1,36.621,3H54.452A1.626,1.626,0,0,1,56.073,4.621Z" transform="translate(-6.254 -0.19)" fill="#57a4ff"/>
      <path id="Trazado_103022" data-name="Trazado 103022" d="M51.347,24l1.621,3.242H40L41.621,24h9.726Z" transform="translate(-7.202 -4.169)" fill="#c6c5ca"/>
      <path id="Trazado_103023" data-name="Trazado 103023" d="M46,20h3.242v3.242H46Z" transform="translate(-8.339 -3.411)" fill="#898890"/>
      <path id="Trazado_103024" data-name="Trazado 103024" d="M40.073,49v1.621a1.626,1.626,0,0,1-1.621,1.621H20.621A1.626,1.626,0,0,1,19,50.621V49Z" transform="translate(-3.222 -8.907)" fill="#c6c5ca"/>
      <path id="Trazado_103025" data-name="Trazado 103025" d="M40.073,37.621v8.915H19V37.621A1.626,1.626,0,0,1,20.621,36H38.452A1.626,1.626,0,0,1,40.073,37.621Z" transform="translate(-3.222 -6.444)" fill="#00d7df"/>
      <path id="Trazado_103026" data-name="Trazado 103026" d="M35.347,57l1.621,3.242H24L25.621,57h9.726Z" transform="translate(-4.169 -10.424)" fill="#c6c5ca"/>
      <path id="Trazado_103027" data-name="Trazado 103027" d="M30,53h3.242v3.242H30Z" transform="translate(-5.307 -9.665)" fill="#898890"/>
      <path id="Trazado_103028" data-name="Trazado 103028" d="M24.073,16v1.621a1.626,1.626,0,0,1-1.621,1.621H4.621A1.626,1.626,0,0,1,3,17.621V16Z" transform="translate(-0.19 -2.653)" fill="#c6c5ca"/>
      <path id="Trazado_103029" data-name="Trazado 103029" d="M24.073,4.621v8.915H3V4.621A1.626,1.626,0,0,1,4.621,3H22.452A1.626,1.626,0,0,1,24.073,4.621Z" transform="translate(-0.19 -0.19)" fill="#57a4ff"/>
      <path id="Trazado_103030" data-name="Trazado 103030" d="M24.073,4.621v8.915H3V11.1H15.157a6.484,6.484,0,0,0,6.484-6.484V3h.81A1.626,1.626,0,0,1,24.073,4.621Z" transform="translate(-0.19 -0.19)" fill="#006df0"/>
      <path id="Trazado_103031" data-name="Trazado 103031" d="M56.073,4.621v8.915H35V11.1H47.157a6.484,6.484,0,0,0,6.484-6.484V3h.81A1.626,1.626,0,0,1,56.073,4.621Z" transform="translate(-6.254 -0.19)" fill="#006df0"/>
      <path id="Trazado_103032" data-name="Trazado 103032" d="M40.073,37.621v8.915H19V44.1H31.157a6.484,6.484,0,0,0,6.484-6.484V36h.81A1.626,1.626,0,0,1,40.073,37.621Z" transform="translate(-3.222 -6.444)" fill="#009698"/>
      <path id="Trazado_103033" data-name="Trazado 103033" d="M19.347,24l1.621,3.242H8L9.621,24h9.726Z" transform="translate(-1.137 -4.169)" fill="#c6c5ca"/>
      <path id="Trazado_103034" data-name="Trazado 103034" d="M14,20h3.242v3.242H14Z" transform="translate(-2.274 -3.411)" fill="#898890"/>
      <path id="Trazado_103035" data-name="Trazado 103035" d="M38.262,35H20.431A2.439,2.439,0,0,0,18,37.431V47.968A2.439,2.439,0,0,0,20.431,50.4h6.484V52.02H24.484a.8.8,0,0,0-.721.446l-1.621,3.242a.81.81,0,0,0,.721,1.175H35.831a.81.81,0,0,0,.721-1.175l-1.621-3.242a.8.8,0,0,0-.721-.446H31.778V50.4h6.484a2.439,2.439,0,0,0,2.431-2.431V37.431A2.439,2.439,0,0,0,38.262,35ZM33.707,53.641l.81,1.621H24.176l.81-1.621ZM28.536,52.02V50.4h1.621V52.02Zm10.536-4.052a.81.81,0,0,1-.81.81H20.431a.81.81,0,0,1-.81-.81v-.81H39.073Zm0-2.431H19.621v-8.1a.81.81,0,0,1,.81-.81H38.262a.81.81,0,0,1,.81.81Z" transform="translate(-3.032 -6.254)"/>
      <path id="Trazado_103036" data-name="Trazado 103036" d="M22.262,2H4.431A2.439,2.439,0,0,0,2,4.431V14.968A2.439,2.439,0,0,0,4.431,17.4h6.484V19.02H8.484a.8.8,0,0,0-.721.446L6.142,22.708a.81.81,0,0,0,.721,1.175H19.831a.81.81,0,0,0,.721-1.175l-1.621-3.242a.8.8,0,0,0-.721-.446H15.778V17.4h6.484a2.439,2.439,0,0,0,2.431-2.431V4.431A2.439,2.439,0,0,0,22.262,2ZM17.707,20.641l.81,1.621H8.176l.81-1.621ZM12.536,19.02V17.4h1.621V19.02Zm10.536-4.052a.81.81,0,0,1-.81.81H4.431a.81.81,0,0,1-.81-.81v-.81H23.073Zm0-2.431H3.621v-8.1a.81.81,0,0,1,.81-.81H22.262a.81.81,0,0,1,.81.81Z"/>
      <path id="Trazado_103037" data-name="Trazado 103037" d="M58.915,34.242H51.621V31H50v4.052a.81.81,0,0,0,.81.81H58.1v8.1H51.621v1.621h7.294a.81.81,0,0,0,.81-.81V35.052A.81.81,0,0,0,58.915,34.242Z" transform="translate(-9.097 -5.496)"/>
      <path id="Trazado_103038" data-name="Trazado 103038" d="M48,47h1.621v1.621H48Z" transform="translate(-8.718 -8.528)"/>
      <path id="Trazado_103039" data-name="Trazado 103039" d="M11.726,31H10.1v3.242H2.81a.81.81,0,0,0-.81.81v9.726a.81.81,0,0,0,.81.81H10.1V43.968H3.621v-8.1h7.294a.81.81,0,0,0,.81-.81Z" transform="translate(0 -5.496)"/>
      <path id="Trazado_103040" data-name="Trazado 103040" d="M14,47h1.621v1.621H14Z" transform="translate(-2.274 -8.528)"/>
      <path id="Trazado_103041" data-name="Trazado 103041" d="M31,42h1.621v1.621H31Z" transform="translate(-5.496 -7.581)"/>
      <path id="Trazado_103042" data-name="Trazado 103042" d="M35,42h1.621v1.621H35Z" transform="translate(-6.254 -7.581)"/>
      <path id="Trazado_103043" data-name="Trazado 103043" d="M27,42h1.621v1.621H27Z" transform="translate(-4.738 -7.581)"/>
      <path id="Trazado_103044" data-name="Trazado 103044" d="M54.262,2H36.431A2.439,2.439,0,0,0,34,4.431V14.968A2.439,2.439,0,0,0,36.431,17.4h6.484V19.02H40.484a.8.8,0,0,0-.721.446l-1.621,3.242a.81.81,0,0,0,.721,1.175H51.831a.81.81,0,0,0,.721-1.175l-1.621-3.242a.8.8,0,0,0-.721-.446H47.778V17.4h6.484a2.439,2.439,0,0,0,2.431-2.431V4.431A2.439,2.439,0,0,0,54.262,2ZM49.707,20.641l.81,1.621H40.176l.81-1.621ZM44.536,19.02V17.4h1.621V19.02Zm10.536-4.052a.81.81,0,0,1-.81.81H36.431a.81.81,0,0,1-.81-.81v-.81H55.073Zm0-2.431H35.621v-8.1a.81.81,0,0,1,.81-.81H54.262a.81.81,0,0,1,.81.81Z" transform="translate(-6.065)"/>
    </g>
  </g>
</svg>
