<svg xmlns="http://www.w3.org/2000/svg" width="123.673" height="123.673" viewBox="0 0 123.673 123.673">
  <g id="linux" transform="translate(0.044 0.044)">
    <circle id="Elipse_1457" data-name="Elipse 1457" cx="61.836" cy="61.836" r="61.836" transform="translate(-0.044 -0.044)" fill="#1565c0"/>
    <path id="Trazado_102837" data-name="Trazado 102837" d="M151.749,78.453l-47.811,75.085,28.831,29.055a61.843,61.843,0,0,0,69.214-53.906Z" transform="translate(-78.795 -59.461)" fill="#039be5"/>
    <path id="Trazado_102838" data-name="Trazado 102838" d="M197.494,94.939a19.986,19.986,0,0,1-6.116-18.033,14.406,14.406,0,0,0-13.8-16.6,14.411,14.411,0,0,0-14.393,17.91,19.667,19.667,0,0,1-4.6,18.365A27.443,27.443,0,0,0,151,115.41c0,16.784,6.532,24.873,15.878,27.422a22.226,22.226,0,0,1,8.739-1.573,22.78,22.78,0,0,1,8.416,1.434c11.532-2.312,17-7.928,20.819-20.9C207.9,111.44,203.177,100.04,197.494,94.939Z" transform="translate(-114.501 -45.687)" fill="#333"/>
    <path id="Trazado_102839" data-name="Trazado 102839" d="M274.874,94.941a19.986,19.986,0,0,1-6.116-18.033A14.378,14.378,0,0,0,253,60.384V141.26a20.939,20.939,0,0,1,9.4,1.895c10.91-1.7,16.129-8.752,19.838-21.356C285.283,111.441,280.557,100.042,274.874,94.941Z" transform="translate(-191.881 -45.688)"/>
    <path id="Trazado_102840" data-name="Trazado 102840" d="M176.289,188.692c0-10.943,8.767-36.284,19.582-36.284s19.582,25.469,19.582,36.284a19.582,19.582,0,1,1-39.163,0Z" transform="translate(-133.684 -115.567)" fill="#fff"/>
    <path id="Trazado_102841" data-name="Trazado 102841" d="M254.068,152.408a7.057,7.057,0,0,0-1.068.084v55.752c.354.019.709.03,1.068.03a19.582,19.582,0,0,0,19.582-19.582C273.649,177.877,264.882,152.408,254.068,152.408Z" transform="translate(-191.881 -115.567)" fill="#c0c2c1"/>
    <ellipse id="Elipse_1458" data-name="Elipse 1458" cx="3.225" cy="4.378" rx="3.225" ry="4.378" transform="translate(51.74 26.934)" fill="#e6e6e6"/>
    <ellipse id="Elipse_1459" data-name="Elipse 1459" cx="1.599" cy="2.838" rx="1.599" ry="2.838" transform="translate(53.365 29.469)" fill="#000100"/>
    <ellipse id="Elipse_1460" data-name="Elipse 1460" cx="3.225" cy="4.378" rx="3.225" ry="4.378" transform="translate(63.223 26.934)" fill="#e6e6e6"/>
    <ellipse id="Elipse_1461" data-name="Elipse 1461" cx="1.599" cy="2.838" rx="1.599" ry="2.838" transform="translate(64.849 29.469)" fill="#000100"/>
    <path id="Trazado_102842" data-name="Trazado 102842" d="M231.315,139.7c1.053,2.246-6.969,6.508-9.762,6.508-3.484,0-10.761-5.15-9.762-6.508,1.863-2.534,5.932-6.623,9.272-6.623C223.47,133.079,230.6,138.176,231.315,139.7Z" transform="translate(-160.547 -100.903)" fill="#fe9a0f"/>
    <path id="Trazado_102843" data-name="Trazado 102843" d="M262.649,139.958c-.663-1.415-6.833-5.893-9.649-6.542v13.045C255.887,146.355,263.689,142.175,262.649,139.958Z" transform="translate(-191.881 -101.158)" fill="#e2810c"/>
    <path id="Trazado_102844" data-name="Trazado 102844" d="M291.61,301.36c1.424,2.75,3.541,5.347,6.271,5.948a4.866,4.866,0,0,1,3.762,4.207q.047.427.127.856A11.118,11.118,0,0,0,304,317.262a3.534,3.534,0,0,1-2.14,5.649l-20.53,3.891a5.259,5.259,0,0,1-5.476-7.893l11.336-17.773A2.548,2.548,0,0,1,291.61,301.36Z" transform="translate(-208.632 -227.51)" fill="#dd7f10"/>
    <path id="Trazado_102845" data-name="Trazado 102845" d="M224.543,165.556c-2.917,0-5.893-1.426-8.86-4.249l1-1.049c2.958,2.815,5.863,4.1,8.63,3.811a9.447,9.447,0,0,0,6.144-3.7l1.192.823a10.821,10.821,0,0,1-7.186,4.315A8.9,8.9,0,0,1,224.543,165.556Z" transform="translate(-163.57 -121.521)" fill="#ae4e32"/>
    <path id="Trazado_102846" data-name="Trazado 102846" d="M253.622,164.424c-.206.021-.414.031-.622.035v1.449c.257,0,.514-.017.77-.043a10.821,10.821,0,0,0,7.186-4.315l-1.192-.823A9.444,9.444,0,0,1,253.622,164.424Z" transform="translate(-191.881 -121.877)" fill="#9e402b"/>
    <circle id="Elipse_1462" data-name="Elipse 1462" cx="6.577" cy="6.577" r="6.577" transform="translate(79.194 70.438)"/>
    <path id="Trazado_102847" data-name="Trazado 102847" d="M167.547,289s7.028,8.568,12.036,10.5-2.382,7.537-9.14,3.285S167.547,289,167.547,289Z" transform="translate(-126.219 -219.192)" fill="#333"/>
    <path id="Trazado_102848" data-name="Trazado 102848" d="M114.012,301.36c-1.423,2.75-3.541,5.347-6.271,5.948a4.866,4.866,0,0,0-3.762,4.207q-.047.427-.127.856a11.117,11.117,0,0,1-2.233,4.891,3.534,3.534,0,0,0,2.14,5.649l20.53,3.891a5.259,5.259,0,0,0,5.476-7.893L118.43,301.136A2.548,2.548,0,0,0,114.012,301.36Z" transform="translate(-76.461 -227.51)" fill="#fe9b0e"/>
  </g>
</svg>
