<svg xmlns="http://www.w3.org/2000/svg" width="95" height="95" viewBox="0 0 95 95">
  <g id="Grupo_57612" data-name="Grupo 57612" transform="translate(-1059 -603)">
    <circle id="Elipse_1540" data-name="Elipse 1540" cx="47.5" cy="47.5" r="47.5" transform="translate(1059 603)" fill="#fff"/>
    <g id="www" transform="translate(1075 624.5)">
      <path id="Trazado_103150" data-name="Trazado 103150" d="M60.727,34.025h5.881a3.676,3.676,0,0,0,3.676-3.676V14.176A3.676,3.676,0,0,0,66.608,10.5H13.676A3.676,3.676,0,0,0,10,14.176V30.35a3.676,3.676,0,0,0,3.676,3.676Zm0,0" transform="translate(-8.775 -8.775)" fill="#ffc66c"/>
      <path id="Trazado_103151" data-name="Trazado 103151" d="M378.094,328.737l10.181,10.181a2.929,2.929,0,0,0,4.143-4.142l-10.181-10.181Zm0,0" transform="translate(-331.767 -284.383)" fill="#ff5d5d"/>
      <path id="Trazado_103152" data-name="Trazado 103152" d="M219.411,151.2a14.7,14.7,0,1,1-14.7-14.7A14.7,14.7,0,0,1,219.411,151.2Zm0,0" transform="translate(-166.723 -119.336)" fill="#fff"/>
      <path id="Trazado_103153" data-name="Trazado 103153" d="M251.118,188.057a9.557,9.557,0,1,1-9.557-9.557A9.557,9.557,0,0,1,251.118,188.057Zm0,0" transform="translate(-203.577 -156.19)" fill="#72d8ff"/>
      <path id="Trazado_103154" data-name="Trazado 103154" d="M232.786,168.5a10.782,10.782,0,1,0,10.782,10.782A10.795,10.795,0,0,0,232.786,168.5Zm0,19.114a8.332,8.332,0,1,1,8.332-8.332A8.341,8.341,0,0,1,232.786,187.614Zm0,0" transform="translate(-194.802 -147.415)"/>
      <path id="Trazado_103155" data-name="Trazado 103155" d="M301.229,211.5a1.225,1.225,0,0,0,0,2.451,3.066,3.066,0,0,1,3.063,3.063,1.225,1.225,0,1,0,2.451,0A5.519,5.519,0,0,0,301.229,211.5Zm0,0" transform="translate(-263.245 -185.15)"/>
      <path id="Trazado_103156" data-name="Trazado 103156" d="M45.075,71.159A1.225,1.225,0,1,0,42.9,72.286l3.3,6.371a1.225,1.225,0,0,0,2.193-.033l2-4.157,2.169,4.19a1.226,1.226,0,0,0,1.088.662h.018a1.226,1.226,0,0,0,1.086-.695l3.06-6.371A1.225,1.225,0,1,0,55.6,71.192l-2,4.157-2.169-4.19a1.225,1.225,0,0,0-2.193.033l-2,4.157Zm0,0" transform="translate(-37.522 -61.42)"/>
      <path id="Trazado_103157" data-name="Trazado 103157" d="M117.214,2.951A1.225,1.225,0,0,0,118.08.859a1.225,1.225,0,1,0-1.732,1.733A1.234,1.234,0,0,0,117.214,2.951Zm0,0" transform="translate(-101.776 0)"/>
      <path id="Trazado_103158" data-name="Trazado 103158" d="M62.734,21.575V5.4a4.907,4.907,0,0,0-4.9-4.9H20.583a1.225,1.225,0,1,0,0,2.451h37.25A2.453,2.453,0,0,1,60.284,5.4V21.575a2.453,2.453,0,0,1-2.451,2.451H51.952c-.035,0-.07,0-.1.005a16.014,16.014,0,0,0-8.613-7.2l1.816-3.782,2.169,4.19a1.224,1.224,0,0,0,1.088.662h.019a1.226,1.226,0,0,0,1.086-.695l3.06-6.371a1.225,1.225,0,0,0-2.209-1.061l-2,4.157L46.1,9.739a1.225,1.225,0,0,0-2.193.033l-2,4.157L39.74,9.739a1.226,1.226,0,0,0-2.177,1.127L40.275,16.1a15.953,15.953,0,0,0-6.638.437l2.742-5.709a1.225,1.225,0,0,0-2.209-1.061l-2,4.157-2.169-4.19a1.225,1.225,0,0,0-2.193.033l-2,4.157-2.169-4.19a1.225,1.225,0,0,0-2.176,1.127l3.3,6.371a1.225,1.225,0,0,0,2.193-.033l2-4.157,2.169,4.19a1.2,1.2,0,0,0,.129.195,16.035,16.035,0,0,0-7.132,6.594H4.9a2.453,2.453,0,0,1-2.451-2.451V5.4A2.453,2.453,0,0,1,4.9,2.951H9.924A1.225,1.225,0,1,0,9.924.5H4.9A4.907,4.907,0,0,0,0,5.4V21.575a4.907,4.907,0,0,0,4.9,4.9H23a15.925,15.925,0,0,0,22.921,19.2L55.642,55.4a4.155,4.155,0,1,0,5.876-5.876L57.7,45.7a1.225,1.225,0,0,0-1.733,1.733l3.821,3.821a1.7,1.7,0,0,1-2.41,2.41l-9.4-9.4a15.914,15.914,0,0,0,5-17.79h4.86A4.907,4.907,0,0,0,62.734,21.575Zm-24.75,23.77A13.478,13.478,0,1,1,51.462,31.867,13.494,13.494,0,0,1,37.984,45.345Zm0,0" transform="translate(0 0)"/>
      <path id="Trazado_103159" data-name="Trazado 103159" d="M430.449,343.14a1.225,1.225,0,1,0,.866-.359A1.234,1.234,0,0,0,430.449,343.14Zm0,0" transform="translate(-377.392 -300.342)"/>
    </g>
  </g>
</svg>
