<svg xmlns="http://www.w3.org/2000/svg" width="123.673" height="123.673" viewBox="0 0 123.673 123.673">
  <g id="apple" transform="translate(-0.24 -0.774)">
    <circle id="Elipse_1455" data-name="Elipse 1455" cx="61.836" cy="61.836" r="61.836" transform="translate(0.24 0.774)" fill="#191919"/>
    <path id="Trazado_102827" data-name="Trazado 102827" d="M146.345,110.195l4.479,4.479a22.262,22.262,0,0,1-10.813-2.148,14.358,14.358,0,0,0-7.239-1.445c-11.127.768-19.213,14.92-18.061,31.61a36.875,36.875,0,0,0,9.567,22.519l-.008.008,28.52,28.52a62.043,62.043,0,0,0,57.776-55.465l-46.15-46.151a18.642,18.642,0,0,0-18.07,18.071Z" transform="translate(-86.746 -69.645)" fill="#4a4c4d"/>
    <g id="Grupo_57420" data-name="Grupo 57420" transform="translate(27.856 22.479)">
      <path id="Trazado_102828" data-name="Trazado 102828" d="M169.974,192.713a17.758,17.758,0,0,1,8.547-15.05c-3.155-4.329-7.331-7.08-12.06-7.406a14.363,14.363,0,0,0-7.244,1.447,22.248,22.248,0,0,1-19.206,0,14.358,14.358,0,0,0-7.239-1.445c-11.127.768-19.213,14.92-18.061,31.61s13.152,29.456,22.232,28.83a10.833,10.833,0,0,0,3.642-.947,22.254,22.254,0,0,1,18.062,0,10.822,10.822,0,0,0,3.644.947c7.584.523,17.2-8.3,20.837-20.949A17.835,17.835,0,0,1,169.974,192.713Z" transform="translate(-114.601 -151.3)" fill="#fff"/>
      <path id="Trazado_102829" data-name="Trazado 102829" d="M251.052,97.576a18.59,18.59,0,0,0-5.452,12.619,18.642,18.642,0,0,0,18.071-18.071A18.591,18.591,0,0,0,251.052,97.576Z" transform="translate(-213.857 -92.124)" fill="#fff"/>
    </g>
  </g>
</svg>
