<svg xmlns="http://www.w3.org/2000/svg" width="84" height="84" viewBox="0 0 84 84">
  <g id="Grupo_57541" data-name="Grupo 57541" transform="translate(-804 -1338)">
    <circle id="Elipse_1531" data-name="Elipse 1531" cx="42" cy="42" r="42" transform="translate(804 1338)" fill="#ffca28"/>
    <g id="ordenador" transform="translate(823 1357)">
      <path id="Trazado_102940" data-name="Trazado 102940" d="M414.984,449.116H407a.456.456,0,0,1-.457-.457v-2.667a2.441,2.441,0,0,1,2.441-2.441H413a2.441,2.441,0,0,1,2.441,2.441v2.667A.456.456,0,0,1,414.984,449.116Zm0,0" transform="translate(-369.422 -403.054)" fill="#e7e7e7"/>
      <path id="Trazado_102941" data-name="Trazado 102941" d="M460.116,445.991v2.668a.457.457,0,0,1-.457.457h-1.516v-3.124a2.441,2.441,0,0,0-2.44-2.441h1.972A2.44,2.44,0,0,1,460.116,445.991Zm0,0" transform="translate(-414.097 -403.054)" fill="#cecece"/>
      <g id="Grupo_57463" data-name="Grupo 57463" transform="translate(2.276 40.822)">
        <path id="Trazado_102942" data-name="Trazado 102942" d="M28,449.03H24.93v-1.078a.842.842,0,0,1,.842-.842h1.387a.842.842,0,0,1,.842.842v1.078Zm0,0" transform="translate(-24.93 -447.109)" fill="#9ae7fd"/>
        <path id="Trazado_102943" data-name="Trazado 102943" d="M68.3,449.03H58.973v-1.078a.842.842,0,0,1,.842-.842h7.64a.842.842,0,0,1,.842.842Zm0,0" transform="translate(-55.864 -447.109)" fill="#9ae7fd"/>
        <path id="Trazado_102944" data-name="Trazado 102944" d="M164.169,449.03H161.1v-1.078a.842.842,0,0,1,.842-.842h1.387a.842.842,0,0,1,.842.842Zm0,0" transform="translate(-148.665 -447.109)" fill="#9ae7fd"/>
        <path id="Trazado_102945" data-name="Trazado 102945" d="M198.212,449.03h-3.071v-1.078a.842.842,0,0,1,.842-.842h1.387a.842.842,0,0,1,.842.842Zm0,0" transform="translate(-179.6 -447.109)" fill="#9ae7fd"/>
        <path id="Trazado_102946" data-name="Trazado 102946" d="M266.3,449.03h-3.071v-1.078a.842.842,0,0,1,.842-.842h1.387a.842.842,0,0,1,.842.842Zm0,0" transform="translate(-241.47 -447.109)" fill="#9ae7fd"/>
        <path id="Trazado_102947" data-name="Trazado 102947" d="M300.341,449.03H297.27v-1.078a.842.842,0,0,1,.842-.842H299.5a.842.842,0,0,1,.842.842Zm0,0" transform="translate(-272.405 -447.109)" fill="#9ae7fd"/>
        <path id="Trazado_102948" data-name="Trazado 102948" d="M334.384,449.03h-3.071v-1.078a.842.842,0,0,1,.842-.842h1.387a.842.842,0,0,1,.842.842Zm0,0" transform="translate(-303.339 -447.109)" fill="#9ae7fd"/>
      </g>
      <path id="Trazado_102949" data-name="Trazado 102949" d="M41.27,471.46H7.957A.456.456,0,0,1,7.5,471V468.6a.456.456,0,0,1,.457-.456H41.27a.457.457,0,0,1,.457.456V471A.457.457,0,0,1,41.27,471.46Zm0,0" transform="translate(-6.815 -425.399)" fill="#bfbfbf"/>
      <path id="Trazado_102950" data-name="Trazado 102950" d="M361.885,471.46h-1.557v-3.32h1.557a.457.457,0,0,1,.456.456V471A.457.457,0,0,1,361.885,471.46Zm0,0" transform="translate(-327.43 -425.399)" fill="#acacac"/>
      <path id="Trazado_102951" data-name="Trazado 102951" d="M54.762,78.328H91.453V98.062H54.762Zm0,0" transform="translate(-49.762 -71.177)" fill="#9ae7fd"/>
      <path id="Trazado_102952" data-name="Trazado 102952" d="M414.939,9.389V36.368a1.886,1.886,0,0,1-1.886,1.886h-2.3a1.886,1.886,0,0,0,1.886-1.886V9.389A1.886,1.886,0,0,0,410.75,7.5h2.3A1.886,1.886,0,0,1,414.939,9.389Zm0,0" transform="translate(-373.248 -6.819)" fill="#64dcfc"/>
      <path id="Trazado_102953" data-name="Trazado 102953" d="M91.044,294.539H54.313V297.2a1.886,1.886,0,0,0,1.886,1.886h32.96a1.886,1.886,0,0,0,1.886-1.886v-2.658Zm0,0" transform="translate(-49.354 -267.647)" fill="#bfbfbf"/>
      <path id="Trazado_102954" data-name="Trazado 102954" d="M414.939,294.539V297.2a1.886,1.886,0,0,1-1.886,1.886h-2.3a1.886,1.886,0,0,0,1.886-1.886v-2.657Zm0,0" transform="translate(-373.248 -267.647)" fill="#acacac"/>
      <path id="Trazado_102955" data-name="Trazado 102955" d="M91.495,13.933H54.762V9.386A1.885,1.885,0,0,1,56.647,7.5H89.609a1.886,1.886,0,0,1,1.886,1.886Zm0,0" transform="translate(-49.762 -6.815)" fill="#bfbfbf"/>
      <path id="Trazado_102956" data-name="Trazado 102956" d="M414.981,9.389v4.548h-2.346V9.389A1.885,1.885,0,0,0,410.75,7.5H413.1A1.885,1.885,0,0,1,414.981,9.389Zm0,0" transform="translate(-373.248 -6.819)" fill="#acacac"/>
      <path id="Trazado_102957" data-name="Trazado 102957" d="M199.2,344.3h10.275v3.1H199.2Zm0,0" transform="translate(-181.012 -312.866)" fill="#838383"/>
      <path id="Trazado_102958" data-name="Trazado 102958" d="M292.832,344.8h1.727v3.005h-1.727Zm0,0" transform="translate(-266.096 -313.324)" fill="#5a5a5a"/>
      <path id="Trazado_102959" data-name="Trazado 102959" d="M175.988,381.264H159.053a.37.37,0,0,1-.369-.369v-1.2a1.471,1.471,0,0,1,1.47-1.471h14.733a1.471,1.471,0,0,1,1.47,1.471v1.2A.369.369,0,0,1,175.988,381.264Zm0,0" transform="translate(-144.196 -343.694)" fill="#bfbfbf"/>
      <path id="Trazado_102960" data-name="Trazado 102960" d="M320.961,379.7v1.2a.37.37,0,0,1-.369.369h-1.3V379.7a1.471,1.471,0,0,0-1.47-1.47h1.674A1.47,1.47,0,0,1,320.961,379.7Zm0,0" transform="translate(-288.799 -343.694)" fill="#acacac"/>
      <path id="Trazado_102961" data-name="Trazado 102961" d="M83.423,31.881a1.073,1.073,0,1,1-1.073-1.073A1.073,1.073,0,0,1,83.423,31.881Zm0,0" transform="translate(-73.857 -27.996)" fill="#ff5757"/>
      <path id="Trazado_102962" data-name="Trazado 102962" d="M128.794,31.881a1.073,1.073,0,1,1-1.073-1.073A1.073,1.073,0,0,1,128.794,31.881Zm0,0" transform="translate(-115.085 -27.996)" fill="#ffcd6b"/>
      <path id="Trazado_102963" data-name="Trazado 102963" d="M174.165,31.881a1.073,1.073,0,1,1-1.073-1.073A1.073,1.073,0,0,1,174.165,31.881Zm0,0" transform="translate(-156.314 -27.996)" fill="#00d3b4"/>
      <path id="Trazado_102964" data-name="Trazado 102964" d="M86.734,31.885a1.072,1.072,0,0,1-1.812.775,1.072,1.072,0,0,0,.715-1.847h.025A1.072,1.072,0,0,1,86.734,31.885Zm0,0" transform="translate(-77.168 -27.999)" fill="#ff4343"/>
      <path id="Trazado_102965" data-name="Trazado 102965" d="M132.1,31.885a1.072,1.072,0,0,1-1.812.775A1.072,1.072,0,0,0,131,30.813h.024A1.072,1.072,0,0,1,132.1,31.885Zm0,0" transform="translate(-118.394 -27.999)" fill="#ffc143"/>
      <path id="Trazado_102966" data-name="Trazado 102966" d="M177.477,31.885a1.072,1.072,0,0,1-1.812.775,1.072,1.072,0,0,0,.715-1.847h.025A1.072,1.072,0,0,1,177.477,31.885Zm0,0" transform="translate(-159.626 -27.999)" fill="#00b7a0"/>
      <path id="Trazado_102967" data-name="Trazado 102967" d="M108.624,184.315h-9.09a.456.456,0,0,1-.457-.457v-6.917a.456.456,0,0,1,.457-.457h9.09a.456.456,0,0,1,.456.457v6.917A.456.456,0,0,1,108.624,184.315Zm0,0" transform="translate(-90.032 -160.371)" fill="#ffb509"/>
      <path id="Trazado_102968" data-name="Trazado 102968" d="M190.044,176.941v6.918a.457.457,0,0,1-.456.457h-1.411a.457.457,0,0,0,.456-.457v-6.918a.457.457,0,0,0-.456-.457h1.411A.456.456,0,0,1,190.044,176.941Zm0,0" transform="translate(-170.995 -160.371)" fill="#fa0"/>
      <path id="Trazado_102969" data-name="Trazado 102969" d="M94.353,110.065h4.5a.685.685,0,1,0,0-1.37h-4.5a.685.685,0,1,0,0,1.37Zm0,0" transform="translate(-85.116 -98.771)"/>
      <path id="Trazado_102970" data-name="Trazado 102970" d="M170.54,110.065h7.915a.685.685,0,1,0,0-1.37H170.54a.685.685,0,0,0,0,1.37Zm0,0" transform="translate(-154.347 -98.771)"/>
      <path id="Trazado_102971" data-name="Trazado 102971" d="M94.353,138.678H96.27a.685.685,0,1,0,0-1.37H94.353a.685.685,0,1,0,0,1.37Zm0,0" transform="translate(-85.116 -124.772)"/>
      <path id="Trazado_102972" data-name="Trazado 102972" d="M232.307,137.993a.685.685,0,0,0-.685-.685h-1.168a.685.685,0,1,0,0,1.37h1.168A.685.685,0,0,0,232.307,137.993Zm0,0" transform="translate(-208.791 -124.772)"/>
      <path id="Trazado_102973" data-name="Trazado 102973" d="M141.04,137.309a.685.685,0,1,0,0,1.37h5.736a.685.685,0,1,0,0-1.37Zm0,0" transform="translate(-127.541 -124.772)"/>
      <path id="Trazado_102974" data-name="Trazado 102974" d="M265.773,137.993a.685.685,0,0,0,.685.685h2.188a.685.685,0,1,0,0-1.37h-2.188A.685.685,0,0,0,265.773,137.993Zm0,0" transform="translate(-241.508 -124.772)"/>
      <path id="Trazado_102975" data-name="Trazado 102975" d="M243.157,176.734H241.2a.685.685,0,0,0,0,1.37h1.957a.685.685,0,1,0,0-1.37Zm0,0" transform="translate(-218.556 -160.598)"/>
      <path id="Trazado_102976" data-name="Trazado 102976" d="M295.953,177.419a.684.684,0,0,0,.685.685h3.157a.685.685,0,0,0,0-1.37h-3.157A.685.685,0,0,0,295.953,177.419Zm0,0" transform="translate(-268.932 -160.598)"/>
      <path id="Trazado_102977" data-name="Trazado 102977" d="M360.935,178.1H365a.685.685,0,0,0,0-1.37h-4.07a.685.685,0,0,0,0,1.37Zm0,0" transform="translate(-327.359 -160.598)"/>
      <path id="Trazado_102978" data-name="Trazado 102978" d="M240.516,212.552a.684.684,0,0,0,.685.685h5.062a.685.685,0,0,0,0-1.37H241.2A.685.685,0,0,0,240.516,212.552Zm0,0" transform="translate(-218.556 -192.523)"/>
      <path id="Trazado_102979" data-name="Trazado 102979" d="M330.531,212.552a.684.684,0,0,0,.685.685h1.239a.685.685,0,0,0,0-1.37h-1.239A.685.685,0,0,0,330.531,212.552Zm0,0" transform="translate(-300.353 -192.523)"/>
      <path id="Trazado_102980" data-name="Trazado 102980" d="M380.847,211.867h-2.478a.685.685,0,0,0,0,1.37h2.478a.685.685,0,1,0,0-1.37Zm0,0" transform="translate(-343.201 -192.523)"/>
      <path id="Trazado_102981" data-name="Trazado 102981" d="M243.157,247H241.2a.685.685,0,1,0,0,1.37h1.957a.685.685,0,1,0,0-1.37Zm0,0" transform="translate(-218.556 -224.449)"/>
      <path id="Trazado_102982" data-name="Trazado 102982" d="M302.508,247h-5.87a.685.685,0,1,0,0,1.37h5.87a.685.685,0,1,0,0-1.37Zm0,0" transform="translate(-268.932 -224.449)"/>
      <path id="Trazado_102983" data-name="Trazado 102983" d="M393.178,247h-1.239a.685.685,0,1,0,0,1.37h1.239a.685.685,0,1,0,0-1.37Zm0,0" transform="translate(-355.532 -224.449)"/>
      <path id="Trazado_102984" data-name="Trazado 102984" d="M34.455,441.53h-.45v-.393a1.529,1.529,0,0,0-1.527-1.527H31.091a1.518,1.518,0,0,0-.861.267,1.519,1.519,0,0,0-.861-.267H27.983a1.517,1.517,0,0,0-.861.267,1.519,1.519,0,0,0-.861-.267H24.875a1.529,1.529,0,0,0-1.527,1.527v.393H21.572v-.393a1.529,1.529,0,0,0-1.527-1.527H18.659a1.518,1.518,0,0,0-.861.267,1.519,1.519,0,0,0-.861-.267H15.55a1.517,1.517,0,0,0-.842.255,1.518,1.518,0,0,0-.842-.255H6.226a1.519,1.519,0,0,0-.861.267,1.517,1.517,0,0,0-.861-.267H3.118a1.529,1.529,0,0,0-1.527,1.527v.393h-.45A1.142,1.142,0,0,0,0,442.671v2.407a1.142,1.142,0,0,0,1.141,1.141H6.575a.685.685,0,0,0,0-1.37H1.37V442.9H34.227v1.95H9.68a.685.685,0,0,0,0,1.37H34.455a1.142,1.142,0,0,0,1.141-1.141v-2.407A1.143,1.143,0,0,0,34.455,441.53Zm-29.793,0h-1.7v-.393a.157.157,0,0,1,.157-.158H4.5a.158.158,0,0,1,.158.158Zm9.361,0H6.069v-.393a.157.157,0,0,1,.157-.158h7.64a.158.158,0,0,1,.158.158v.393Zm3.071,0h-1.7v-.393a.158.158,0,0,1,.157-.158h1.387a.158.158,0,0,1,.157.158Zm3.108,0H18.5v-.393a.158.158,0,0,1,.157-.158h1.387a.158.158,0,0,1,.157.158Zm6.216,0h-1.7v-.393a.158.158,0,0,1,.157-.158h1.387a.158.158,0,0,1,.157.158Zm3.108,0h-1.7v-.393a.158.158,0,0,1,.157-.158H29.37a.158.158,0,0,1,.157.158Zm3.108,0h-1.7v-.393a.158.158,0,0,1,.157-.158h1.387a.158.158,0,0,1,.158.158Zm0,0" transform="translate(0 -399.473)"/>
      <path id="Trazado_102985" data-name="Trazado 102985" d="M406.184,436.051h-4.019a3.129,3.129,0,0,0-3.126,3.125v2.668a1.143,1.143,0,0,0,1.141,1.141h7.988a1.142,1.142,0,0,0,1.141-1.141v-2.668A3.129,3.129,0,0,0,406.184,436.051Zm1.756,5.565h-7.532v-2.439a1.758,1.758,0,0,1,1.756-1.756h4.019a1.758,1.758,0,0,1,1.756,1.756Zm0,0" transform="translate(-362.606 -396.239)"/>
      <path id="Trazado_102986" data-name="Trazado 102986" d="M49.383,32.12H60.041v1.728H58.5A2.158,2.158,0,0,0,56.342,36v1.2A1.055,1.055,0,0,0,57.4,38.255H67.419a.685.685,0,1,0,0-1.37H57.711V36a.787.787,0,0,1,.786-.786H73.229a.787.787,0,0,1,.786.786v.883h-3.4a.685.685,0,0,0,0,1.37h3.716A1.055,1.055,0,0,0,75.385,37.2V36a2.158,2.158,0,0,0-2.156-2.155H71.686V32.12H82.344a2.574,2.574,0,0,0,2.571-2.57L84.956,2.57A2.573,2.573,0,0,0,82.386,0h-33a2.573,2.573,0,0,0-2.571,2.57V29.549A2.573,2.573,0,0,0,49.383,32.12Zm20.933,1.728H61.41V32.12h8.906ZM48.223,2.57a1.2,1.2,0,0,1,1.2-1.2h32.92a1.2,1.2,0,0,1,1.2,1.2V6.433H48.223ZM48.182,7.8H83.545v18.4H48.182Zm0,19.774H83.545v1.973a1.2,1.2,0,0,1-1.2,1.2H49.383a1.2,1.2,0,0,1-1.2-1.2Zm0,0" transform="translate(-42.538)"/>
      <path id="Trazado_102987" data-name="Trazado 102987" d="M75.535,23.309a1.757,1.757,0,1,0,1.758,1.758A1.759,1.759,0,0,0,75.535,23.309Zm0,2.145a.388.388,0,1,1,.388-.388A.388.388,0,0,1,75.535,25.454Zm0,0" transform="translate(-67.041 -21.18)"/>
      <path id="Trazado_102988" data-name="Trazado 102988" d="M120.906,23.309a1.757,1.757,0,1,0,1.758,1.758A1.759,1.759,0,0,0,120.906,23.309Zm0,2.145a.388.388,0,1,1,.388-.388A.388.388,0,0,1,120.906,25.454Zm0,0" transform="translate(-108.27 -21.18)"/>
      <path id="Trazado_102989" data-name="Trazado 102989" d="M166.277,23.309a1.757,1.757,0,1,0,1.758,1.758A1.759,1.759,0,0,0,166.277,23.309Zm0,2.145a.388.388,0,1,1,.388-.388A.388.388,0,0,1,166.277,25.454Zm0,0" transform="translate(-149.499 -21.18)"/>
      <path id="Trazado_102990" data-name="Trazado 102990" d="M92.719,178.184h9.09a1.143,1.143,0,0,0,1.141-1.141v-6.917a1.143,1.143,0,0,0-1.141-1.141h-9.09a1.142,1.142,0,0,0-1.141,1.141v6.917A1.143,1.143,0,0,0,92.719,178.184Zm.228-7.83h8.633v6.461H92.948Zm0,0" transform="translate(-83.217 -153.556)"/>
    </g>
  </g>
</svg>
