<svg id="responsive-design" xmlns="http://www.w3.org/2000/svg" width="107.168" height="83.679" viewBox="0 0 107.168 83.679">
  <path id="Trazado_103081" data-name="Trazado 103081" d="M192.375,327.641h16.778v13.422H192.375Zm0,0" transform="translate(-152.109 -259.061)" fill="#95a8b8"/>
  <path id="Trazado_103082" data-name="Trazado 103082" d="M192.375,327.641h16.778V331H192.375Zm0,0" transform="translate(-152.109 -259.061)" fill="#5b788c"/>
  <path id="Trazado_103083" data-name="Trazado 103083" d="M100.293,74.126H9.693a1.678,1.678,0,0,1-1.678-1.678V8.693A1.678,1.678,0,0,1,9.693,7.016h90.6a1.677,1.677,0,0,1,1.678,1.678V72.449A1.678,1.678,0,0,1,100.293,74.126Zm0,0" transform="translate(-6.338 -5.547)" fill="#8ae0ff"/>
  <path id="Trazado_103084" data-name="Trazado 103084" d="M13.049,7.016V74.126H9.693a1.677,1.677,0,0,1-1.678-1.678V8.693A1.677,1.677,0,0,1,9.693,7.016Zm0,0" transform="translate(-6.338 -5.547)" fill="#2ac3f2"/>
  <path id="Trazado_103085" data-name="Trazado 103085" d="M101.971,279.547v8.389a1.677,1.677,0,0,1-1.678,1.678H9.693a1.677,1.677,0,0,1-1.678-1.678v-8.389Zm0,0" transform="translate(-6.338 -221.034)" fill="#95a8b8"/>
  <path id="Trazado_103086" data-name="Trazado 103086" d="M13.049,279.547v10.067H9.693a1.677,1.677,0,0,1-1.678-1.678v-8.389Zm0,0" transform="translate(-6.338 -221.034)" fill="#5b788c"/>
  <path id="Trazado_103087" data-name="Trazado 103087" d="M334.794,188.581H306.272a1.678,1.678,0,0,1-1.678-1.678V144.959a1.678,1.678,0,0,1,1.678-1.678h28.522a1.677,1.677,0,0,1,1.678,1.678V186.9A1.678,1.678,0,0,1,334.794,188.581Zm0,0" transform="translate(-240.838 -113.291)" fill="#8ae0ff"/>
  <path id="Trazado_103088" data-name="Trazado 103088" d="M309.627,143.281v45.3h-3.356a1.678,1.678,0,0,1-1.678-1.678V144.959a1.678,1.678,0,0,1,1.678-1.678Zm0,0" transform="translate(-240.838 -113.291)" fill="#2ac3f2"/>
  <path id="Trazado_103089" data-name="Trazado 103089" d="M336.471,327.641v5.033a1.677,1.677,0,0,1-1.678,1.678H306.272a1.678,1.678,0,0,1-1.678-1.678v-5.033Zm0,0" transform="translate(-240.838 -259.061)" fill="#95a8b8"/>
  <path id="Trazado_103090" data-name="Trazado 103090" d="M309.627,327.641v6.711h-3.356a1.678,1.678,0,0,1-1.678-1.678v-5.033Zm0,0" transform="translate(-240.838 -259.061)" fill="#5b788c"/>
  <path id="Trazado_103091" data-name="Trazado 103091" d="M427.252,148.13H410.475a1.678,1.678,0,0,1-1.678-1.678V112.9a1.678,1.678,0,0,1,1.678-1.678h16.778a1.677,1.677,0,0,1,1.678,1.678v33.555A1.678,1.678,0,0,1,427.252,148.13Zm0,0" transform="translate(-323.231 -87.939)" fill="#8ae0ff"/>
  <path id="Trazado_103092" data-name="Trazado 103092" d="M413.83,111.219V148.13h-3.356a1.678,1.678,0,0,1-1.678-1.678V112.9a1.678,1.678,0,0,1,1.678-1.678Zm0,0" transform="translate(-323.231 -87.939)" fill="#2ac3f2"/>
  <path id="Trazado_103093" data-name="Trazado 103093" d="M428.93,255.5v5.033a1.677,1.677,0,0,1-1.678,1.678H410.475a1.678,1.678,0,0,1-1.678-1.678V255.5Zm0,0" transform="translate(-323.231 -202.021)" fill="#95a8b8"/>
  <path id="Trazado_103094" data-name="Trazado 103094" d="M413.83,255.5v6.711h-3.356a1.678,1.678,0,0,1-1.678-1.678V255.5Zm0,0" transform="translate(-323.231 -202.021)" fill="#5b788c"/>
  <path id="Trazado_103095" data-name="Trazado 103095" d="M408.8,117.93V112.9a1.678,1.678,0,0,1,1.678-1.678h16.778a1.677,1.677,0,0,1,1.678,1.678v5.033Zm0,0" transform="translate(-323.231 -87.939)" fill="#95a8b8"/>
  <path id="Trazado_103096" data-name="Trazado 103096" d="M413.83,111.219v6.711H408.8V112.9a1.678,1.678,0,0,1,1.678-1.678Zm0,0" transform="translate(-323.231 -87.939)" fill="#5b788c"/>
  <g id="Grupo_57524" data-name="Grupo 57524" transform="translate(40.266 50.228)">
    <path id="Trazado_103097" data-name="Trazado 103097" d="M192.375,239.969h3.356v3.145h-3.356Zm0,0" transform="translate(-192.375 -239.969)" fill="#fff"/>
    <path id="Trazado_103098" data-name="Trazado 103098" d="M224.438,239.969h3.356v3.145h-3.356Zm0,0" transform="translate(-217.726 -239.969)" fill="#fff"/>
    <path id="Trazado_103099" data-name="Trazado 103099" d="M256.5,239.969h3.356v3.145H256.5Zm0,0" transform="translate(-243.078 -239.969)" fill="#fff"/>
  </g>
  <path id="Trazado_103100" data-name="Trazado 103100" d="M104.022,21.811H87.244a3.258,3.258,0,0,0-3.356,3.146v3.565H65.433a3.258,3.258,0,0,0-3.356,3.146V67.111H3.356a.371.371,0,0,1-.209-.209V60.19H58.722V57.044H3.146V3.146c0-.058.151,0,.209,0h90.6c.058,0,0-.058,0,0v15.1H97.1V3.146A3.078,3.078,0,0,0,93.955,0H3.356A3.258,3.258,0,0,0,0,3.146V66.9a3.437,3.437,0,0,0,3.356,3.356H38.589V80.533H31.878v3.146H65.433V80.533h-6.92V70.257h3.565v3.356a3.437,3.437,0,0,0,3.356,3.356H93.955A3.258,3.258,0,0,0,97.1,73.613V61.868h6.92a3.258,3.258,0,0,0,3.146-3.356V24.957A3.078,3.078,0,0,0,104.022,21.811ZM55.366,80.533H41.735V70.257H55.366ZM87.244,24.957h16.778c.058,0,0-.058,0,0v3.565H87.035V24.957C87.035,24.9,87.187,24.957,87.244,24.957Zm-.209,6.711h16.987V52.011H87.035Zm6.92,42.154H65.433a.374.374,0,0,1-.209-.209V70.257H93.955v3.356C93.955,73.671,94.013,73.822,93.955,73.822Zm0-6.711H65.224V31.668c0-.058.152,0,.209,0H83.888V58.513a3.437,3.437,0,0,0,3.356,3.356h6.711Zm10.067-8.389H87.244a.374.374,0,0,1-.209-.209V55.157h16.987v3.356C104.022,58.571,104.08,58.722,104.022,58.722Zm0,0"/>
  <path id="Trazado_103101" data-name="Trazado 103101" d="M35.209,40.242V35.209h5.243V32.063H32.063v8.18Zm0,0" transform="translate(-25.351 -25.351)"/>
  <path id="Trazado_103102" data-name="Trazado 103102" d="M320.625,166.814h3.146v-3.356h3.565v-3.146h-6.711Zm0,0" transform="translate(-253.514 -126.757)"/>
  <path id="Trazado_103103" data-name="Trazado 103103" d="M424.828,160.313v6.5h3.146v-3.356h3.565v-3.146Zm0,0" transform="translate(-335.906 -126.757)"/>
</svg>
