<svg xmlns="http://www.w3.org/2000/svg" width="92.636" height="60.717" viewBox="0 0 92.636 60.717">
  <g id="flechas" transform="translate(0 -88.207)">
    <g id="Grupo_57473" data-name="Grupo 57473" transform="translate(1.809 90.015)">
      <g id="Grupo_57472" data-name="Grupo 57472">
        <g id="Grupo_57471" data-name="Grupo 57471">
          <g id="Grupo_57470" data-name="Grupo 57470">
            <g id="Grupo_57466" data-name="Grupo 57466" transform="translate(50.847 21.311)">
              <g id="Grupo_57465" data-name="Grupo 57465">
                <g id="Grupo_57464" data-name="Grupo 57464">
                  <path id="Trazado_102991" data-name="Trazado 102991" d="M291.03,240.013v8.864a2.84,2.84,0,0,0,4.587,2.288L328.1,225.516a2.929,2.929,0,0,0,0-4.577l-6.269-4.95" transform="translate(-291.03 -215.989)" fill="#ffa726"/>
                </g>
              </g>
            </g>
            <g id="Grupo_57469" data-name="Grupo 57469">
              <g id="Grupo_57468" data-name="Grupo 57468">
                <g id="Grupo_57467" data-name="Grupo 57467">
                  <path id="Trazado_102992" data-name="Trazado 102992" d="M91.647,119.513l-26.214-20.7a2.84,2.84,0,0,0-4.587,2.288v13.637H10v24.024H60.847v4.773" transform="translate(-10 -98.202)" fill="#ffca28"/>
                </g>
              </g>
            </g>
          </g>
        </g>
      </g>
    </g>
    <g id="Grupo_57478" data-name="Grupo 57478" transform="translate(0 88.207)">
      <path id="Trazado_102993" data-name="Trazado 102993" d="M90.847,114.857,58.364,89.208a4.585,4.585,0,0,0-4.874-.535,4.674,4.674,0,0,0-2.643,4.244v11.828H1.809A1.809,1.809,0,0,0,0,106.554v24.024a1.809,1.809,0,0,0,1.809,1.809H50.847v11.828a4.673,4.673,0,0,0,2.643,4.243,4.583,4.583,0,0,0,4.874-.535l32.483-25.649a4.738,4.738,0,0,0,0-7.417ZM88.6,119.434,56.121,145.083a.957.957,0,0,1-1.054.119,1.056,1.056,0,0,1-.6-.987V136.2l7.343-5.529a1.809,1.809,0,1,0-2.177-2.891l-5.166,3.89v-1.089a1.809,1.809,0,0,0-1.809-1.809H3.619v-20.4H52.656a1.809,1.809,0,0,0,1.809-1.809V92.917a1.056,1.056,0,0,1,.6-.987.956.956,0,0,1,1.054.119L81,111.689l-8.3,6.248a1.809,1.809,0,1,0,2.177,2.891l9.057-6.82L88.6,117.7a1.119,1.119,0,0,1,0,1.737Z" transform="translate(0 -88.207)"/>
      <g id="Grupo_57477" data-name="Grupo 57477" transform="translate(65.503 34.249)">
        <g id="Grupo_57476" data-name="Grupo 57476">
          <g id="Grupo_57475" data-name="Grupo 57475">
            <g id="Grupo_57474" data-name="Grupo 57474">
              <path id="Trazado_102994" data-name="Trazado 102994" d="M363.841,281.113a1.809,1.809,0,1,1,1.773-1.455A1.825,1.825,0,0,1,363.841,281.113Z" transform="translate(-362.035 -277.5)"/>
            </g>
          </g>
        </g>
      </g>
    </g>
  </g>
</svg>
