<svg xmlns="http://www.w3.org/2000/svg" width="84" height="84" viewBox="0 0 84 84">
  <g id="Grupo_57543" data-name="Grupo 57543" transform="translate(-180 -1616)">
    <circle id="Elipse_1532" data-name="Elipse 1532" cx="42" cy="42" r="42" transform="translate(180 1616)" fill="#ffca28"/>
    <g id="servidor" transform="translate(197.245 1636)">
      <path id="Trazado_102855" data-name="Trazado 102855" d="M274.639,415.238v3.486a.427.427,0,0,1-.427.427H258.781a.427.427,0,0,1-.427-.427v-3.486H256v7.625h20.566a.427.427,0,0,0,.427-.427v-7.2Z" transform="translate(-231.611 -379.766)" fill="#b6c4cf"/>
      <path id="Trazado_102856" data-name="Trazado 102856" d="M258.781,419.151a.427.427,0,0,1-.427-.427v-3.486H256v7.625h3.951v-3.712Z" transform="translate(-231.611 -379.766)" fill="#9facba"/>
      <path id="Trazado_102857" data-name="Trazado 102857" d="M276.139,7.5H256V42.331h2.353V39.978h16.286v2.353h2.353V8.354A.854.854,0,0,0,276.139,7.5Z" transform="translate(-231.612 -6.859)" fill="#596c76"/>
      <path id="Trazado_102858" data-name="Trazado 102858" d="M258.353,10.281a.427.427,0,0,1,.427-.427h1.171V7.5H256V42.331h2.353Z" transform="translate(-231.611 -6.859)" fill="#465a61"/>
      <g id="Grupo_57424" data-name="Grupo 57424" transform="translate(26.742 8.201)">
        <path id="Trazado_102859" data-name="Trazado 102859" d="M283.55,96h16.286v24.917H283.55Z" transform="translate(-283.55 -96)" fill="#b6c4cf"/>
      </g>
      <g id="Grupo_57425" data-name="Grupo 57425" transform="translate(26.742 9.261)">
        <path id="Trazado_102860" data-name="Trazado 102860" d="M283.55,108.411h3.968v12.926H283.55Z" transform="translate(-283.55 -108.411)" fill="#9facba"/>
      </g>
      <path id="Trazado_102861" data-name="Trazado 102861" d="M321.344,172.635v-7.708a.427.427,0,0,0-.427-.427h-11a.427.427,0,0,0-.427.427v7.708Z" transform="translate(-280.532 -150.448)" fill="#596c76"/>
      <path id="Trazado_102862" data-name="Trazado 102862" d="M312.116,172.635v-7.708a.427.427,0,0,1,.427-.427h-2.626a.427.427,0,0,0-.427.427v7.708Z" transform="translate(-280.532 -150.448)" fill="#465a61"/>
      <g id="Grupo_57428" data-name="Grupo 57428" transform="translate(26.742 28.721)">
        <g id="Grupo_57426" data-name="Grupo 57426" transform="translate(0 0)">
          <path id="Trazado_102863" data-name="Trazado 102863" d="M283.55,336.21h16.286v4.4H283.55Z" transform="translate(-283.55 -336.21)" fill="#7a8c98"/>
        </g>
        <g id="Grupo_57427" data-name="Grupo 57427">
          <path id="Trazado_102864" data-name="Trazado 102864" d="M283.55,336.209h3.968v4.4H283.55Z" transform="translate(-283.55 -336.209)" fill="#596c76"/>
        </g>
      </g>
      <g id="Grupo_57431" data-name="Grupo 57431" transform="translate(26.742 33.118)">
        <g id="Grupo_57429" data-name="Grupo 57429">
          <path id="Trazado_102865" data-name="Trazado 102865" d="M283.55,387.688v5.84a.427.427,0,0,0,.427.427h15.432a.427.427,0,0,0,.427-.427v-5.84Z" transform="translate(-283.55 -387.688)" fill="#b6c4cf"/>
        </g>
        <g id="Grupo_57430" data-name="Grupo 57430" transform="translate(0 0)">
          <path id="Trazado_102866" data-name="Trazado 102866" d="M287.518,393.529v-5.84H283.55v5.84a.427.427,0,0,0,.427.427h3.968A.427.427,0,0,1,287.518,393.529Z" transform="translate(-283.55 -387.689)" fill="#9facba"/>
        </g>
      </g>
      <g id="Grupo_57434" data-name="Grupo 57434" transform="translate(26.742 24.323)">
        <g id="Grupo_57432" data-name="Grupo 57432">
          <path id="Trazado_102867" data-name="Trazado 102867" d="M283.55,284.731h16.286v4.4H283.55Z" transform="translate(-283.55 -284.731)" fill="#e8edf2"/>
        </g>
        <g id="Grupo_57433" data-name="Grupo 57433">
          <path id="Trazado_102868" data-name="Trazado 102868" d="M283.55,284.731h3.968v4.4H283.55Z" transform="translate(-283.55 -284.731)" fill="#d9e7ec"/>
        </g>
      </g>
      <g id="Grupo_57437" data-name="Grupo 57437" transform="translate(26.742 2.994)">
        <g id="Grupo_57435" data-name="Grupo 57435">
          <path id="Trazado_102869" data-name="Trazado 102869" d="M283.55,35.477v5.84h16.286v-5.84a.427.427,0,0,0-.427-.427H283.977A.427.427,0,0,0,283.55,35.477Z" transform="translate(-283.55 -35.05)" fill="#8d9ca8"/>
        </g>
        <g id="Grupo_57436" data-name="Grupo 57436" transform="translate(0 0)">
          <path id="Trazado_102870" data-name="Trazado 102870" d="M287.945,35.05h-3.968a.427.427,0,0,0-.427.427v5.84h3.968v-5.84A.427.427,0,0,1,287.945,35.05Z" transform="translate(-283.55 -35.05)" fill="#7a8c98"/>
        </g>
      </g>
      <g id="Grupo_57438" data-name="Grupo 57438" transform="translate(26.742 22.188)">
        <path id="Trazado_102871" data-name="Trazado 102871" d="M283.55,259.731h16.286v2.136H283.55Z" transform="translate(-283.55 -259.731)" fill="#8d9ca8"/>
      </g>
      <g id="Grupo_57439" data-name="Grupo 57439" transform="translate(26.742 22.188)">
        <path id="Trazado_102872" data-name="Trazado 102872" d="M283.55,259.731h3.968v2.136H283.55Z" transform="translate(-283.55 -259.731)" fill="#7a8c98"/>
      </g>
      <g id="Grupo_57440" data-name="Grupo 57440" transform="translate(31.094 16.188)">
        <path id="Trazado_102873" data-name="Trazado 102873" d="M334.49,193.193v-3.522a.171.171,0,0,1,.171-.171H341.9a.171.171,0,0,1,.171.171v3.522a.171.171,0,0,1-.171.171h-7.241A.171.171,0,0,1,334.49,193.193Z" transform="translate(-334.49 -189.5)" fill="#01d0fb"/>
      </g>
      <g id="Grupo_57441" data-name="Grupo 57441" transform="translate(31.094 16.188)">
        <path id="Trazado_102874" data-name="Trazado 102874" d="M337.116,193.193v-3.522a.171.171,0,0,1,.171-.171h-2.626a.171.171,0,0,0-.171.171v3.522a.171.171,0,0,0,.171.171h2.626A.171.171,0,0,1,337.116,193.193Z" transform="translate(-334.49 -189.5)" fill="#01c0fa"/>
      </g>
      <path id="Trazado_102875" data-name="Trazado 102875" d="M28.809,415.238v3.486a.342.342,0,0,1-.342.342H13.036a.342.342,0,0,1-.342-.342v-3.486H10.255v7.2a.427.427,0,0,0,.427.427H31.248v-7.625Z" transform="translate(-6.859 -379.766)" fill="#b6c4cf"/>
      <path id="Trazado_102876" data-name="Trazado 102876" d="M14.248,422.436v-3.285H13.036a.427.427,0,0,1-.427-.427v-3.486H10.255v7.2a.427.427,0,0,0,.427.427h3.993A.427.427,0,0,1,14.248,422.436Z" transform="translate(-6.859 -379.766)" fill="#9facba"/>
      <path id="Trazado_102877" data-name="Trazado 102877" d="M11.109,7.5a.854.854,0,0,0-.854.854V42.331h2.439V40.063H28.809v2.268h2.439V7.5Z" transform="translate(-6.859 -6.859)" fill="#596c76"/>
      <path id="Trazado_102878" data-name="Trazado 102878" d="M12.608,10.281a.427.427,0,0,1,.427-.427h1.213v-1.5A.854.854,0,0,1,15.1,7.5H11.109a.854.854,0,0,0-.854.854V42.331h2.353Z" transform="translate(-6.859 -6.859)" fill="#465a61"/>
      <g id="Grupo_57444" data-name="Grupo 57444" transform="translate(5.749 28.721)">
        <g id="Grupo_57442" data-name="Grupo 57442" transform="translate(0 0)">
          <path id="Trazado_102879" data-name="Trazado 102879" d="M37.805,336.21H54.091v4.4H37.805Z" transform="translate(-37.805 -336.21)" fill="#01d0fb"/>
        </g>
        <g id="Grupo_57443" data-name="Grupo 57443">
          <path id="Trazado_102880" data-name="Trazado 102880" d="M37.805,336.209h3.946v4.4H37.805Z" transform="translate(-37.805 -336.209)" fill="#01c0fa"/>
        </g>
      </g>
      <g id="Grupo_57447" data-name="Grupo 57447" transform="translate(5.749 13.659)">
        <g id="Grupo_57445" data-name="Grupo 57445">
          <path id="Trazado_102881" data-name="Trazado 102881" d="M37.805,159.89H54.091v4.4H37.805Z" transform="translate(-37.805 -159.89)" fill="#7a8c98"/>
        </g>
        <g id="Grupo_57446" data-name="Grupo 57446">
          <path id="Trazado_102882" data-name="Trazado 102882" d="M37.805,159.89h3.946v4.4H37.805Z" transform="translate(-37.805 -159.89)" fill="#596c76"/>
        </g>
      </g>
      <g id="Grupo_57450" data-name="Grupo 57450" transform="translate(5.749 9.261)">
        <g id="Grupo_57448" data-name="Grupo 57448">
          <path id="Trazado_102883" data-name="Trazado 102883" d="M37.805,108.411H54.091v4.4H37.805Z" transform="translate(-37.805 -108.411)" fill="#99e6fc"/>
        </g>
        <g id="Grupo_57449" data-name="Grupo 57449">
          <path id="Trazado_102884" data-name="Trazado 102884" d="M37.805,108.411h3.946v4.4H37.805Z" transform="translate(-37.805 -108.411)" fill="#62dbfb"/>
        </g>
      </g>
      <g id="Grupo_57451" data-name="Grupo 57451" transform="translate(5.749 24.323)">
        <path id="Trazado_102885" data-name="Trazado 102885" d="M37.805,284.731H54.091v4.4H37.805Z" transform="translate(-37.805 -284.731)" fill="#7a8c98"/>
      </g>
      <g id="Grupo_57452" data-name="Grupo 57452" transform="translate(5.749 24.323)">
        <path id="Trazado_102886" data-name="Trazado 102886" d="M37.805,284.731h3.946v4.4H37.805Z" transform="translate(-37.805 -284.731)" fill="#596c76"/>
      </g>
      <g id="Grupo_57455" data-name="Grupo 57455" transform="translate(5.749 18.056)">
        <g id="Grupo_57453" data-name="Grupo 57453">
          <path id="Trazado_102887" data-name="Trazado 102887" d="M37.805,211.369H54.091v6.267H37.805Z" transform="translate(-37.805 -211.369)" fill="#b6c4cf"/>
        </g>
        <g id="Grupo_57454" data-name="Grupo 57454">
          <path id="Trazado_102888" data-name="Trazado 102888" d="M37.805,211.369h3.946v6.267H37.805Z" transform="translate(-37.805 -211.369)" fill="#9facba"/>
        </g>
      </g>
      <g id="Grupo_57458" data-name="Grupo 57458" transform="translate(5.749 2.994)">
        <g id="Grupo_57456" data-name="Grupo 57456">
          <path id="Trazado_102889" data-name="Trazado 102889" d="M37.805,35.477v5.84H54.091v-5.84a.427.427,0,0,0-.427-.427H38.232A.427.427,0,0,0,37.805,35.477Z" transform="translate(-37.805 -35.05)" fill="#e8edf2"/>
        </g>
        <g id="Grupo_57457" data-name="Grupo 57457" transform="translate(0 0)">
          <path id="Trazado_102890" data-name="Trazado 102890" d="M42.178,35.05H38.232a.427.427,0,0,0-.427.427v5.84h3.946v-5.84A.427.427,0,0,1,42.178,35.05Z" transform="translate(-37.805 -35.05)" fill="#d9e7ec"/>
        </g>
      </g>
      <g id="Grupo_57461" data-name="Grupo 57461" transform="translate(5.749 33.118)">
        <g id="Grupo_57459" data-name="Grupo 57459">
          <path id="Trazado_102891" data-name="Trazado 102891" d="M37.805,387.688v5.84a.427.427,0,0,0,.427.427H53.664a.427.427,0,0,0,.427-.427v-5.84Z" transform="translate(-37.805 -387.688)" fill="#e8edf2"/>
        </g>
        <g id="Grupo_57460" data-name="Grupo 57460" transform="translate(0 0)">
          <path id="Trazado_102892" data-name="Trazado 102892" d="M41.751,393.529v-5.84H37.805v5.84a.427.427,0,0,0,.427.427h3.946A.427.427,0,0,1,41.751,393.529Z" transform="translate(-37.805 -387.689)" fill="#d9e7ec"/>
        </g>
      </g>
      <g id="Grupo_57462" data-name="Grupo 57462" transform="translate(2.755)">
        <path id="Trazado_102893" data-name="Trazado 102893" d="M422.7,355.73h1.977a.641.641,0,0,0,0-1.281H422.7a.641.641,0,1,0,0,1.281Z" transform="translate(-386.244 -324.17)"/>
        <path id="Trazado_102894" data-name="Trazado 102894" d="M298.18,351.619a.641.641,0,0,0,.641-.641v-.847a.641.641,0,1,0-1.281,0v.847A.641.641,0,0,0,298.18,351.619Z" transform="translate(-272.357 -319.635)"/>
        <path id="Trazado_102895" data-name="Trazado 102895" d="M318.015,351.619a.641.641,0,0,0,.641-.641v-.847a.641.641,0,0,0-1.281,0v.847A.641.641,0,0,0,318.015,351.619Z" transform="translate(-290.498 -319.635)"/>
        <path id="Trazado_102896" data-name="Trazado 102896" d="M337.851,351.619a.641.641,0,0,0,.641-.641v-.847a.641.641,0,0,0-1.281,0v.847A.641.641,0,0,0,337.851,351.619Z" transform="translate(-308.639 -319.635)"/>
        <path id="Trazado_102897" data-name="Trazado 102897" d="M357.687,351.619a.641.641,0,0,0,.641-.641v-.847a.641.641,0,0,0-1.281,0v.847A.641.641,0,0,0,357.687,351.619Z" transform="translate(-326.781 -319.635)"/>
        <circle id="Elipse_1464" data-name="Elipse 1464" cx="0.641" cy="0.641" r="0.641" transform="translate(34.078 30.279)"/>
        <circle id="Elipse_1465" data-name="Elipse 1465" cx="0.641" cy="0.641" r="0.641" transform="translate(32.383 30.292)"/>
        <path id="Trazado_102898" data-name="Trazado 102898" d="M301.485,429.721h5.083a.641.641,0,0,0,0-1.281h-5.083a.641.641,0,0,0,0,1.281Z" transform="translate(-275.38 -391.84)"/>
        <path id="Trazado_102899" data-name="Trazado 102899" d="M301.485,406.579h5.083a.641.641,0,0,0,0-1.281h-5.083a.641.641,0,0,0,0,1.281Z" transform="translate(-275.38 -370.675)"/>
        <circle id="Elipse_1466" data-name="Elipse 1466" cx="0.641" cy="0.641" r="0.641" transform="translate(32.901 34.623)"/>
        <circle id="Elipse_1467" data-name="Elipse 1467" cx="0.641" cy="0.641" r="0.641" transform="translate(32.901 36.6)"/>
        <circle id="Elipse_1468" data-name="Elipse 1468" cx="0.641" cy="0.641" r="0.641" transform="translate(34.439 34.623)"/>
        <circle id="Elipse_1469" data-name="Elipse 1469" cx="0.641" cy="0.641" r="0.641" transform="translate(34.439 36.6)"/>
        <circle id="Elipse_1470" data-name="Elipse 1470" cx="0.641" cy="0.641" r="0.641" transform="translate(35.976 34.623)"/>
        <circle id="Elipse_1471" data-name="Elipse 1471" cx="0.641" cy="0.641" r="0.641" transform="translate(35.976 36.6)"/>
        <circle id="Elipse_1472" data-name="Elipse 1472" cx="0.641" cy="0.641" r="0.641" transform="translate(37.514 34.623)"/>
        <circle id="Elipse_1473" data-name="Elipse 1473" cx="0.641" cy="0.641" r="0.641" transform="translate(37.514 36.6)"/>
        <path id="Trazado_102900" data-name="Trazado 102900" d="M422.7,304.251h1.977a.641.641,0,0,0,0-1.281H422.7a.641.641,0,1,0,0,1.281Z" transform="translate(-386.244 -277.089)"/>
        <path id="Trazado_102901" data-name="Trazado 102901" d="M298.18,300.14a.641.641,0,0,0,.641-.641v-.847a.641.641,0,1,0-1.281,0v.847A.641.641,0,0,0,298.18,300.14Z" transform="translate(-272.357 -272.553)"/>
        <path id="Trazado_102902" data-name="Trazado 102902" d="M318.015,300.14a.641.641,0,0,0,.641-.641v-.847a.641.641,0,0,0-1.281,0v.847A.641.641,0,0,0,318.015,300.14Z" transform="translate(-290.498 -272.553)"/>
        <path id="Trazado_102903" data-name="Trazado 102903" d="M337.851,300.14a.641.641,0,0,0,.641-.641v-.847a.641.641,0,0,0-1.281,0v.847A.641.641,0,0,0,337.851,300.14Z" transform="translate(-308.639 -272.553)"/>
        <path id="Trazado_102904" data-name="Trazado 102904" d="M357.687,300.14a.641.641,0,0,0,.641-.641v-.847a.641.641,0,0,0-1.281,0v.847A.641.641,0,0,0,357.687,300.14Z" transform="translate(-326.781 -272.553)"/>
        <circle id="Elipse_1474" data-name="Elipse 1474" cx="0.641" cy="0.641" r="0.641" transform="translate(34.078 25.881)"/>
        <circle id="Elipse_1475" data-name="Elipse 1475" cx="0.641" cy="0.641" r="0.641" transform="translate(32.383 25.895)"/>
        <path id="Trazado_102905" data-name="Trazado 102905" d="M306.568,75.8h-5.083a.641.641,0,1,0,0,1.281h5.083a.641.641,0,0,0,0-1.281Z" transform="translate(-275.38 -69.327)"/>
        <path id="Trazado_102906" data-name="Trazado 102906" d="M306.568,52.66h-5.083a.641.641,0,1,0,0,1.281h5.083a.641.641,0,0,0,0-1.281Z" transform="translate(-275.38 -48.162)"/>
        <circle id="Elipse_1476" data-name="Elipse 1476" cx="0.641" cy="0.641" r="0.641" transform="translate(32.901 4.498)"/>
        <circle id="Elipse_1477" data-name="Elipse 1477" cx="0.641" cy="0.641" r="0.641" transform="translate(32.901 6.475)"/>
        <circle id="Elipse_1478" data-name="Elipse 1478" cx="0.641" cy="0.641" r="0.641" transform="translate(34.439 4.498)"/>
        <circle id="Elipse_1479" data-name="Elipse 1479" cx="0.641" cy="0.641" r="0.641" transform="translate(34.439 6.475)"/>
        <circle id="Elipse_1480" data-name="Elipse 1480" cx="0.641" cy="0.641" r="0.641" transform="translate(35.976 4.498)"/>
        <circle id="Elipse_1481" data-name="Elipse 1481" cx="0.641" cy="0.641" r="0.641" transform="translate(35.976 6.475)"/>
        <circle id="Elipse_1482" data-name="Elipse 1482" cx="0.641" cy="0.641" r="0.641" transform="translate(37.514 4.498)"/>
        <circle id="Elipse_1483" data-name="Elipse 1483" cx="0.641" cy="0.641" r="0.641" transform="translate(37.514 6.475)"/>
        <path id="Trazado_102907" data-name="Trazado 102907" d="M335.043,182H327.8a.812.812,0,0,0-.812.812v3.522a.812.812,0,0,0,.812.812h7.241a.812.812,0,0,0,.812-.812v-3.522A.812.812,0,0,0,335.043,182Zm-.47,3.864h-6.3v-2.582h6.3Z" transform="translate(-299.292 -166.453)"/>
        <path id="Trazado_102908" data-name="Trazado 102908" d="M176.96,355.73h1.977a.641.641,0,1,0,0-1.281H176.96a.641.641,0,0,0,0,1.281Z" transform="translate(-161.492 -324.17)"/>
        <path id="Trazado_102909" data-name="Trazado 102909" d="M52.435,351.619a.641.641,0,0,0,.641-.641v-.847a.641.641,0,0,0-1.281,0v.847A.641.641,0,0,0,52.435,351.619Z" transform="translate(-47.605 -319.635)"/>
        <path id="Trazado_102910" data-name="Trazado 102910" d="M72.271,351.619a.641.641,0,0,0,.641-.641v-.847a.641.641,0,0,0-1.281,0v.847A.641.641,0,0,0,72.271,351.619Z" transform="translate(-65.746 -319.635)"/>
        <path id="Trazado_102911" data-name="Trazado 102911" d="M92.107,351.619a.641.641,0,0,0,.641-.641v-.847a.641.641,0,1,0-1.281,0v.847A.641.641,0,0,0,92.107,351.619Z" transform="translate(-83.888 -319.635)"/>
        <path id="Trazado_102912" data-name="Trazado 102912" d="M111.943,351.619a.641.641,0,0,0,.641-.641v-.847a.641.641,0,1,0-1.281,0v.847A.641.641,0,0,0,111.943,351.619Z" transform="translate(-102.029 -319.635)"/>
        <circle id="Elipse_1484" data-name="Elipse 1484" cx="0.641" cy="0.641" r="0.641" transform="translate(13.085 30.279)"/>
        <circle id="Elipse_1485" data-name="Elipse 1485" cx="0.641" cy="0.641" r="0.641" transform="translate(11.391 30.292)"/>
        <path id="Trazado_102913" data-name="Trazado 102913" d="M52.435,179.411h1.977a.641.641,0,0,0,0-1.281H52.435a.641.641,0,0,0,0,1.281Z" transform="translate(-47.605 -162.913)"/>
        <path id="Trazado_102914" data-name="Trazado 102914" d="M200.1,175.3a.641.641,0,0,0,.641-.641v-.847a.641.641,0,1,0-1.281,0v.847A.641.641,0,0,0,200.1,175.3Z" transform="translate(-182.657 -158.378)"/>
        <path id="Trazado_102915" data-name="Trazado 102915" d="M180.266,175.3a.641.641,0,0,0,.641-.641v-.847a.641.641,0,1,0-1.281,0v.847A.641.641,0,0,0,180.266,175.3Z" transform="translate(-164.516 -158.378)"/>
        <path id="Trazado_102916" data-name="Trazado 102916" d="M160.43,175.3a.641.641,0,0,0,.641-.641v-.847a.641.641,0,1,0-1.281,0v.847A.641.641,0,0,0,160.43,175.3Z" transform="translate(-146.374 -158.378)"/>
        <path id="Trazado_102917" data-name="Trazado 102917" d="M140.594,175.3a.641.641,0,0,0,.641-.641v-.847a.641.641,0,1,0-1.281,0v.847A.641.641,0,0,0,140.594,175.3Z" transform="translate(-128.233 -158.378)"/>
        <circle id="Elipse_1486" data-name="Elipse 1486" cx="0.641" cy="0.641" r="0.641" transform="translate(7.908 15.217)"/>
        <circle id="Elipse_1487" data-name="Elipse 1487" cx="0.641" cy="0.641" r="0.641" transform="translate(9.602 15.203)"/>
        <path id="Trazado_102918" data-name="Trazado 102918" d="M176.96,304.251h1.977a.641.641,0,0,0,0-1.281H176.96a.641.641,0,0,0,0,1.281Z" transform="translate(-161.492 -277.089)"/>
        <path id="Trazado_102919" data-name="Trazado 102919" d="M52.435,300.14a.641.641,0,0,0,.641-.641v-.847a.641.641,0,0,0-1.281,0v.847A.641.641,0,0,0,52.435,300.14Z" transform="translate(-47.605 -272.553)"/>
        <path id="Trazado_102920" data-name="Trazado 102920" d="M72.271,300.14a.641.641,0,0,0,.641-.641v-.847a.641.641,0,0,0-1.281,0v.847A.641.641,0,0,0,72.271,300.14Z" transform="translate(-65.746 -272.553)"/>
        <path id="Trazado_102921" data-name="Trazado 102921" d="M92.107,300.14a.641.641,0,0,0,.641-.641v-.847a.641.641,0,1,0-1.281,0v.847A.641.641,0,0,0,92.107,300.14Z" transform="translate(-83.888 -272.553)"/>
        <path id="Trazado_102922" data-name="Trazado 102922" d="M111.943,300.14a.641.641,0,0,0,.641-.641v-.847a.641.641,0,1,0-1.281,0v.847A.641.641,0,0,0,111.943,300.14Z" transform="translate(-102.029 -272.553)"/>
        <circle id="Elipse_1488" data-name="Elipse 1488" cx="0.641" cy="0.641" r="0.641" transform="translate(13.085 25.881)"/>
        <circle id="Elipse_1489" data-name="Elipse 1489" cx="0.641" cy="0.641" r="0.641" transform="translate(11.391 25.895)"/>
        <path id="Trazado_102923" data-name="Trazado 102923" d="M55.74,253.4h5.083a.641.641,0,1,0,0-1.281H55.74a.641.641,0,0,0,0,1.281Z" transform="translate(-50.628 -230.584)"/>
        <path id="Trazado_102924" data-name="Trazado 102924" d="M55.74,230.26h5.083a.641.641,0,1,0,0-1.281H55.74a.641.641,0,0,0,0,1.281Z" transform="translate(-50.628 -209.418)"/>
        <circle id="Elipse_1490" data-name="Elipse 1490" cx="0.641" cy="0.641" r="0.641" transform="translate(11.908 19.561)"/>
        <circle id="Elipse_1491" data-name="Elipse 1491" cx="0.641" cy="0.641" r="0.641" transform="translate(11.908 21.537)"/>
        <circle id="Elipse_1492" data-name="Elipse 1492" cx="0.641" cy="0.641" r="0.641" transform="translate(13.446 19.561)"/>
        <circle id="Elipse_1493" data-name="Elipse 1493" cx="0.641" cy="0.641" r="0.641" transform="translate(13.446 21.537)"/>
        <circle id="Elipse_1494" data-name="Elipse 1494" cx="0.641" cy="0.641" r="0.641" transform="translate(14.984 19.561)"/>
        <circle id="Elipse_1495" data-name="Elipse 1495" cx="0.641" cy="0.641" r="0.641" transform="translate(14.984 21.537)"/>
        <circle id="Elipse_1496" data-name="Elipse 1496" cx="0.641" cy="0.641" r="0.641" transform="translate(16.521 19.561)"/>
        <circle id="Elipse_1497" data-name="Elipse 1497" cx="0.641" cy="0.641" r="0.641" transform="translate(16.521 21.537)"/>
        <path id="Trazado_102925" data-name="Trazado 102925" d="M60.823,75.8H55.74a.641.641,0,0,0,0,1.281h5.083a.641.641,0,1,0,0-1.281Z" transform="translate(-50.628 -69.327)"/>
        <path id="Trazado_102926" data-name="Trazado 102926" d="M60.823,52.66H55.74a.641.641,0,0,0,0,1.281h5.083a.641.641,0,1,0,0-1.281Z" transform="translate(-50.628 -48.162)"/>
        <circle id="Elipse_1498" data-name="Elipse 1498" cx="0.641" cy="0.641" r="0.641" transform="translate(11.908 4.498)"/>
        <circle id="Elipse_1499" data-name="Elipse 1499" cx="0.641" cy="0.641" r="0.641" transform="translate(11.908 6.475)"/>
        <circle id="Elipse_1500" data-name="Elipse 1500" cx="0.641" cy="0.641" r="0.641" transform="translate(13.446 4.498)"/>
        <circle id="Elipse_1501" data-name="Elipse 1501" cx="0.641" cy="0.641" r="0.641" transform="translate(13.446 6.475)"/>
        <circle id="Elipse_1502" data-name="Elipse 1502" cx="0.641" cy="0.641" r="0.641" transform="translate(14.984 4.498)"/>
        <circle id="Elipse_1503" data-name="Elipse 1503" cx="0.641" cy="0.641" r="0.641" transform="translate(14.984 6.475)"/>
        <circle id="Elipse_1504" data-name="Elipse 1504" cx="0.641" cy="0.641" r="0.641" transform="translate(16.521 4.498)"/>
        <circle id="Elipse_1505" data-name="Elipse 1505" cx="0.641" cy="0.641" r="0.641" transform="translate(16.521 6.475)"/>
        <path id="Trazado_102927" data-name="Trazado 102927" d="M54.412,126.651H52.435a.641.641,0,1,0,0,1.281h1.977a.641.641,0,1,0,0-1.281Z" transform="translate(-47.605 -115.832)"/>
        <path id="Trazado_102928" data-name="Trazado 102928" d="M200.1,121.692a.641.641,0,0,0-.641.641v.847a.641.641,0,0,0,1.281,0v-.847A.641.641,0,0,0,200.1,121.692Z" transform="translate(-182.657 -111.296)"/>
        <path id="Trazado_102929" data-name="Trazado 102929" d="M180.266,121.692a.641.641,0,0,0-.641.641v.847a.641.641,0,0,0,1.281,0v-.847A.641.641,0,0,0,180.266,121.692Z" transform="translate(-164.516 -111.296)"/>
        <path id="Trazado_102930" data-name="Trazado 102930" d="M160.43,121.692a.641.641,0,0,0-.641.641v.847a.641.641,0,0,0,1.281,0v-.847A.641.641,0,0,0,160.43,121.692Z" transform="translate(-146.374 -111.296)"/>
        <path id="Trazado_102931" data-name="Trazado 102931" d="M140.594,121.692a.641.641,0,0,0-.641.641v.847a.641.641,0,1,0,1.281,0v-.847A.641.641,0,0,0,140.594,121.692Z" transform="translate(-128.233 -111.296)"/>
        <circle id="Elipse_1506" data-name="Elipse 1506" cx="0.641" cy="0.641" r="0.641" transform="translate(7.908 10.819)"/>
        <circle id="Elipse_1507" data-name="Elipse 1507" cx="0.641" cy="0.641" r="0.641" transform="translate(9.602 10.806)"/>
        <path id="Trazado_102932" data-name="Trazado 102932" d="M60.823,428.44H55.74a.641.641,0,0,0,0,1.281h5.083a.641.641,0,1,0,0-1.281Z" transform="translate(-50.628 -391.84)"/>
        <path id="Trazado_102933" data-name="Trazado 102933" d="M60.823,405.3H55.74a.641.641,0,0,0,0,1.281h5.083a.641.641,0,1,0,0-1.281Z" transform="translate(-50.628 -370.675)"/>
        <circle id="Elipse_1508" data-name="Elipse 1508" cx="0.641" cy="0.641" r="0.641" transform="translate(11.908 34.623)"/>
        <circle id="Elipse_1509" data-name="Elipse 1509" cx="0.641" cy="0.641" r="0.641" transform="translate(11.908 36.6)"/>
        <circle id="Elipse_1510" data-name="Elipse 1510" cx="0.641" cy="0.641" r="0.641" transform="translate(13.446 34.623)"/>
        <circle id="Elipse_1511" data-name="Elipse 1511" cx="0.641" cy="0.641" r="0.641" transform="translate(13.446 36.6)"/>
        <circle id="Elipse_1512" data-name="Elipse 1512" cx="0.641" cy="0.641" r="0.641" transform="translate(14.984 34.623)"/>
        <circle id="Elipse_1513" data-name="Elipse 1513" cx="0.641" cy="0.641" r="0.641" transform="translate(14.984 36.6)"/>
        <circle id="Elipse_1514" data-name="Elipse 1514" cx="0.641" cy="0.641" r="0.641" transform="translate(16.521 34.623)"/>
        <circle id="Elipse_1515" data-name="Elipse 1515" cx="0.641" cy="0.641" r="0.641" transform="translate(16.521 36.6)"/>
        <path id="Trazado_102934" data-name="Trazado 102934" d="M424.682,127.5H422.7a.641.641,0,1,0,0,1.281h1.977a.641.641,0,1,0,0-1.281Z" transform="translate(-386.244 -116.608)"/>
        <path id="Trazado_102935" data-name="Trazado 102935" d="M298.18,122.541a.641.641,0,0,0-.641.641v.847a.641.641,0,0,0,1.281,0v-.847A.641.641,0,0,0,298.18,122.541Z" transform="translate(-272.357 -112.073)"/>
        <path id="Trazado_102936" data-name="Trazado 102936" d="M318.015,122.541a.641.641,0,0,0-.641.641v.847a.641.641,0,0,0,1.281,0v-.847A.641.641,0,0,0,318.015,122.541Z" transform="translate(-290.498 -112.073)"/>
        <path id="Trazado_102937" data-name="Trazado 102937" d="M337.851,122.541a.641.641,0,0,0-.641.641v.847a.641.641,0,0,0,1.281,0v-.847A.641.641,0,0,0,337.851,122.541Z" transform="translate(-308.639 -112.073)"/>
        <path id="Trazado_102938" data-name="Trazado 102938" d="M357.687,122.541a.641.641,0,0,0-.641.641v.847a.641.641,0,0,0,1.281,0v-.847A.641.641,0,0,0,357.687,122.541Z" transform="translate(-326.781 -112.073)"/>
        <circle id="Elipse_1516" data-name="Elipse 1516" cx="0.641" cy="0.641" r="0.641" transform="translate(34.078 10.892)"/>
        <circle id="Elipse_1517" data-name="Elipse 1517" cx="0.641" cy="0.641" r="0.641" transform="translate(32.383 10.905)"/>
        <path id="Trazado_102939" data-name="Trazado 102939" d="M44.527,0H4.25A1.5,1.5,0,0,0,2.755,1.495V42.67a1.069,1.069,0,0,0,1.068,1.068H44.954a1.069,1.069,0,0,0,1.068-1.068V1.495A1.5,1.5,0,0,0,44.527,0ZM23.748,42.456H4.036V36.112H5.108v2.846a1.069,1.069,0,0,0,1.068,1.068H16.7a.641.641,0,1,0,0-1.281H6.39V33.759h15v4.985h-1.7a.641.641,0,1,0,0,1.281h1.918a1.069,1.069,0,0,0,1.068-1.068V36.112h1.072ZM21.394,14.3v3.116h-15V14.3Zm-15-1.281V9.9h15v3.116Zm15,5.679v4.985h-15V18.7Zm0,6.267V28.08h-15V24.964Zm0,4.4v3.116h-15V29.361Zm2.353,5.47H22.676V7.432a.641.641,0,0,0-1.281,0V8.62h-15V3.635h15v.807a.641.641,0,0,0,1.281,0V3.421a1.069,1.069,0,0,0-1.068-1.068H6.176A1.069,1.069,0,0,0,5.108,3.421v31.41H4.036V1.495a.214.214,0,0,1,.214-.214h19.5Zm20.993,7.625H25.029V36.112H26.1v2.846a1.069,1.069,0,0,0,1.068,1.068H42.6a1.069,1.069,0,0,0,1.068-1.068V36.112h1.072v6.344ZM42.387,22.828v.854h-15v-.854ZM29.6,21.547V14.693H40.171v6.854Zm12.789,3.417V28.08h-15V24.964Zm0,4.4v3.116h-15V29.361Zm0,4.4v4.985h-15V33.759Zm2.353,1.072H43.669v-15.7a.641.641,0,1,0-1.281,0v2.412h-.935V14.48a1.069,1.069,0,0,0-1.068-1.068h-11a1.069,1.069,0,0,0-1.068,1.068v7.067h-.935V9.9h15v6.244a.641.641,0,0,0,1.281,0V3.421A1.069,1.069,0,0,0,42.6,2.353H27.169A1.069,1.069,0,0,0,26.1,3.421v31.41H25.029V1.281h19.5a.214.214,0,0,1,.214.214ZM27.383,8.62V3.635h15V8.62Z" transform="translate(-2.755)"/>
      </g>
    </g>
  </g>
</svg>
