<svg xmlns="http://www.w3.org/2000/svg" width="59.951" height="60.04" viewBox="0 0 59.951 60.04">
  <g id="Grupo_57552" data-name="Grupo 57552" transform="translate(0 0)">
    <g id="Grupo_57546" data-name="Grupo 57546" transform="translate(0 0)">
      <ellipse id="Elipse_1463" data-name="Elipse 1463" cx="29.966" cy="29.966" rx="29.966" ry="29.966" fill="#1565c0"/>
      <path id="Trazado_102849" data-name="Trazado 102849" d="M159.454,132.171l-13.07-13.07-18.141,2.156v1.783l-1.594-1.594-13.785,1.638v11.361l1.594,1.594h-1.594v11.136l17.906,17.906A29.974,29.974,0,0,0,159.6,135.131Q159.6,133.633,159.454,132.171Z" transform="translate(-99.649 -105.043)" fill="#039be5"/>
    </g>
    <g id="Grupo_57421" data-name="Grupo 57421" transform="translate(13.215 14.059)">
      <path id="Trazado_102850" data-name="Trazado 102850" d="M126.649,152.134v-13l-13.785,1.639v11.361Z" transform="translate(-112.864 -136.788)" fill="#fff"/>
      <path id="Trazado_102851" data-name="Trazado 102851" d="M244.2,134.447h18.141V119.1L244.2,121.257Z" transform="translate(-228.825 -119.101)" fill="#fff"/>
      <path id="Trazado_102852" data-name="Trazado 102852" d="M126.649,263.769H112.864V274.9l13.785,1.638Z" transform="translate(-112.864 -246.83)" fill="#fff"/>
      <path id="Trazado_102853" data-name="Trazado 102853" d="M244.2,263.769v12.964l18.141,2.156v-15.12Z" transform="translate(-228.825 -246.83)" fill="#fff"/>
    </g>
  </g>
</svg>
