<svg xmlns="http://www.w3.org/2000/svg" width="95" height="95" viewBox="0 0 95 95">
  <g id="Grupo_57646" data-name="Grupo 57646" transform="translate(-753 -966)">
    <circle id="Elipse_1540" data-name="Elipse 1540" cx="47.5" cy="47.5" r="47.5" transform="translate(753 966)" fill="#fff"/>
    <g id="archivo" transform="translate(754.819 984)">
      <g id="Grupo_57629" data-name="Grupo 57629" transform="translate(23.722 0.867)">
        <path id="Trazado_103195" data-name="Trazado 103195" d="M105.817,11.239H66.091V8.668A1.168,1.168,0,0,1,67.259,7.5h37.389a1.168,1.168,0,0,1,1.168,1.168v2.57Z" transform="translate(-66.091 -7.5)" fill="#d3effb"/>
      </g>
      <g id="Grupo_57630" data-name="Grupo 57630" transform="translate(22.554 4.606)">
        <path id="Trazado_103196" data-name="Trazado 103196" d="M98.052,43.564H55.989v-2.57a1.168,1.168,0,0,1,1.168-1.168H96.884a1.168,1.168,0,0,1,1.168,1.168Z" transform="translate(-55.989 -39.825)" fill="#cbe2ff"/>
      </g>
      <g id="Grupo_57631" data-name="Grupo 57631" transform="translate(19.049 43.164)">
        <path id="Trazado_103197" data-name="Trazado 103197" d="M74.758,388.368H25.813l-.129-15.189H74.758Z" transform="translate(-25.684 -373.179)" fill="#9d66d5"/>
      </g>
      <g id="Grupo_57632" data-name="Grupo 57632" transform="translate(30.92 43.164)">
        <path id="Trazado_103198" data-name="Trazado 103198" d="M165.518,380.857l-7.077-7.077q.134-.3.255-.6h-30.38a16.366,16.366,0,0,0,21.862,8.862l6.327,6.327h9.013v-7.511Z" transform="translate(-128.316 -373.179)" fill="#8659b9"/>
      </g>
      <g id="Grupo_57633" data-name="Grupo 57633" transform="translate(21.385 8.345)">
        <path id="Trazado_103199" data-name="Trazado 103199" d="M90.287,106.969h-44.4V73.318a1.168,1.168,0,0,1,1.168-1.168H89.118a1.168,1.168,0,0,1,1.168,1.168v33.65Z" transform="translate(-45.887 -72.15)" fill="#f4fbff"/>
      </g>
      <g id="Grupo_57634" data-name="Grupo 57634" transform="translate(25.124 12.084)">
        <path id="Trazado_103200" data-name="Trazado 103200" d="M0,0H14.488V11.684H0Z" transform="translate(11.684 0) rotate(90)" fill="#dd636e"/>
      </g>
      <g id="Grupo_57635" data-name="Grupo 57635" transform="translate(61.537 8.345)">
        <path id="Trazado_103201" data-name="Trazado 103201" d="M396.1,72.15h-3.08a1.168,1.168,0,0,1,1.168,1.168v33.65h3.08V73.318A1.169,1.169,0,0,0,396.1,72.15Z" transform="translate(-393.023 -72.15)" fill="#e4f6ff"/>
      </g>
      <g id="Grupo_57644" data-name="Grupo 57644" transform="translate(32.085 23.068)">
        <g id="Grupo_57636" data-name="Grupo 57636" transform="translate(21.117 21.126)">
          <path id="Trazado_103202" data-name="Trazado 103202" d="M0,0H7.011V4.206H0Z" transform="translate(0 4.956) rotate(-45)" fill="#2b4d66"/>
        </g>
        <g id="Grupo_57637" data-name="Grupo 57637" transform="translate(25.082 25.092)">
          <path id="Trazado_103203" data-name="Trazado 103203" d="M0,0H4.206V4.206H0Z" transform="translate(0 2.974) rotate(-45)" fill="#4a80aa"/>
        </g>
        <g id="Grupo_57638" data-name="Grupo 57638" transform="translate(27.075 27.075)">
          <path id="Trazado_103204" data-name="Trazado 103204" d="M385.64,441.722h-9.914l-3.254-3.254,4.957-4.957Z" transform="translate(-372.472 -433.511)" fill="#407093"/>
        </g>
        <g id="Grupo_57639" data-name="Grupo 57639" transform="translate(30.38 27.075)">
          <path id="Trazado_103205" data-name="Trazado 103205" d="M402.7,433.511l-1.652,1.652,6.559,6.559h3.3Z" transform="translate(-401.044 -433.511)" fill="#365e7d"/>
        </g>
        <g id="Grupo_57640" data-name="Grupo 57640">
          <circle id="Elipse_1541" data-name="Elipse 1541" cx="14.021" cy="14.021" r="14.021" fill="#407093"/>
        </g>
        <g id="Grupo_57641" data-name="Grupo 57641" transform="translate(2.854 2.855)">
          <path id="Trazado_103206" data-name="Trazado 103206" d="M182.718,224.113a14.021,14.021,0,0,1-19.646,19.646,14.021,14.021,0,1,0,19.646-19.646Z" transform="translate(-163.072 -224.113)" fill="#365e7d"/>
        </g>
        <g id="Grupo_57642" data-name="Grupo 57642" transform="translate(3.739 3.739)">
          <circle id="Elipse_1542" data-name="Elipse 1542" cx="10.282" cy="10.282" r="10.282" fill="#e4f6ff"/>
        </g>
        <g id="Grupo_57643" data-name="Grupo 57643" transform="translate(5.826 5.826)">
          <path id="Trazado_103207" data-name="Trazado 103207" d="M203.165,249.8a10.282,10.282,0,0,1-14.4,14.4,10.282,10.282,0,1,0,14.4-14.4Z" transform="translate(-188.76 -249.798)" fill="#d3effb"/>
        </g>
      </g>
      <g id="Grupo_57645" data-name="Grupo 57645" transform="translate(18.181 0)">
        <path id="Trazado_103208" data-name="Trazado 103208" d="M39.258,32.405a.868.868,0,0,0,.867-.867V9.514a.3.3,0,0,1,.3-.3H82.489a.3.3,0,0,1,.3.3V19.971a.867.867,0,1,0,1.735,0V9.514a2.036,2.036,0,0,0-1.169-1.839v-1.9a2.037,2.037,0,0,0-1.168-1.839v-1.9A2.038,2.038,0,0,0,80.152,0H42.762a2.038,2.038,0,0,0-2.036,2.036v1.9a2.037,2.037,0,0,0-1.168,1.839v1.9A2.036,2.036,0,0,0,38.39,9.514V31.538a.868.868,0,0,0,.868.867Zm2.035-26.63a.3.3,0,0,1,.3-.3H81.32a.3.3,0,0,1,.3.3v1.7H41.293Zm1.168-3.739a.3.3,0,0,1,.3-.3H80.152a.3.3,0,0,1,.3.3v1.7H42.462Z" transform="translate(-36.052 0)"/>
        <path id="Trazado_103209" data-name="Trazado 103209" d="M182.253,227.525a11.15,11.15,0,1,0,3.266,7.884A11.077,11.077,0,0,0,182.253,227.525Zm-1.227,14.541a9.415,9.415,0,1,1,2.757-6.657A9.353,9.353,0,0,1,181.027,242.066Z" transform="translate(-146.444 -198.32)"/>
        <path id="Trazado_103210" data-name="Trazado 103210" d="M72.942,143.5l-3.952-3.952V128.923a.868.868,0,0,0-.868-.867H66.653V109.778a.867.867,0,0,0-1.735,0v18.278H60.053a14.888,14.888,0,0,0-22.377-17.481V97.843a.868.868,0,0,0-.867-.868H25.124a.868.868,0,0,0-.867.868v14.488a.868.868,0,0,0,.867.867h9.643a14.919,14.919,0,0,0-2.607,14.857H22.253v-6.711a.867.867,0,0,0-1.735,0v6.711h-1.47a.867.867,0,0,0-.867.875l.13,15.189a.867.867,0,0,0,.867.86h5.154a.868.868,0,0,0,0-1.735H20.038l-.115-13.454H32.935A14.912,14.912,0,0,0,53.078,136l2.494,2.494a.867.867,0,0,0,1.227,0l.378-.378,1.747,1.747-.378.378a.867.867,0,0,0,0,1.227l1.773,1.773H28.38a.868.868,0,0,0,0,1.735H62.416a.867.867,0,0,0,.612-1.481l-2.64-2.64,3.73-3.73,7.6,7.6a.867.867,0,1,0,1.227-1.227ZM25.992,98.711h9.949v12.753H25.992Zm10.813,33.438a13.154,13.154,0,1,1,18.6,0A13.168,13.168,0,0,1,36.805,132.149Zm17.8,2.926a14.985,14.985,0,0,0,3.73-3.73l1.583,1.582-3.73,3.73Zm3.8,1.818,1.747-1.747,1.747,1.747-1.747,1.747Zm5.1-1.6-.378.378-1.747-1.747.378-.378a.867.867,0,0,0,0-1.227l-2.494-2.494.016-.029h7.976v8.021l-2.524-2.524A.867.867,0,0,0,63.5,135.288Z" transform="translate(-18.181 -85.759)"/>
        <path id="Trazado_103211" data-name="Trazado 103211" d="M228.207,96.976H206.941a.867.867,0,0,0,0,1.735h21.265a.867.867,0,0,0,0-1.735Z" transform="translate(-184.341 -85.759)"/>
        <path id="Trazado_103212" data-name="Trazado 103212" d="M229.074,130.169a.868.868,0,0,0-.867-.867H206.941a.867.867,0,1,0,0,1.735h21.265A.868.868,0,0,0,229.074,130.169Z" transform="translate(-184.341 -114.345)"/>
        <path id="Trazado_103213" data-name="Trazado 103213" d="M206.942,161.626a.867.867,0,1,0,0,1.735H221.2a.867.867,0,1,0,0-1.735Z" transform="translate(-184.342 -142.931)"/>
      </g>
    </g>
  </g>
</svg>
