<svg xmlns="http://www.w3.org/2000/svg" width="84" height="84" viewBox="0 0 84 84">
  <g id="Grupo_57540" data-name="Grupo 57540" transform="translate(-804 -1616)">
    <circle id="Elipse_1533" data-name="Elipse 1533" cx="42" cy="42" r="42" transform="translate(804 1616)" fill="#ffca28"/>
    <g id="dominio" transform="translate(819 1618.545)">
      <g id="Grupo_57494" data-name="Grupo 57494" transform="translate(10.467 14.505)">
        <path id="Trazado_103001" data-name="Trazado 103001" d="M112.357,23.455a15.114,15.114,0,0,0-12.686,6.883,22.474,22.474,0,0,0,4.975,1.528C106.052,26.882,108.978,23.455,112.357,23.455Z" transform="translate(-99.671 -23.455)" fill="#98eaf9" fill-rule="evenodd"/>
      </g>
      <g id="Grupo_57495" data-name="Grupo 57495" transform="translate(15.442 14.505)">
        <path id="Trazado_103002" data-name="Trazado 103002" d="M154.759,32.56V23.455c-3.379,0-6.3,3.427-7.711,8.411A39.647,39.647,0,0,0,154.759,32.56Z" transform="translate(-147.048 -23.455)" fill="#cbf4fb" fill-rule="evenodd"/>
      </g>
      <g id="Grupo_57496" data-name="Grupo 57496" transform="translate(23.152 14.505)">
        <path id="Trazado_103003" data-name="Trazado 103003" d="M228.163,31.8c-1.412-4.946-4.326-8.343-7.69-8.343v9.105A38.8,38.8,0,0,0,228.163,31.8Z" transform="translate(-220.473 -23.456)" fill="#98eaf9" fill-rule="evenodd"/>
      </g>
      <g id="Grupo_57497" data-name="Grupo 57497" transform="translate(23.152 14.505)">
        <path id="Trazado_103004" data-name="Trazado 103004" d="M233.07,30.209a15.106,15.106,0,0,0-12.6-6.753c3.364,0,6.278,3.4,7.69,8.343A21.277,21.277,0,0,0,233.07,30.209Z" transform="translate(-220.473 -23.456)" fill="#cbf4fb" fill-rule="evenodd"/>
      </g>
      <g id="Grupo_57498" data-name="Grupo 57498" transform="translate(30.842 21.258)">
        <path id="Trazado_103005" data-name="Trazado 103005" d="M301.137,96.129a15.054,15.054,0,0,0-2.528-8.372,21.266,21.266,0,0,1-4.907,1.59,24.9,24.9,0,0,1,.911,6.782Z" transform="translate(-293.702 -87.757)" fill="#98eaf9" fill-rule="evenodd"/>
      </g>
      <g id="Grupo_57499" data-name="Grupo 57499" transform="translate(23.152 22.848)">
        <path id="Trazado_103006" data-name="Trazado 103006" d="M228.163,102.9a38.8,38.8,0,0,1-7.69.762v6.02h8.6A24.887,24.887,0,0,0,228.163,102.9Z" transform="translate(-220.473 -102.901)" fill="#cbf4fb" fill-rule="evenodd"/>
      </g>
      <g id="Grupo_57500" data-name="Grupo 57500" transform="translate(14.552 22.916)">
        <path id="Trazado_103007" data-name="Trazado 103007" d="M147.174,104.245a39.658,39.658,0,0,1-7.711-.694,24.919,24.919,0,0,0-.89,6.714h8.6Z" transform="translate(-138.573 -103.551)" fill="#98eaf9" fill-rule="evenodd"/>
      </g>
      <g id="Grupo_57501" data-name="Grupo 57501" transform="translate(8.028 21.388)">
        <path id="Trazado_103008" data-name="Trazado 103008" d="M83.861,90.529A22.47,22.47,0,0,1,78.886,89a15.058,15.058,0,0,0-2.439,8.242h6.524A24.918,24.918,0,0,1,83.861,90.529Z" transform="translate(-76.447 -89.001)" fill="#cbf4fb" fill-rule="evenodd"/>
      </g>
      <g id="Grupo_57502" data-name="Grupo 57502" transform="translate(8.028 29.63)">
        <path id="Trazado_103009" data-name="Trazado 103009" d="M83.52,172.819a25.508,25.508,0,0,1-.549-5.334H76.447a15.075,15.075,0,0,0,.967,5.334Z" transform="translate(-76.447 -167.485)" fill="#98eaf9" fill-rule="evenodd"/>
      </g>
      <g id="Grupo_57503" data-name="Grupo 57503" transform="translate(14.552 29.63)">
        <path id="Trazado_103010" data-name="Trazado 103010" d="M147.174,167.485h-8.6a25.5,25.5,0,0,0,.549,5.334h8.052v-5.334Z" transform="translate(-138.573 -167.485)" fill="#cbf4fb" fill-rule="evenodd"/>
      </g>
      <g id="Grupo_57504" data-name="Grupo 57504" transform="translate(23.153 29.63)">
        <path id="Trazado_103011" data-name="Trazado 103011" d="M229.075,167.485h-8.6v5.334h8.049A25.5,25.5,0,0,0,229.075,167.485Z" transform="translate(-220.474 -167.485)" fill="#98eaf9" fill-rule="evenodd"/>
      </g>
      <g id="Grupo_57505" data-name="Grupo 57505" transform="translate(31.201 29.63)">
        <path id="Trazado_103012" data-name="Trazado 103012" d="M303.225,172.819a15.076,15.076,0,0,0,.97-5.334h-6.524a25.5,25.5,0,0,1-.552,5.334Z" transform="translate(-297.119 -167.485)" fill="#cbf4fb" fill-rule="evenodd"/>
      </g>
      <g id="Grupo_57506" data-name="Grupo 57506" transform="translate(1.05 34.964)">
        <path id="Trazado_103013" data-name="Trazado 103013" d="M11.371,218.282A1.375,1.375,0,0,0,10,219.653v16.742a1.376,1.376,0,0,0,1.371,1.374H49.861l4.343-1.38V219.653a1.376,1.376,0,0,0-1.374-1.371H11.371Z" transform="translate(-10 -218.282)" fill="#a0e5a5" fill-rule="evenodd"/>
      </g>
      <g id="Grupo_57507" data-name="Grupo 57507" transform="translate(40.665 51.294)">
        <path id="Trazado_103014" data-name="Trazado 103014" d="M387.242,373.783l.739,9.449,2.593-2.593,5.72,5.72,1.762-1.762,1.762-1.762-5.72-5.72,2.593-2.593Z" transform="translate(-387.242 -373.783)" fill="#fff"/>
      </g>
      <g id="Grupo_57508" data-name="Grupo 57508" transform="translate(0 13.455)">
        <path id="Trazado_103015" data-name="Trazado 103015" d="M52.458,264.657l-.851,4.276-1.355-4.395a1.05,1.05,0,0,0-2.029.086l-1.334,4.313-.849-4.293a1.05,1.05,0,0,0-2.06.408s1.549,7.809,1.566,7.858a1.229,1.229,0,0,0,1.156.813h.014a1.227,1.227,0,0,0,1.15-.839l.007-.022,1.377-4.449,1.372,4.451c0,.015.01.03.015.045a1.228,1.228,0,0,0,1.155.813h.014a1.226,1.226,0,0,0,1.148-.839c.014-.042,1.564-7.817,1.564-7.817a1.05,1.05,0,0,0-2.06-.41Z" transform="translate(-39.343 -237.508)"/>
        <path id="Trazado_103016" data-name="Trazado 103016" d="M180.66,265.066a1.05,1.05,0,1,0-2.06-.41l-.852,4.279-1.354-4.4a1.05,1.05,0,0,0-2.029.086l-1.335,4.31-.849-4.29a1.05,1.05,0,0,0-2.06.408s1.549,7.809,1.567,7.858a1.228,1.228,0,0,0,1.155.813h.014a1.226,1.226,0,0,0,1.149-.838l.007-.022,1.378-4.45,1.371,4.451c0,.015.01.03.015.045a1.229,1.229,0,0,0,1.156.813h.014a1.227,1.227,0,0,0,1.15-.839C179.109,272.842,180.66,265.066,180.66,265.066Z" transform="translate(-152.238 -237.507)"/>
        <path id="Trazado_103017" data-name="Trazado 103017" d="M298.978,273.72h.014a1.228,1.228,0,0,0,1.155-.813c.005-.015.01-.03.015-.045l1.37-4.451,1.378,4.45.007.022a1.226,1.226,0,0,0,1.149.838h.014a1.228,1.228,0,0,0,1.155-.813c.018-.049,1.567-7.858,1.567-7.858a1.05,1.05,0,0,0-2.06-.408l-.849,4.29-1.335-4.31a1.05,1.05,0,0,0-2.029-.086l-1.352,4.392-.851-4.273a1.05,1.05,0,0,0-2.06.41s1.551,7.776,1.565,7.817A1.226,1.226,0,0,0,298.978,273.72Z" transform="translate(-265.135 -237.505)"/>
        <path id="Trazado_103018" data-name="Trazado 103018" d="M211.524,393.844a1.05,1.05,0,1,0,0,2.1h0a1.05,1.05,0,1,0,0-2.1Z" transform="translate(-188.372 -353.898)"/>
        <path id="Trazado_103019" data-name="Trazado 103019" d="M53.984,59.6l-4.977-4.977,1.85-1.85a1.05,1.05,0,0,0-.661-1.79l-3.891-.3V36.335a2.425,2.425,0,0,0-2.424-2.421h-5.13a16.173,16.173,0,1,0-31.2,0H2.421A2.424,2.424,0,0,0,0,36.335V53.077A2.425,2.425,0,0,0,2.421,55.5H18.453a1.05,1.05,0,1,0,0-2.1H2.421a.326.326,0,0,1-.32-.324V36.335a.325.325,0,0,1,.32-.321h41.46a.326.326,0,0,1,.323.321V50.517l-3.458-.27a1.05,1.05,0,0,0-1.129,1.129l.158,2.025H27.852a1.05,1.05,0,0,0,0,2.1H39.941l.416,5.324a1.05,1.05,0,0,0,1.79.661L44,59.635l4.977,4.977a1.05,1.05,0,0,0,1.485,0l3.525-3.525a1.05,1.05,0,0,0,0-1.485ZM9.742,33.914a13.959,13.959,0,0,1-.625-3.234h4.406a26.7,26.7,0,0,0,.314,3.234Zm3.782-5.334H9.117A13.973,13.973,0,0,1,10.9,22.712a23.728,23.728,0,0,0,3.257,1A26.091,26.091,0,0,0,13.524,28.58ZM12.1,20.922a14.161,14.161,0,0,1,5.046-4.02,14.056,14.056,0,0,0-.991,1.514,18.289,18.289,0,0,0-1.436,3.273,22.486,22.486,0,0,1-2.62-.766Zm10,12.992H15.968a24.384,24.384,0,0,1-.343-3.234H22.1Zm0-5.334H15.624a23.821,23.821,0,0,1,.6-4.455,40.94,40.94,0,0,0,5.875.527Zm0-6.032a39.212,39.212,0,0,1-5.287-.455c1.175-3.37,3.1-5.8,5.287-6.394ZM24.2,15.7c2.178.594,4.09,3,5.267,6.339a38.6,38.6,0,0,1-5.267.5Zm6.132,18.216H24.2V30.68H30.68a24.389,24.389,0,0,1-.345,3.234ZM24.2,28.58V24.643a40.358,40.358,0,0,0,5.861-.578,23.787,23.787,0,0,1,.617,4.515H24.2Zm5.944-10.164a14.057,14.057,0,0,0-.991-1.514,14.161,14.161,0,0,1,4.962,3.916,21.31,21.31,0,0,1-2.561.791A18.23,18.23,0,0,0,30.147,18.415Zm6.414,15.5h-4.1a26.65,26.65,0,0,0,.316-3.234h4.406A13.968,13.968,0,0,1,36.56,33.914ZM32.781,28.58a26.059,26.059,0,0,0-.651-4.951,22.611,22.611,0,0,0,3.207-1.036,13.974,13.974,0,0,1,1.85,5.988ZM49.717,62.385l-4.977-4.977a1.05,1.05,0,0,0-1.485,0l-.981.981-.465-5.952,5.952.465-.981.981a1.05,1.05,0,0,0,0,1.485l4.977,4.977Z" transform="translate(0 -13.455)"/>
      </g>
    </g>
  </g>
</svg>
