<svg xmlns="http://www.w3.org/2000/svg" width="95" height="95" viewBox="0 0 95 95">
  <g id="Grupo_57650" data-name="Grupo 57650" transform="translate(-1059 -966)">
    <circle id="Elipse_1540" data-name="Elipse 1540" cx="47.5" cy="47.5" r="47.5" transform="translate(1059 966)" fill="#fff"/>
    <g id="carpeta" transform="translate(1077 953.866)">
      <path id="Trazado_103214" data-name="Trazado 103214" d="M61.958,181.978H11.447a2.914,2.914,0,0,1-2.914-2.914V147.981a2.914,2.914,0,0,1,2.914-2.914h50.51a2.914,2.914,0,0,1,2.914,2.914v31.083a2.914,2.914,0,0,1-2.914,2.914" transform="translate(-7.562 -98.305)" fill="#ffe100"/>
      <path id="Trazado_103215" data-name="Trazado 103215" d="M91.234,54.324V51.41A2.915,2.915,0,0,0,88.32,48.5H61.628a1.054,1.054,0,0,1-.823-.4L57.041,43.4a1.935,1.935,0,0,0-1.513-.727H45.58a2.914,2.914,0,0,0-2.914,2.914v8.742H91.234Z" transform="translate(-37.809 -7.563)" fill="#fdcc00"/>
      <g id="Grupo_57647" data-name="Grupo 57647" transform="translate(0.971 35.105)">
        <path id="Trazado_103216" data-name="Trazado 103216" d="M11.447,179.064V147.981a2.914,2.914,0,0,1,2.914-2.914H11.447a2.914,2.914,0,0,0-2.914,2.914v31.083a2.914,2.914,0,0,0,2.914,2.914h2.914a2.914,2.914,0,0,1-2.914-2.914" transform="translate(-8.533 -133.411)" fill="#fff"/>
        <path id="Trazado_103217" data-name="Trazado 103217" d="M48.5,42.667H45.581a2.914,2.914,0,0,0-2.914,2.914v8.742h2.914V45.581A2.914,2.914,0,0,1,48.5,42.667" transform="translate(-38.782 -42.667)" fill="#fff"/>
      </g>
      <g id="Grupo_57648" data-name="Grupo 57648" transform="translate(47.596 40.933)">
        <path id="Trazado_103218" data-name="Trazado 103218" d="M455.181,145.067h-2.914a2.914,2.914,0,0,1,2.914,2.914v31.083a2.914,2.914,0,0,1-2.914,2.914h2.914a2.914,2.914,0,0,0,2.914-2.914V147.981a2.914,2.914,0,0,0-2.914-2.914" transform="translate(-448.382 -139.239)" fill="#ffa800"/>
        <path id="Trazado_103219" data-name="Trazado 103219" d="M421.047,93.867h-2.914a2.914,2.914,0,0,1,2.914,2.914V99.7h2.914V96.781a2.914,2.914,0,0,0-2.914-2.914" transform="translate(-418.133 -93.867)" fill="#ffa800"/>
      </g>
      <g id="Grupo_57649" data-name="Grupo 57649" transform="translate(0 34.134)">
        <path id="Trazado_103220" data-name="Trazado 103220" d="M323.713,189.677H308.171a.971.971,0,1,1,0-1.943h15.542a.971.971,0,0,1,0,1.943" transform="translate(-272.231 -170.25)"/>
        <path id="Trazado_103221" data-name="Trazado 103221" d="M384.209,223.81h-7.771a.971.971,0,1,1,0-1.943h7.771a.971.971,0,1,1,0,1.943" transform="translate(-332.727 -200.497)"/>
        <path id="Trazado_103222" data-name="Trazado 103222" d="M54.4,175.388H3.885A3.889,3.889,0,0,1,0,171.5V157.9a.971.971,0,1,1,1.943,0v13.6a1.945,1.945,0,0,0,1.943,1.943H54.4a1.945,1.945,0,0,0,1.943-1.943V140.419a1.945,1.945,0,0,0-1.943-1.943H3.885a1.945,1.945,0,0,0-1.943,1.943v9.714a.971.971,0,0,1-1.943,0v-9.714a3.889,3.889,0,0,1,3.885-3.885H54.4a3.889,3.889,0,0,1,3.885,3.885V171.5a3.889,3.889,0,0,1-3.885,3.885" transform="translate(0 -124.878)"/>
        <path id="Trazado_103223" data-name="Trazado 103223" d="M1.943,282.571a.971.971,0,1,1-.971-.971.971.971,0,0,1,.971.971" transform="translate(0 -253.431)"/>
        <path id="Trazado_103224" data-name="Trazado 103224" d="M36.077,45.79H82.7V43.847A1.945,1.945,0,0,0,80.759,41.9H54.067a2.014,2.014,0,0,1-1.58-.76l-3.765-4.706a.962.962,0,0,0-.755-.362H38.019a1.945,1.945,0,0,0-1.943,1.943Zm47.6,1.943H35.105a.971.971,0,0,1-.971-.971V38.019a3.889,3.889,0,0,1,3.885-3.885h9.948a2.9,2.9,0,0,1,2.271,1.092L54,39.931l26.756.031a3.889,3.889,0,0,1,3.885,3.885v2.914a.971.971,0,0,1-.971.971Z" transform="translate(-30.249 -34.134)"/>
      </g>
    </g>
  </g>
</svg>
