<svg xmlns="http://www.w3.org/2000/svg" width="60.22" height="60.04" viewBox="0 0 60.22 60.04">
  <g id="Grupo_57554" data-name="Grupo 57554" transform="translate(0 0)">
    <g id="android" transform="translate(0 0)">
      <path id="Trazado_102854" data-name="Trazado 102854" d="M30.02,0A30.02,30.02,0,1,1,0,30.02,30.02,30.02,0,0,1,30.02,0Z" transform="translate(0 0)" fill="#26a69a"/>
      <path id="Trazado_102830" data-name="Trazado 102830" d="M122.893,119.626a30.109,30.109,0,0,0,28.9-30.009L130.577,68.4l-3.759,4.163-6.177.767-5.979-5.979.864,4.9-6.261,9.61,4.442,4.442-1.364,1.291-4.863-4.863-3.7,15.829,12.559,12.559-1.282.373Z" transform="translate(-91.572 -59.612)" fill="#55beb4"/>
      <path id="Trazado_102831" data-name="Trazado 102831" d="M97.277,190.708h0a2.777,2.777,0,0,0-2.777,2.777V205.2a2.777,2.777,0,0,0,2.777,2.777h0a2.777,2.777,0,0,0,2.777-2.777V193.485A2.776,2.776,0,0,0,97.277,190.708Z" transform="translate(-83.385 -168.458)" fill="#fff"/>
      <path id="Trazado_102832" data-name="Trazado 102832" d="M373.065,190.708h0a2.777,2.777,0,0,0-2.777,2.777V205.2a2.777,2.777,0,0,0,2.777,2.777h0a2.777,2.777,0,0,0,2.777-2.777V193.485A2.776,2.776,0,0,0,373.065,190.708Z" transform="translate(-326.735 -168.458)" fill="#e6e6e6"/>
      <path id="Trazado_102833" data-name="Trazado 102833" d="M169.677,71.828l2.066-3.426L170,67.353l-2.12,3.516a12.451,12.451,0,0,0-4.967-1.027h0a12.449,12.449,0,0,0-4.967,1.027l-2.12-3.516L154.09,68.4l2.066,3.426a12.486,12.486,0,0,0-5.724,10.034H175.4A12.485,12.485,0,0,0,169.677,71.828Zm-12.415,5.293a1.27,1.27,0,1,1,1.27-1.27A1.27,1.27,0,0,1,157.262,77.122Zm11.174,0a1.27,1.27,0,1,1,1.27-1.27A1.27,1.27,0,0,1,168.436,77.122Z" transform="translate(-132.738 -59.612)" fill="#fff"/>
      <path id="Trazado_102834" data-name="Trazado 102834" d="M263.122,71.829l2.066-3.426-1.74-1.049-2.121,3.516a12.451,12.451,0,0,0-4.967-1.027h-.028v12.02h12.513A12.485,12.485,0,0,0,263.122,71.829Zm-1.241,5.293a1.27,1.27,0,1,1,1.27-1.27A1.27,1.27,0,0,1,261.881,77.122Z" transform="translate(-226.183 -59.613)" fill="#e6e6e6"/>
      <path id="Trazado_102835" data-name="Trazado 102835" d="M149.773,226.044h4.944v6.2a2.777,2.777,0,0,0,2.777,2.777h0a2.777,2.777,0,0,0,2.777-2.777v-6.2h3.86v6.2a2.777,2.777,0,0,0,2.777,2.777h0a2.777,2.777,0,0,0,2.777-2.777v-6.2h5.079v-19.5H149.773Z" transform="translate(-132.157 -182.429)" fill="#fff"/>
      <path id="Trazado_102836" data-name="Trazado 102836" d="M256.333,206.541v19.5h1.823v6.2a2.777,2.777,0,0,0,2.777,2.777h0a2.777,2.777,0,0,0,2.776-2.777v-6.2h5.079v-19.5Z" transform="translate(-226.183 -182.429)" fill="#e6e6e6"/>
    </g>
  </g>
</svg>
