<svg xmlns="http://www.w3.org/2000/svg" width="84" height="84" viewBox="0 0 84 84">
  <g id="Grupo_57717" data-name="Grupo 57717" transform="translate(-180 -1761)">
    <g id="Grupo_57544" data-name="Grupo 57544" transform="translate(0 145)">
      <circle id="Elipse_1532" data-name="Elipse 1532" cx="42" cy="42" r="42" transform="translate(180 1616)" fill="#ffca28"/>
    </g>
    <g id="XMLID_1123_" transform="translate(197.136 1776.316)">
      <path id="XMLID_849_" d="M104.881,259.593,90,263.834v-5.81l14.881-4.242Z" transform="translate(-80.699 -227.557)" fill="#a0c8ff"/>
      <g id="XMLID_1501_" transform="translate(0.915 39.369)">
        <circle id="XMLID_805_" cx="4.12" cy="4.12" r="4.12" transform="translate(0 4.387)" fill="#a0c8ff"/>
        <circle id="XMLID_883_" cx="4.134" cy="4.134" r="4.134" transform="translate(14.999)" fill="#a0c8ff"/>
      </g>
      <g id="XMLID_1407_" transform="translate(32.821 1.033)">
        <path id="XMLID_1025_" d="M397.592,18.919l10.79-3.109V10l-10.79,3.109Z" transform="translate(-389.325 -10)" fill="#ff9b9b"/>
        <circle id="XMLID_1026_" cx="4.134" cy="4.134" r="4.134" transform="translate(0 16.252)" fill="#ff9b9b"/>
      </g>
      <path id="XMLID_1315_" d="M323.329,315.031l-4.944,2.6.944-5.505-4-3.9,5.528-.8,2.472-5.009,2.472,5.009,5.528.8-4,3.9.944,5.505Z" transform="translate(-282.742 -271.162)" fill="#cbf4fb"/>
      <path id="XMLID_1509_" d="M18.133,20.367,14.071,22.5l.776-4.524-3.287-3.2,4.542-.66L18.133,10l2.031,4.116,4.542.66-3.287,3.2L22.2,22.5Z" transform="translate(-10.365 -8.967)" fill="#ffd88e"/>
      <g id="XMLID_89_" transform="translate(0 0)">
        <path id="XMLID_1118_" d="M24.182,243.783a1.032,1.032,0,0,0-.283.04h0l-2.968.846a1.033,1.033,0,1,0,.567,1.988l1.652-.471v3.66L10.334,253.5v-3.66l2.218-.632a1.033,1.033,0,1,0-.567-1.988l-2.968.846h0a1.033,1.033,0,0,0-.75.993V262.2a5.165,5.165,0,1,0,2.067,4.131V255.648L23.149,252v5.966a5.165,5.165,0,1,0,2.067,4.131V244.816a1.033,1.033,0,0,0-1.033-1.033ZM5.167,269.434a3.1,3.1,0,1,1,3.1-3.1A3.1,3.1,0,0,1,5.167,269.434Zm14.881-4.242a3.1,3.1,0,1,1,3.1-3.1A3.1,3.1,0,0,1,20.048,265.193Z" transform="translate(0 -218.59)"/>
        <path id="XMLID_2013_" d="M328.3.209A1.034,1.034,0,0,0,327.4.041l-10.79,3.109a1.033,1.033,0,0,0-.747.993V17.289a5.165,5.165,0,1,0,2.067,4.131V10.731l10.042-2.894a1.033,1.033,0,0,0,.747-.993V1.034A1.034,1.034,0,0,0,328.3.209ZM312.759,24.52a3.1,3.1,0,1,1,3.1-3.1A3.1,3.1,0,0,1,312.759,24.52Zm13.89-18.454L317.926,8.58V4.921l8.723-2.514Z" transform="translate(-275.805 -0.001)"/>
        <path id="XMLID_2027_" d="M322.51,298.238l-4.99-.725-2.232-4.522a1.033,1.033,0,0,0-1.853,0l-2.232,4.522-4.99.725A1.033,1.033,0,0,0,305.64,300l3.611,3.52-.852,4.97a1.033,1.033,0,0,0,1.5,1.089l4.463-2.347,4.463,2.346a1.033,1.033,0,0,0,1.5-1.089l-.852-4.97,3.611-3.52a1.033,1.033,0,0,0-.573-1.763Zm-4.87,4.182a1.033,1.033,0,0,0-.3.915l.59,3.442-3.091-1.625a1.033,1.033,0,0,0-.962,0l-3.091,1.625.59-3.442a1.033,1.033,0,0,0-.3-.915l-2.5-2.437,3.456-.5a1.033,1.033,0,0,0,.778-.565l1.546-3.131,1.545,3.131a1.033,1.033,0,0,0,.778.565l3.456.5Z" transform="translate(-273.775 -262.196)"/>
        <path id="XMLID_2031_" d="M4.769,9.374l-.684,3.988a1.033,1.033,0,0,0,1.5,1.089l3.582-1.883,3.582,1.883a1.033,1.033,0,0,0,1.5-1.09l-.684-3.988,2.9-2.824a1.033,1.033,0,0,0-.573-1.763l-4-.582L10.093.576a1.033,1.033,0,0,0-1.853,0L6.448,4.2l-4,.582a1.033,1.033,0,0,0-.573,1.763Zm2.514-3.2a1.033,1.033,0,0,0,.778-.565l1.1-2.238,1.1,2.238a1.033,1.033,0,0,0,.778.565l2.47.359L11.731,8.273a1.033,1.033,0,0,0-.3.915l.422,2.46L9.647,10.486a1.033,1.033,0,0,0-.962,0L6.476,11.648,6.9,9.188a1.033,1.033,0,0,0-.3-.915L4.813,6.531Z" transform="translate(-1.398 0)"/>
        <path id="XMLID_2032_" d="M225.033,86.306A1.033,1.033,0,0,0,224,87.339v1.033a1.033,1.033,0,1,0,2.067,0V87.339A1.033,1.033,0,0,0,225.033,86.306Z" transform="translate(-200.851 -77.387)"/>
        <path id="XMLID_2033_" d="M225.033,156.306A1.033,1.033,0,0,0,224,157.339v1.033a1.033,1.033,0,0,0,2.067,0v-1.033A1.033,1.033,0,0,0,225.033,156.306Z" transform="translate(-200.851 -140.153)"/>
        <path id="XMLID_2036_" d="M256.067,126.306h-1.033a1.033,1.033,0,1,0,0,2.067h1.033a1.033,1.033,0,1,0,0-2.067Z" transform="translate(-227.751 -113.253)"/>
        <path id="XMLID_2038_" d="M185.033,128.373h1.033a1.033,1.033,0,0,0,0-2.067h-1.033a1.033,1.033,0,1,0,0,2.067Z" transform="translate(-164.985 -113.253)"/>
        <path id="XMLID_2039_" d="M153.033,266.377a1.034,1.034,0,1,0-.731-.3A1.041,1.041,0,0,0,153.033,266.377Z" transform="translate(-136.292 -236.996)"/>
      </g>
    </g>
  </g>
</svg>
