<svg xmlns="http://www.w3.org/2000/svg" width="60.04" height="60.04" viewBox="0 0 60.04 60.04">
  <g id="Grupo_57555" data-name="Grupo 57555" transform="translate(0 0)">
    <g id="apple" transform="translate(0 0)">
      <ellipse id="Elipse_1455" data-name="Elipse 1455" cx="30.02" cy="30.02" rx="30.02" ry="30.02" transform="translate(0 0)" fill="#191919"/>
      <path id="Trazado_102827" data-name="Trazado 102827" d="M130.012,100.9l2.175,2.175a10.807,10.807,0,0,1-5.249-1.043,6.97,6.97,0,0,0-3.514-.7c-5.4.373-9.327,7.243-8.768,15.346a17.9,17.9,0,0,0,4.644,10.932l0,0,13.846,13.846a30.12,30.12,0,0,0,28.049-26.926l-22.4-22.4a9.05,9.05,0,0,0-8.773,8.773Z" transform="translate(-101.195 -81.587)" fill="#4a4c4d"/>
      <g id="Grupo_57420" data-name="Grupo 57420" transform="translate(13.407 10.537)">
        <path id="Trazado_102828" data-name="Trazado 102828" d="M141.483,181.142a8.621,8.621,0,0,1,4.149-7.306,8.028,8.028,0,0,0-5.855-3.6,6.973,6.973,0,0,0-3.517.7,10.8,10.8,0,0,1-9.324,0,6.97,6.97,0,0,0-3.514-.7c-5.4.373-9.327,7.243-8.768,15.346s6.385,14.3,10.793,14a5.259,5.259,0,0,0,1.768-.459,10.8,10.8,0,0,1,8.768,0,5.254,5.254,0,0,0,1.769.46c3.682.254,8.351-4.03,10.116-10.17A8.658,8.658,0,0,1,141.483,181.142Z" transform="translate(-114.601 -161.037)" fill="#fff"/>
        <path id="Trazado_102829" data-name="Trazado 102829" d="M248.247,94.771A9.025,9.025,0,0,0,245.6,100.9a9.05,9.05,0,0,0,8.773-8.773A9.025,9.025,0,0,0,248.247,94.771Z" transform="translate(-230.19 -92.124)" fill="#fff"/>
      </g>
    </g>
  </g>
</svg>
