<svg xmlns="http://www.w3.org/2000/svg" width="133.692" height="135.147" viewBox="0 0 133.692 135.147">
  <g id="servidor" transform="translate(-2.755)">
    <path id="Trazado_102855" data-name="Trazado 102855" d="M313.594,415.238v10.773a1.32,1.32,0,0,1-1.32,1.32H264.592a1.32,1.32,0,0,1-1.32-1.32V415.238H256V438.8h63.547a1.32,1.32,0,0,0,1.32-1.32V415.238Z" transform="translate(-186.399 -305.632)" fill="#b6c4cf"/>
    <path id="Trazado_102856" data-name="Trazado 102856" d="M264.592,427.33a1.32,1.32,0,0,1-1.32-1.32V415.238H256V438.8h12.209V427.33Z" transform="translate(-186.399 -305.632)" fill="#9facba"/>
    <path id="Trazado_102857" data-name="Trazado 102857" d="M318.227,7.5H256V115.126h7.272v-7.272h50.322v7.272h7.272V10.14A2.64,2.64,0,0,0,318.227,7.5Z" transform="translate(-186.399 -5.52)" fill="#596c76"/>
    <path id="Trazado_102858" data-name="Trazado 102858" d="M263.272,16.092a1.32,1.32,0,0,1,1.32-1.32h3.618V7.5H256V115.126h7.272Z" transform="translate(-186.399 -5.52)" fill="#465a61"/>
    <g id="Grupo_57424" data-name="Grupo 57424" transform="translate(76.873 25.34)">
      <path id="Trazado_102859" data-name="Trazado 102859" d="M283.55,96h50.322v76.993H283.55Z" transform="translate(-283.55 -96)" fill="#b6c4cf"/>
    </g>
    <g id="Grupo_57425" data-name="Grupo 57425" transform="translate(76.873 28.616)">
      <path id="Trazado_102860" data-name="Trazado 102860" d="M283.55,108.411h12.261v39.942H283.55Z" transform="translate(-283.55 -108.411)" fill="#9facba"/>
    </g>
    <path id="Trazado_102861" data-name="Trazado 102861" d="M346.118,189.637V165.82a1.32,1.32,0,0,0-1.32-1.32H310.81a1.32,1.32,0,0,0-1.32,1.32v23.817Z" transform="translate(-225.77 -121.079)" fill="#596c76"/>
    <path id="Trazado_102862" data-name="Trazado 102862" d="M317.605,189.637V165.82a1.32,1.32,0,0,1,1.32-1.32H310.81a1.32,1.32,0,0,0-1.32,1.32v23.817Z" transform="translate(-225.77 -121.079)" fill="#465a61"/>
    <g id="Grupo_57428" data-name="Grupo 57428" transform="translate(76.873 88.745)">
      <g id="Grupo_57426" data-name="Grupo 57426" transform="translate(0 0)">
        <path id="Trazado_102863" data-name="Trazado 102863" d="M283.55,336.21h50.322V349.8H283.55Z" transform="translate(-283.55 -336.21)" fill="#7a8c98"/>
      </g>
      <g id="Grupo_57427" data-name="Grupo 57427">
        <path id="Trazado_102864" data-name="Trazado 102864" d="M283.55,336.209h12.261V349.8H283.55Z" transform="translate(-283.55 -336.209)" fill="#596c76"/>
      </g>
    </g>
    <g id="Grupo_57431" data-name="Grupo 57431" transform="translate(76.873 102.333)">
      <g id="Grupo_57429" data-name="Grupo 57429">
        <path id="Trazado_102865" data-name="Trazado 102865" d="M283.55,387.688v18.044a1.32,1.32,0,0,0,1.32,1.32h47.683a1.32,1.32,0,0,0,1.32-1.32V387.688Z" transform="translate(-283.55 -387.688)" fill="#b6c4cf"/>
      </g>
      <g id="Grupo_57430" data-name="Grupo 57430" transform="translate(0 0)">
        <path id="Trazado_102866" data-name="Trazado 102866" d="M295.811,405.733V387.689H283.55v18.044a1.32,1.32,0,0,0,1.32,1.32h12.261A1.32,1.32,0,0,1,295.811,405.733Z" transform="translate(-283.55 -387.689)" fill="#9facba"/>
      </g>
    </g>
    <g id="Grupo_57434" data-name="Grupo 57434" transform="translate(76.873 75.157)">
      <g id="Grupo_57432" data-name="Grupo 57432">
        <path id="Trazado_102867" data-name="Trazado 102867" d="M283.55,284.731h50.322v13.588H283.55Z" transform="translate(-283.55 -284.731)" fill="#e8edf2"/>
      </g>
      <g id="Grupo_57433" data-name="Grupo 57433">
        <path id="Trazado_102868" data-name="Trazado 102868" d="M283.55,284.731h12.261v13.588H283.55Z" transform="translate(-283.55 -284.731)" fill="#d9e7ec"/>
      </g>
    </g>
    <g id="Grupo_57437" data-name="Grupo 57437" transform="translate(76.873 9.252)">
      <g id="Grupo_57435" data-name="Grupo 57435">
        <path id="Trazado_102869" data-name="Trazado 102869" d="M283.55,36.37V54.414h50.322V36.37a1.32,1.32,0,0,0-1.32-1.32H284.87A1.32,1.32,0,0,0,283.55,36.37Z" transform="translate(-283.55 -35.05)" fill="#8d9ca8"/>
      </g>
      <g id="Grupo_57436" data-name="Grupo 57436" transform="translate(0 0)">
        <path id="Trazado_102870" data-name="Trazado 102870" d="M297.131,35.05H284.87a1.32,1.32,0,0,0-1.32,1.32V54.415h12.261V36.37a1.32,1.32,0,0,1,1.32-1.32Z" transform="translate(-283.55 -35.05)" fill="#7a8c98"/>
      </g>
    </g>
    <g id="Grupo_57438" data-name="Grupo 57438" transform="translate(76.873 68.558)">
      <path id="Trazado_102871" data-name="Trazado 102871" d="M283.55,259.731h50.322v6.6H283.55Z" transform="translate(-283.55 -259.731)" fill="#8d9ca8"/>
    </g>
    <g id="Grupo_57439" data-name="Grupo 57439" transform="translate(76.873 68.558)">
      <path id="Trazado_102872" data-name="Trazado 102872" d="M283.55,259.731h12.261v6.6H283.55Z" transform="translate(-283.55 -259.731)" fill="#7a8c98"/>
    </g>
    <g id="Grupo_57440" data-name="Grupo 57440" transform="translate(90.319 50.02)">
      <path id="Trazado_102873" data-name="Trazado 102873" d="M334.49,200.911V190.028a.528.528,0,0,1,.528-.528h22.374a.528.528,0,0,1,.528.528v10.883a.528.528,0,0,1-.528.528H335.018A.528.528,0,0,1,334.49,200.911Z" transform="translate(-334.49 -189.5)" fill="#01d0fb"/>
    </g>
    <g id="Grupo_57441" data-name="Grupo 57441" transform="translate(90.319 50.02)">
      <path id="Trazado_102874" data-name="Trazado 102874" d="M342.605,200.911V190.028a.528.528,0,0,1,.528-.528h-8.115a.528.528,0,0,0-.528.528v10.883a.528.528,0,0,0,.528.528h8.115A.528.528,0,0,1,342.605,200.911Z" transform="translate(-334.49 -189.5)" fill="#01c0fa"/>
    </g>
    <path id="Trazado_102875" data-name="Trazado 102875" d="M67.585,415.238v10.773a1.057,1.057,0,0,1-1.056,1.056H18.847a1.057,1.057,0,0,1-1.056-1.056V415.238H10.255V437.48a1.32,1.32,0,0,0,1.32,1.32H75.121V415.238Z" transform="translate(-5.52 -305.632)" fill="#b6c4cf"/>
    <path id="Trazado_102876" data-name="Trazado 102876" d="M22.594,437.48V427.33H18.847a1.32,1.32,0,0,1-1.32-1.32V415.238H10.255V437.48a1.32,1.32,0,0,0,1.32,1.32H23.914A1.32,1.32,0,0,1,22.594,437.48Z" transform="translate(-5.52 -305.632)" fill="#9facba"/>
    <path id="Trazado_102877" data-name="Trazado 102877" d="M12.895,7.5a2.64,2.64,0,0,0-2.64,2.64V115.126h7.536v-7.008H67.585v7.008h7.536V7.5Z" transform="translate(-5.52 -5.52)" fill="#596c76"/>
    <path id="Trazado_102878" data-name="Trazado 102878" d="M17.527,16.092a1.32,1.32,0,0,1,1.32-1.32h3.747V10.14a2.64,2.64,0,0,1,2.64-2.64H12.895a2.64,2.64,0,0,0-2.64,2.64V115.126h7.272Z" transform="translate(-5.52 -5.52)" fill="#465a61"/>
    <g id="Grupo_57444" data-name="Grupo 57444" transform="translate(12.007 88.745)">
      <g id="Grupo_57442" data-name="Grupo 57442" transform="translate(0 0)">
        <path id="Trazado_102879" data-name="Trazado 102879" d="M37.805,336.21H88.127V349.8H37.805Z" transform="translate(-37.805 -336.21)" fill="#01d0fb"/>
      </g>
      <g id="Grupo_57443" data-name="Grupo 57443">
        <path id="Trazado_102880" data-name="Trazado 102880" d="M37.805,336.209H50V349.8H37.805Z" transform="translate(-37.805 -336.209)" fill="#01c0fa"/>
      </g>
    </g>
    <g id="Grupo_57447" data-name="Grupo 57447" transform="translate(12.007 42.204)">
      <g id="Grupo_57445" data-name="Grupo 57445">
        <path id="Trazado_102881" data-name="Trazado 102881" d="M37.805,159.89H88.127v13.588H37.805Z" transform="translate(-37.805 -159.89)" fill="#7a8c98"/>
      </g>
      <g id="Grupo_57446" data-name="Grupo 57446">
        <path id="Trazado_102882" data-name="Trazado 102882" d="M37.805,159.89H50v13.588H37.805Z" transform="translate(-37.805 -159.89)" fill="#596c76"/>
      </g>
    </g>
    <g id="Grupo_57450" data-name="Grupo 57450" transform="translate(12.007 28.616)">
      <g id="Grupo_57448" data-name="Grupo 57448">
        <path id="Trazado_102883" data-name="Trazado 102883" d="M37.805,108.411H88.127V122H37.805Z" transform="translate(-37.805 -108.411)" fill="#99e6fc"/>
      </g>
      <g id="Grupo_57449" data-name="Grupo 57449">
        <path id="Trazado_102884" data-name="Trazado 102884" d="M37.805,108.411H50V122H37.805Z" transform="translate(-37.805 -108.411)" fill="#62dbfb"/>
      </g>
    </g>
    <g id="Grupo_57451" data-name="Grupo 57451" transform="translate(12.007 75.157)">
      <path id="Trazado_102885" data-name="Trazado 102885" d="M37.805,284.731H88.127v13.588H37.805Z" transform="translate(-37.805 -284.731)" fill="#7a8c98"/>
    </g>
    <g id="Grupo_57452" data-name="Grupo 57452" transform="translate(12.007 75.157)">
      <path id="Trazado_102886" data-name="Trazado 102886" d="M37.805,284.731H50v13.588H37.805Z" transform="translate(-37.805 -284.731)" fill="#596c76"/>
    </g>
    <g id="Grupo_57455" data-name="Grupo 57455" transform="translate(12.007 55.793)">
      <g id="Grupo_57453" data-name="Grupo 57453">
        <path id="Trazado_102887" data-name="Trazado 102887" d="M37.805,211.369H88.127v19.364H37.805Z" transform="translate(-37.805 -211.369)" fill="#b6c4cf"/>
      </g>
      <g id="Grupo_57454" data-name="Grupo 57454">
        <path id="Trazado_102888" data-name="Trazado 102888" d="M37.805,211.369H50v19.364H37.805Z" transform="translate(-37.805 -211.369)" fill="#9facba"/>
      </g>
    </g>
    <g id="Grupo_57458" data-name="Grupo 57458" transform="translate(12.007 9.252)">
      <g id="Grupo_57456" data-name="Grupo 57456">
        <path id="Trazado_102889" data-name="Trazado 102889" d="M37.805,36.37V54.414H88.127V36.37a1.32,1.32,0,0,0-1.32-1.32H39.125a1.32,1.32,0,0,0-1.32,1.32Z" transform="translate(-37.805 -35.05)" fill="#e8edf2"/>
      </g>
      <g id="Grupo_57457" data-name="Grupo 57457" transform="translate(0 0)">
        <path id="Trazado_102890" data-name="Trazado 102890" d="M51.318,35.05H39.125a1.32,1.32,0,0,0-1.32,1.32V54.415H50V36.37a1.32,1.32,0,0,1,1.32-1.32Z" transform="translate(-37.805 -35.05)" fill="#d9e7ec"/>
      </g>
    </g>
    <g id="Grupo_57461" data-name="Grupo 57461" transform="translate(12.007 102.333)">
      <g id="Grupo_57459" data-name="Grupo 57459">
        <path id="Trazado_102891" data-name="Trazado 102891" d="M37.805,387.688v18.044a1.32,1.32,0,0,0,1.32,1.32H86.808a1.32,1.32,0,0,0,1.32-1.32V387.688Z" transform="translate(-37.805 -387.688)" fill="#e8edf2"/>
      </g>
      <g id="Grupo_57460" data-name="Grupo 57460" transform="translate(0 0)">
        <path id="Trazado_102892" data-name="Trazado 102892" d="M50,405.733V387.689H37.805v18.044a1.32,1.32,0,0,0,1.32,1.32H51.318A1.32,1.32,0,0,1,50,405.733Z" transform="translate(-37.805 -387.689)" fill="#d9e7ec"/>
      </g>
    </g>
    <g id="Grupo_57462" data-name="Grupo 57462" transform="translate(2.755)">
      <path id="Trazado_102893" data-name="Trazado 102893" d="M424.044,358.408h6.108a1.98,1.98,0,1,0,0-3.959h-6.108a1.98,1.98,0,1,0,0,3.959Z" transform="translate(-311.384 -260.889)"/>
      <path id="Trazado_102894" data-name="Trazado 102894" d="M299.519,356.067a1.98,1.98,0,0,0,1.98-1.98V351.47a1.98,1.98,0,0,0-3.959,0v2.618A1.98,1.98,0,0,0,299.519,356.067Z" transform="translate(-219.728 -257.239)"/>
      <path id="Trazado_102895" data-name="Trazado 102895" d="M319.354,356.067a1.98,1.98,0,0,0,1.98-1.98V351.47a1.98,1.98,0,0,0-3.959,0v2.618A1.98,1.98,0,0,0,319.354,356.067Z" transform="translate(-234.328 -257.239)"/>
      <path id="Trazado_102896" data-name="Trazado 102896" d="M339.19,356.067a1.98,1.98,0,0,0,1.98-1.98V351.47a1.98,1.98,0,0,0-3.959,0v2.618A1.98,1.98,0,0,0,339.19,356.067Z" transform="translate(-248.928 -257.239)"/>
      <path id="Trazado_102897" data-name="Trazado 102897" d="M359.026,356.067a1.98,1.98,0,0,0,1.98-1.98V351.47a1.98,1.98,0,0,0-3.959,0v2.618A1.98,1.98,0,0,0,359.026,356.067Z" transform="translate(-263.528 -257.239)"/>
      <circle id="Elipse_1464" data-name="Elipse 1464" cx="1.98" cy="1.98" r="1.98" transform="translate(105.299 93.56)"/>
      <circle id="Elipse_1465" data-name="Elipse 1465" cx="1.98" cy="1.98" r="1.98" transform="translate(100.063 93.601)"/>
      <path id="Trazado_102898" data-name="Trazado 102898" d="M302.824,432.4h15.707a1.98,1.98,0,0,0,0-3.959H302.824a1.98,1.98,0,0,0,0,3.959Z" transform="translate(-222.161 -315.35)"/>
      <path id="Trazado_102899" data-name="Trazado 102899" d="M302.824,409.257h15.707a1.98,1.98,0,0,0,0-3.959H302.824a1.98,1.98,0,0,0,0,3.959Z" transform="translate(-222.161 -298.316)"/>
      <circle id="Elipse_1466" data-name="Elipse 1466" cx="1.98" cy="1.98" r="1.98" transform="translate(101.662 106.982)"/>
      <circle id="Elipse_1467" data-name="Elipse 1467" cx="1.98" cy="1.98" r="1.98" transform="translate(101.662 113.09)"/>
      <circle id="Elipse_1468" data-name="Elipse 1468" cx="1.98" cy="1.98" r="1.98" transform="translate(106.414 106.982)"/>
      <circle id="Elipse_1469" data-name="Elipse 1469" cx="1.98" cy="1.98" r="1.98" transform="translate(106.414 113.09)"/>
      <circle id="Elipse_1470" data-name="Elipse 1470" cx="1.98" cy="1.98" r="1.98" transform="translate(111.165 106.982)"/>
      <circle id="Elipse_1471" data-name="Elipse 1471" cx="1.98" cy="1.98" r="1.98" transform="translate(111.165 113.09)"/>
      <circle id="Elipse_1472" data-name="Elipse 1472" cx="1.98" cy="1.98" r="1.98" transform="translate(115.916 106.982)"/>
      <circle id="Elipse_1473" data-name="Elipse 1473" cx="1.98" cy="1.98" r="1.98" transform="translate(115.916 113.09)"/>
      <path id="Trazado_102900" data-name="Trazado 102900" d="M424.044,306.929h6.108a1.98,1.98,0,1,0,0-3.959h-6.108a1.98,1.98,0,1,0,0,3.959Z" transform="translate(-311.384 -222.999)"/>
      <path id="Trazado_102901" data-name="Trazado 102901" d="M299.519,304.588a1.98,1.98,0,0,0,1.98-1.98v-2.618a1.98,1.98,0,0,0-3.959,0v2.618A1.98,1.98,0,0,0,299.519,304.588Z" transform="translate(-219.728 -219.348)"/>
      <path id="Trazado_102902" data-name="Trazado 102902" d="M319.354,304.588a1.98,1.98,0,0,0,1.98-1.98v-2.618a1.98,1.98,0,0,0-3.959,0v2.618A1.98,1.98,0,0,0,319.354,304.588Z" transform="translate(-234.328 -219.348)"/>
      <path id="Trazado_102903" data-name="Trazado 102903" d="M339.19,304.588a1.98,1.98,0,0,0,1.98-1.98v-2.618a1.98,1.98,0,0,0-3.959,0v2.618A1.98,1.98,0,0,0,339.19,304.588Z" transform="translate(-248.928 -219.348)"/>
      <path id="Trazado_102904" data-name="Trazado 102904" d="M359.026,304.588a1.98,1.98,0,0,0,1.98-1.98v-2.618a1.98,1.98,0,0,0-3.959,0v2.618A1.98,1.98,0,0,0,359.026,304.588Z" transform="translate(-263.528 -219.348)"/>
      <circle id="Elipse_1474" data-name="Elipse 1474" cx="1.98" cy="1.98" r="1.98" transform="translate(105.299 79.971)"/>
      <circle id="Elipse_1475" data-name="Elipse 1475" cx="1.98" cy="1.98" r="1.98" transform="translate(100.063 80.013)"/>
      <path id="Trazado_102905" data-name="Trazado 102905" d="M318.531,75.8H302.824a1.98,1.98,0,1,0,0,3.959h15.707a1.98,1.98,0,1,0,0-3.959Z" transform="translate(-222.161 -55.793)"/>
      <path id="Trazado_102906" data-name="Trazado 102906" d="M318.531,52.66H302.824a1.98,1.98,0,1,0,0,3.959h15.707a1.98,1.98,0,1,0,0-3.959Z" transform="translate(-222.161 -38.76)"/>
      <circle id="Elipse_1476" data-name="Elipse 1476" cx="1.98" cy="1.98" r="1.98" transform="translate(101.662 13.9)"/>
      <circle id="Elipse_1477" data-name="Elipse 1477" cx="1.98" cy="1.98" r="1.98" transform="translate(101.662 20.009)"/>
      <circle id="Elipse_1478" data-name="Elipse 1478" cx="1.98" cy="1.98" r="1.98" transform="translate(106.414 13.9)"/>
      <circle id="Elipse_1479" data-name="Elipse 1479" cx="1.98" cy="1.98" r="1.98" transform="translate(106.414 20.009)"/>
      <circle id="Elipse_1480" data-name="Elipse 1480" cx="1.98" cy="1.98" r="1.98" transform="translate(111.165 13.9)"/>
      <circle id="Elipse_1481" data-name="Elipse 1481" cx="1.98" cy="1.98" r="1.98" transform="translate(111.165 20.009)"/>
      <circle id="Elipse_1482" data-name="Elipse 1482" cx="1.98" cy="1.98" r="1.98" transform="translate(115.916 13.9)"/>
      <circle id="Elipse_1483" data-name="Elipse 1483" cx="1.98" cy="1.98" r="1.98" transform="translate(115.916 20.009)"/>
      <path id="Trazado_102907" data-name="Trazado 102907" d="M351.872,182H329.5a2.511,2.511,0,0,0-2.508,2.508v10.883A2.511,2.511,0,0,0,329.5,197.9h22.374a2.511,2.511,0,0,0,2.508-2.508V184.508A2.511,2.511,0,0,0,351.872,182Zm-1.452,11.939H330.949v-7.979H350.42Z" transform="translate(-241.405 -133.96)"/>
      <path id="Trazado_102908" data-name="Trazado 102908" d="M178.3,358.408h6.109a1.98,1.98,0,0,0,0-3.959H178.3a1.98,1.98,0,0,0,0,3.959Z" transform="translate(-130.505 -260.889)"/>
      <path id="Trazado_102909" data-name="Trazado 102909" d="M53.774,356.067a1.98,1.98,0,0,0,1.98-1.98V351.47a1.98,1.98,0,0,0-3.959,0v2.618A1.98,1.98,0,0,0,53.774,356.067Z" transform="translate(-38.85 -257.239)"/>
      <path id="Trazado_102910" data-name="Trazado 102910" d="M73.61,356.067a1.98,1.98,0,0,0,1.98-1.98V351.47a1.98,1.98,0,0,0-3.959,0v2.618A1.98,1.98,0,0,0,73.61,356.067Z" transform="translate(-53.45 -257.239)"/>
      <path id="Trazado_102911" data-name="Trazado 102911" d="M93.446,356.067a1.98,1.98,0,0,0,1.98-1.98V351.47a1.98,1.98,0,0,0-3.959,0v2.618A1.98,1.98,0,0,0,93.446,356.067Z" transform="translate(-68.05 -257.239)"/>
      <path id="Trazado_102912" data-name="Trazado 102912" d="M113.282,356.067a1.98,1.98,0,0,0,1.98-1.98V351.47a1.98,1.98,0,0,0-3.959,0v2.618A1.98,1.98,0,0,0,113.282,356.067Z" transform="translate(-82.65 -257.239)"/>
      <circle id="Elipse_1484" data-name="Elipse 1484" cx="1.98" cy="1.98" r="1.98" transform="translate(40.432 93.56)"/>
      <circle id="Elipse_1485" data-name="Elipse 1485" cx="1.98" cy="1.98" r="1.98" transform="translate(35.196 93.601)"/>
      <path id="Trazado_102913" data-name="Trazado 102913" d="M53.774,182.089h6.109a1.98,1.98,0,0,0,0-3.959H53.774a1.98,1.98,0,0,0,0,3.959Z" transform="translate(-38.85 -131.111)"/>
      <path id="Trazado_102914" data-name="Trazado 102914" d="M201.441,179.748a1.98,1.98,0,0,0,1.98-1.98v-2.618a1.98,1.98,0,1,0-3.959,0v2.618A1.98,1.98,0,0,0,201.441,179.748Z" transform="translate(-147.539 -127.461)"/>
      <path id="Trazado_102915" data-name="Trazado 102915" d="M181.6,179.748a1.98,1.98,0,0,0,1.98-1.98v-2.618a1.98,1.98,0,1,0-3.959,0v2.618A1.98,1.98,0,0,0,181.6,179.748Z" transform="translate(-132.939 -127.461)"/>
      <path id="Trazado_102916" data-name="Trazado 102916" d="M161.769,179.748a1.98,1.98,0,0,0,1.98-1.98v-2.618a1.98,1.98,0,1,0-3.959,0v2.618A1.98,1.98,0,0,0,161.769,179.748Z" transform="translate(-118.339 -127.461)"/>
      <path id="Trazado_102917" data-name="Trazado 102917" d="M141.933,179.748a1.98,1.98,0,0,0,1.98-1.98v-2.618a1.98,1.98,0,1,0-3.959,0v2.618A1.98,1.98,0,0,0,141.933,179.748Z" transform="translate(-103.738 -127.461)"/>
      <circle id="Elipse_1486" data-name="Elipse 1486" cx="1.98" cy="1.98" r="1.98" transform="translate(24.434 47.019)"/>
      <circle id="Elipse_1487" data-name="Elipse 1487" cx="1.98" cy="1.98" r="1.98" transform="translate(29.67 46.977)"/>
      <path id="Trazado_102918" data-name="Trazado 102918" d="M178.3,306.929h6.109a1.98,1.98,0,0,0,0-3.959H178.3a1.98,1.98,0,0,0,0,3.959Z" transform="translate(-130.505 -222.999)"/>
      <path id="Trazado_102919" data-name="Trazado 102919" d="M53.774,304.588a1.98,1.98,0,0,0,1.98-1.98v-2.618a1.98,1.98,0,0,0-3.959,0v2.618A1.98,1.98,0,0,0,53.774,304.588Z" transform="translate(-38.85 -219.348)"/>
      <path id="Trazado_102920" data-name="Trazado 102920" d="M73.61,304.588a1.98,1.98,0,0,0,1.98-1.98v-2.618a1.98,1.98,0,0,0-3.959,0v2.618A1.98,1.98,0,0,0,73.61,304.588Z" transform="translate(-53.45 -219.348)"/>
      <path id="Trazado_102921" data-name="Trazado 102921" d="M93.446,304.588a1.98,1.98,0,0,0,1.98-1.98v-2.618a1.98,1.98,0,0,0-3.959,0v2.618A1.98,1.98,0,0,0,93.446,304.588Z" transform="translate(-68.05 -219.348)"/>
      <path id="Trazado_102922" data-name="Trazado 102922" d="M113.282,304.588a1.98,1.98,0,0,0,1.98-1.98v-2.618a1.98,1.98,0,0,0-3.959,0v2.618A1.98,1.98,0,0,0,113.282,304.588Z" transform="translate(-82.65 -219.348)"/>
      <circle id="Elipse_1488" data-name="Elipse 1488" cx="1.98" cy="1.98" r="1.98" transform="translate(40.432 79.971)"/>
      <circle id="Elipse_1489" data-name="Elipse 1489" cx="1.98" cy="1.98" r="1.98" transform="translate(35.196 80.013)"/>
      <path id="Trazado_102923" data-name="Trazado 102923" d="M57.079,256.08H72.786a1.98,1.98,0,1,0,0-3.959H57.079a1.98,1.98,0,0,0,0,3.959Z" transform="translate(-41.282 -185.572)"/>
      <path id="Trazado_102924" data-name="Trazado 102924" d="M57.079,232.938H72.786a1.98,1.98,0,0,0,0-3.959H57.079a1.98,1.98,0,0,0,0,3.959Z" transform="translate(-41.282 -168.538)"/>
      <circle id="Elipse_1490" data-name="Elipse 1490" cx="1.98" cy="1.98" r="1.98" transform="translate(36.796 60.441)"/>
      <circle id="Elipse_1491" data-name="Elipse 1491" cx="1.98" cy="1.98" r="1.98" transform="translate(36.796 66.549)"/>
      <circle id="Elipse_1492" data-name="Elipse 1492" cx="1.98" cy="1.98" r="1.98" transform="translate(41.547 60.441)"/>
      <circle id="Elipse_1493" data-name="Elipse 1493" cx="1.98" cy="1.98" r="1.98" transform="translate(41.547 66.549)"/>
      <circle id="Elipse_1494" data-name="Elipse 1494" cx="1.98" cy="1.98" r="1.98" transform="translate(46.298 60.441)"/>
      <circle id="Elipse_1495" data-name="Elipse 1495" cx="1.98" cy="1.98" r="1.98" transform="translate(46.298 66.549)"/>
      <circle id="Elipse_1496" data-name="Elipse 1496" cx="1.98" cy="1.98" r="1.98" transform="translate(51.05 60.441)"/>
      <circle id="Elipse_1497" data-name="Elipse 1497" cx="1.98" cy="1.98" r="1.98" transform="translate(51.05 66.549)"/>
      <path id="Trazado_102925" data-name="Trazado 102925" d="M72.786,75.8H57.079a1.98,1.98,0,1,0,0,3.959H72.786a1.98,1.98,0,1,0,0-3.959Z" transform="translate(-41.282 -55.793)"/>
      <path id="Trazado_102926" data-name="Trazado 102926" d="M72.786,52.66H57.079a1.98,1.98,0,0,0,0,3.959H72.786a1.98,1.98,0,1,0,0-3.959Z" transform="translate(-41.282 -38.76)"/>
      <circle id="Elipse_1498" data-name="Elipse 1498" cx="1.98" cy="1.98" r="1.98" transform="translate(36.796 13.9)"/>
      <circle id="Elipse_1499" data-name="Elipse 1499" cx="1.98" cy="1.98" r="1.98" transform="translate(36.796 20.009)"/>
      <circle id="Elipse_1500" data-name="Elipse 1500" cx="1.98" cy="1.98" r="1.98" transform="translate(41.547 13.9)"/>
      <circle id="Elipse_1501" data-name="Elipse 1501" cx="1.98" cy="1.98" r="1.98" transform="translate(41.547 20.009)"/>
      <circle id="Elipse_1502" data-name="Elipse 1502" cx="1.98" cy="1.98" r="1.98" transform="translate(46.298 13.9)"/>
      <circle id="Elipse_1503" data-name="Elipse 1503" cx="1.98" cy="1.98" r="1.98" transform="translate(46.298 20.009)"/>
      <circle id="Elipse_1504" data-name="Elipse 1504" cx="1.98" cy="1.98" r="1.98" transform="translate(51.05 13.9)"/>
      <circle id="Elipse_1505" data-name="Elipse 1505" cx="1.98" cy="1.98" r="1.98" transform="translate(51.05 20.009)"/>
      <path id="Trazado_102927" data-name="Trazado 102927" d="M59.882,126.651H53.774a1.98,1.98,0,0,0,0,3.959h6.109a1.98,1.98,0,0,0,0-3.959Z" transform="translate(-38.85 -93.22)"/>
      <path id="Trazado_102928" data-name="Trazado 102928" d="M201.441,121.692a1.98,1.98,0,0,0-1.98,1.98v2.618a1.98,1.98,0,0,0,3.959,0v-2.618A1.98,1.98,0,0,0,201.441,121.692Z" transform="translate(-147.539 -89.57)"/>
      <path id="Trazado_102929" data-name="Trazado 102929" d="M181.6,121.692a1.98,1.98,0,0,0-1.98,1.98v2.618a1.98,1.98,0,0,0,3.959,0v-2.618A1.98,1.98,0,0,0,181.6,121.692Z" transform="translate(-132.939 -89.57)"/>
      <path id="Trazado_102930" data-name="Trazado 102930" d="M161.769,121.692a1.98,1.98,0,0,0-1.98,1.98v2.618a1.98,1.98,0,0,0,3.959,0v-2.618A1.98,1.98,0,0,0,161.769,121.692Z" transform="translate(-118.339 -89.57)"/>
      <path id="Trazado_102931" data-name="Trazado 102931" d="M141.933,121.692a1.98,1.98,0,0,0-1.98,1.98v2.618a1.98,1.98,0,0,0,3.959,0v-2.618A1.98,1.98,0,0,0,141.933,121.692Z" transform="translate(-103.738 -89.57)"/>
      <circle id="Elipse_1506" data-name="Elipse 1506" cx="1.98" cy="1.98" r="1.98" transform="translate(24.434 33.431)"/>
      <circle id="Elipse_1507" data-name="Elipse 1507" cx="1.98" cy="1.98" r="1.98" transform="translate(29.67 33.389)"/>
      <path id="Trazado_102932" data-name="Trazado 102932" d="M72.786,428.44H57.079a1.98,1.98,0,1,0,0,3.959H72.786a1.98,1.98,0,1,0,0-3.959Z" transform="translate(-41.282 -315.35)"/>
      <path id="Trazado_102933" data-name="Trazado 102933" d="M72.786,405.3H57.079a1.98,1.98,0,0,0,0,3.959H72.786a1.98,1.98,0,0,0,0-3.959Z" transform="translate(-41.282 -298.316)"/>
      <circle id="Elipse_1508" data-name="Elipse 1508" cx="1.98" cy="1.98" r="1.98" transform="translate(36.796 106.982)"/>
      <circle id="Elipse_1509" data-name="Elipse 1509" cx="1.98" cy="1.98" r="1.98" transform="translate(36.796 113.09)"/>
      <circle id="Elipse_1510" data-name="Elipse 1510" cx="1.98" cy="1.98" r="1.98" transform="translate(41.547 106.982)"/>
      <circle id="Elipse_1511" data-name="Elipse 1511" cx="1.98" cy="1.98" r="1.98" transform="translate(41.547 113.09)"/>
      <circle id="Elipse_1512" data-name="Elipse 1512" cx="1.98" cy="1.98" r="1.98" transform="translate(46.298 106.982)"/>
      <circle id="Elipse_1513" data-name="Elipse 1513" cx="1.98" cy="1.98" r="1.98" transform="translate(46.298 113.09)"/>
      <circle id="Elipse_1514" data-name="Elipse 1514" cx="1.98" cy="1.98" r="1.98" transform="translate(51.05 106.982)"/>
      <circle id="Elipse_1515" data-name="Elipse 1515" cx="1.98" cy="1.98" r="1.98" transform="translate(51.05 113.09)"/>
      <path id="Trazado_102934" data-name="Trazado 102934" d="M430.152,127.5h-6.108a1.98,1.98,0,1,0,0,3.959h6.108a1.98,1.98,0,1,0,0-3.959Z" transform="translate(-311.384 -93.845)"/>
      <path id="Trazado_102935" data-name="Trazado 102935" d="M299.519,122.541a1.98,1.98,0,0,0-1.98,1.98v2.618a1.98,1.98,0,0,0,3.959,0v-2.618A1.98,1.98,0,0,0,299.519,122.541Z" transform="translate(-219.728 -90.195)"/>
      <path id="Trazado_102936" data-name="Trazado 102936" d="M319.354,122.541a1.98,1.98,0,0,0-1.98,1.98v2.618a1.98,1.98,0,0,0,3.959,0v-2.618A1.98,1.98,0,0,0,319.354,122.541Z" transform="translate(-234.328 -90.195)"/>
      <path id="Trazado_102937" data-name="Trazado 102937" d="M339.19,122.541a1.98,1.98,0,0,0-1.98,1.98v2.618a1.98,1.98,0,0,0,3.959,0v-2.618A1.98,1.98,0,0,0,339.19,122.541Z" transform="translate(-248.928 -90.195)"/>
      <path id="Trazado_102938" data-name="Trazado 102938" d="M359.026,122.541a1.98,1.98,0,0,0-1.98,1.98v2.618a1.98,1.98,0,0,0,3.959,0v-2.618A1.98,1.98,0,0,0,359.026,122.541Z" transform="translate(-263.528 -90.195)"/>
      <circle id="Elipse_1516" data-name="Elipse 1516" cx="1.98" cy="1.98" r="1.98" transform="translate(105.299 33.655)"/>
      <circle id="Elipse_1517" data-name="Elipse 1517" cx="1.98" cy="1.98" r="1.98" transform="translate(100.063 33.696)"/>
      <path id="Trazado_102939" data-name="Trazado 102939" d="M131.828,0H7.374A4.625,4.625,0,0,0,2.755,4.619V131.847a3.3,3.3,0,0,0,3.3,3.3H133.148a3.3,3.3,0,0,0,3.3-3.3V4.619A4.625,4.625,0,0,0,131.828,0ZM67.621,131.187H6.714v-19.6h3.313v8.793a3.3,3.3,0,0,0,3.3,3.3H45.845a1.98,1.98,0,1,0,0-3.959H13.986v-15.4H60.349v15.4H55.083a1.98,1.98,0,1,0,0,3.959h5.926a3.3,3.3,0,0,0,3.3-3.3v-8.793h3.313Zm-7.272-87v9.629H13.986V44.184ZM13.986,40.225V30.6H60.349v9.629ZM60.349,57.772v15.4H13.986v-15.4Zm0,19.364v9.629H13.986V77.137Zm0,13.588v9.629H13.986V90.725Zm7.272,16.9H64.309V22.964a1.98,1.98,0,0,0-3.959,0v3.672H13.986v-15.4H60.349v2.494a1.98,1.98,0,0,0,3.959,0V10.572a3.3,3.3,0,0,0-3.3-3.3H13.327a3.3,3.3,0,0,0-3.3,3.3v97.054H6.714V4.619a.661.661,0,0,1,.66-.66H67.621Zm64.866,23.561H71.581v-19.6h3.313v8.793a3.3,3.3,0,0,0,3.3,3.3h47.683a3.3,3.3,0,0,0,3.3-3.3v-8.793h3.313v19.6Zm-7.272-60.65v2.64H78.853v-2.64ZM85.7,66.578V45.4h32.669V66.578Zm39.516,10.558v9.629H78.853V77.137Zm0,13.588v9.629H78.853V90.725Zm0,13.588v15.4H78.853v-15.4Zm7.272,3.313h-3.313v-48.5a1.98,1.98,0,1,0-3.959,0v7.452h-2.888V44.741a3.3,3.3,0,0,0-3.3-3.3H85.04a3.3,3.3,0,0,0-3.3,3.3V66.578H78.853V30.6h46.363V49.888a1.98,1.98,0,0,0,3.959,0V10.572a3.3,3.3,0,0,0-3.3-3.3H78.193a3.3,3.3,0,0,0-3.3,3.3v97.054H71.581V3.959h60.247a.661.661,0,0,1,.66.66ZM78.853,26.636v-15.4h46.363v15.4Z" transform="translate(-2.755)"/>
    </g>
  </g>
</svg>
