<svg xmlns="http://www.w3.org/2000/svg" width="60.04" height="60.04" viewBox="0 0 60.04 60.04">
  <g id="Grupo_57553" data-name="Grupo 57553" transform="translate(0 0)">
    <g id="linux" transform="translate(0 0)">
      <ellipse id="Elipse_1457" data-name="Elipse 1457" cx="30.02" cy="30.02" rx="30.02" ry="30.02" transform="translate(0 0)" fill="#1565c0"/>
      <path id="Trazado_102837" data-name="Trazado 102837" d="M127.149,78.453,103.938,114.9l14,14.105a30.023,30.023,0,0,0,33.6-26.17Z" transform="translate(-91.71 -69.211)" fill="#039be5"/>
      <path id="Trazado_102838" data-name="Trazado 102838" d="M173.573,77.115A9.7,9.7,0,0,1,170.6,68.36a6.994,6.994,0,0,0-6.7-8.06A7,7,0,0,0,156.916,69a9.548,9.548,0,0,1-2.234,8.916A13.323,13.323,0,0,0,151,87.053c0,8.148,3.171,12.075,7.708,13.312a10.79,10.79,0,0,1,4.243-.763,11.059,11.059,0,0,1,4.086.7c5.6-1.122,8.254-3.849,10.107-10.144A13.623,13.623,0,0,0,173.573,77.115Z" transform="translate(-133.261 -53.183)" fill="#333"/>
      <path id="Trazado_102839" data-name="Trazado 102839" d="M263.619,77.117a9.7,9.7,0,0,1-2.969-8.755A6.98,6.98,0,0,0,253,60.34V99.6a10.165,10.165,0,0,1,4.562.92c5.3-.826,7.83-4.249,9.631-10.368A13.623,13.623,0,0,0,263.619,77.117Z" transform="translate(-223.307 -53.185)"/>
      <path id="Trazado_102840" data-name="Trazado 102840" d="M176.289,170.023c0-5.312,4.256-17.615,9.506-17.615s9.506,12.365,9.506,17.615a9.506,9.506,0,0,1-19.013,0Z" transform="translate(-155.584 -134.501)" fill="#fff"/>
      <path id="Trazado_102841" data-name="Trazado 102841" d="M253.518,152.408a3.426,3.426,0,0,0-.518.041v27.066c.172.009.344.015.518.015a9.506,9.506,0,0,0,9.506-9.506C263.025,164.773,258.769,152.408,253.518,152.408Z" transform="translate(-223.307 -134.501)" fill="#c0c2c1"/>
      <ellipse id="Elipse_1458" data-name="Elipse 1458" cx="1.566" cy="2.125" rx="1.566" ry="2.125" transform="translate(25.139 13.097)" fill="#e6e6e6"/>
      <ellipse id="Elipse_1459" data-name="Elipse 1459" cx="0.776" cy="1.378" rx="0.776" ry="1.378" transform="translate(25.929 14.328)" fill="#000100"/>
      <ellipse id="Elipse_1460" data-name="Elipse 1460" cx="1.566" cy="2.125" rx="1.566" ry="2.125" transform="translate(30.714 13.097)" fill="#e6e6e6"/>
      <ellipse id="Elipse_1461" data-name="Elipse 1461" cx="0.776" cy="1.378" rx="0.776" ry="1.378" transform="translate(31.504 14.328)" fill="#000100"/>
      <path id="Trazado_102842" data-name="Trazado 102842" d="M221.221,136.294c.511,1.09-3.383,3.159-4.739,3.159-1.692,0-5.224-2.5-4.739-3.159.9-1.23,2.88-3.215,4.5-3.215C217.413,133.079,220.874,135.553,221.221,136.294Z" transform="translate(-186.844 -117.437)" fill="#fe9a0f"/>
      <path id="Trazado_102843" data-name="Trazado 102843" d="M257.684,136.592A12.02,12.02,0,0,0,253,133.416v6.333C254.4,139.7,258.189,137.668,257.684,136.592Z" transform="translate(-223.307 -117.735)" fill="#e2810c"/>
      <path id="Trazado_102844" data-name="Trazado 102844" d="M283.105,300.641a5.132,5.132,0,0,0,3.045,2.888,2.362,2.362,0,0,1,1.826,2.042q.023.207.062.415a5.4,5.4,0,0,0,1.084,2.375,1.716,1.716,0,0,1-1.039,2.743l-9.967,1.889a2.553,2.553,0,0,1-2.659-3.832l5.5-8.628A1.237,1.237,0,0,1,283.105,300.641Z" transform="translate(-242.801 -264.768)" fill="#dd7f10"/>
      <path id="Trazado_102845" data-name="Trazado 102845" d="M219.984,162.829a6.366,6.366,0,0,1-4.3-2.063l.485-.509a5.411,5.411,0,0,0,4.19,1.85,4.586,4.586,0,0,0,2.983-1.8l.579.4a5.254,5.254,0,0,1-3.489,2.095A4.327,4.327,0,0,1,219.984,162.829Z" transform="translate(-190.362 -141.431)" fill="#ae4e32"/>
      <path id="Trazado_102846" data-name="Trazado 102846" d="M253.3,162.521c-.1.01-.2.015-.3.017v.7c.125,0,.25-.008.374-.021a5.254,5.254,0,0,0,3.489-2.095l-.579-.4A4.585,4.585,0,0,1,253.3,162.521Z" transform="translate(-223.307 -141.845)" fill="#9e402b"/>
      <ellipse id="Elipse_1462" data-name="Elipse 1462" cx="3.193" cy="3.193" rx="3.193" ry="3.193" transform="translate(38.468 34.217)"/>
      <path id="Trazado_102847" data-name="Trazado 102847" d="M166.982,289s3.412,4.16,5.843,5.1-1.156,3.659-4.437,1.6S166.982,289,166.982,289Z" transform="translate(-146.897 -255.089)" fill="#333"/>
      <path id="Trazado_102848" data-name="Trazado 102848" d="M107.246,300.641a5.132,5.132,0,0,1-3.045,2.888,2.362,2.362,0,0,0-1.826,2.042q-.023.207-.062.415a5.4,5.4,0,0,1-1.084,2.375,1.716,1.716,0,0,0,1.039,2.743l9.967,1.889a2.553,2.553,0,0,0,2.659-3.832l-5.5-8.628A1.237,1.237,0,0,0,107.246,300.641Z" transform="translate(-88.994 -264.768)" fill="#fe9b0e"/>
    </g>
  </g>
</svg>
